{
.appVersion = "3151";
DisplayStrings = (
"",
"/tt_tth-sinhala/tt_ttha-sinhala/tt_tthi-sinhala/tt_tthii-sinhala",
"/t_th-sinhala/t_tha-sinhala/t_thi-sinhala/t_thii-sinhala",
"/gha-sinhala/ya-sinhala/sign-u-sinhala.01/fa-sinhala/sign-u-sinhala.01",
"/ca-sinhala/sign-u-sinhala.01/tta-sinhala/sign-u-sinhala.01/ttha-sinhala/sign-u-sinhala.01/tha-sinhala/sign-u-sinhala.01/dha-sinhala/sign-u-sinhala.01/va-sinhala/sign-u-sinhala.01/fa-sinhala/sign-u-sinhala.01 \012\012/sign-u-sinhala.01 \012",
"/ca-sinhala/tta-sinhala/ttha-sinhala/tha-sinhala/dha-sinhala/va-sinhala/fa-sinhala",
"/sign-u-sinhala.01",
"/sign-u-sinhala.01/sign-uu-sinhala.01",
"/sign-u-sinhala",
"/sign-u-sinhala.03",
"/kha-sinhala/ma-sinhala",
"/pa-sinhala/ssa-sinhala/cha-sinhala/ja-sinhala/nyja-sinhala/sa-sinhala/gha-sinhala \012\012/dda-sinhala/ddha-sinhala/nndda-sinhala/jha-sinhala",
"/sign-u-sinhala.01/sign-u-sinhala.02/sign-u-sinhala.03/sign-uu-sinhala.01/sign-uu-sinhala.02/sign-uu-sinhala.03",
"/sign-uu-sinhala.01",
"/sign-uu-sinhala.02",
"/sign-uu-sinhala.03",
"/sign-uu-sinhala",
"/k_va-sinhala/k_ssa-sinhala/g_dha-sinhala/ny_ca-sinhala/tt_ttha-sinhala/t_tha-sinhala/t_va-sinhala/d_dha-sinhala/d_va-sinhala/n_tha-sinhala/n_va-sinhala/t_th-sinhala/t_thi-sinhala/t_thii-sinhala/t_v-sinhala/t_vi-sinhala/t_vii-sinhala/tt_tth-sinhala/tt_tthi-sinhala/tt_tthii-sinhala/d_dh-sinhala/d_dhi-sinhala/d_dhii-sinhala/d_v-sinhala/d_vi-sinhala/d_vii-sinhala/g_dh-sinhala/g_dhi-sinhala/g_dhii-sinhala/jh-sinhala/jhi-sinhala/jhii-sinhala/k_v-sinhala/k_vi-sinhala/k_vii-sinhala/n_th-sinhala/n_thi-sinhala/n_thii-sinhala/n_v-sinhala/n_vi-sinhala/n_vii-sinhala/ny_c-sinhala/ny_ci-sinhala/ny_cii-sinhala"
);
customParameters = (
{
name = glyphOrder;
value = (
.notdef,
NULL,
CR,
space,
nbspace,
Uber,
zerowidthjoiner,
zerowidthnonjoiner,
dottedCircle,
"touch-sinhala",
A,
B,
C,
D,
E,
F,
G,
H,
I,
J,
K,
L,
M,
N,
O,
P,
Q,
R,
S,
T,
U,
V,
W,
X,
Y,
Z,
Aacute,
Abreve,
Acircumflex,
Adieresis,
AE,
Agrave,
Amacron,
Aogonek,
Aring,
Atilde,
Cacute,

glyphs = (
{
glyphname = zerowidthjoiner;
lastChange = "2024-02-21 01:53:41 +0000";
layers = (
{
layerId = "25BA55F5-DD3E-4682-A696-ADF7D9496427";
paths = (
{
closed = 1;
nodes = (
"20 10 LINE",
"20 596 LINE",
"121 493 LINE",
"147 520 LINE",
"26 640 LINE",
"147 759 LINE",
"121 784 LINE",
"0 663 LINE",
"-121 784 LINE",
"-147 759 LINE",
"-26 640 LINE",
"-147 520 LINE",
"-121 493 LINE",
"-20 596 LINE",
"-20 10 LINE"
);
}
);
width = 0;
}
);
unicode = 200D;
},
{
glyphname = zerowidthnonjoiner;
lastChange = "2024-02-21 01:53:41 +0000";
layers = (
{
layerId = "25BA55F5-DD3E-4682-A696-ADF7D9496427";
paths = (
{
closed = 1;
nodes = (
"20 9 LINE",
"20 743 LINE",
"-20 743 LINE",
"-20 9 LINE"
);
}
);
width = 0;
}
);
unicode = 200C;
},
{
glyphname = "a-sinhala";
lastChange = "2024-02-21 01:14:21 +0000";
layers = (
{
layerId = "25BA55F5-DD3E-4682-A696-ADF7D9496427";
name = Light;
paths = (
{
closed = 1;
nodes = (
"514 494 OFFCURVE",
"455 456 OFFCURVE",
"455 378 CURVE",
"455 317 LINE",
"434 346 LINE",
"448 329 OFFCURVE",
"501 313 OFFCURVE",
"530 313 CURVE",
"569 313 OFFCURVE",
"587 328 OFFCURVE",
"587 363 CURVE SMOOTH",
"587 397 OFFCURVE",
"568 416 OFFCURVE",
"568 449 CURVE SMOOTH",
"568 471 OFFCURVE",
"579 485 OFFCURVE",
"592 494 CURVE"
);
},
{
closed = 1;
nodes = (
"118 411 LINE",
"118 486 OFFCURVE",
"174 553 OFFCURVE",
"274 553 CURVE SMOOTH",
"372 553 OFFCURVE",
"425 497 OFFCURVE",
"435 437 CURVE",
"422 438 LINE",
"433 506 OFFCURVE",
"492 551 OFFCURVE",
"600 551 CURVE",
"670 551 LINE",
"670 496 LINE",
"640 496 OFFCURVE",
"626 480 OFFCURVE",
"626 457 CURVE SMOOTH",
"626 426 OFFCURVE",
"645 398 OFFCURVE",
"645 362 CURVE SMOOTH",
"645 292 OFFCURVE",
"605 259 OFFCURVE",
"537 259 CURVE SMOOTH",
"501 259 OFFCURVE",
"466 268 OFFCURVE",
"437 287 CURVE",
"455 309 LINE",
"455 -156 LINE",
"397 -156 LINE",
"396 317 LINE",
"408 303 LINE",
"374 318 OFFCURVE",
"326 329 OFFCURVE",
"273 329 CURVE SMOOTH",
"170 329 OFFCURVE",
"105 281 OFFCURVE",
"105 187 CURVE SMOOTH",
"105 77 OFFCURVE",
"205 43 OFFCURVE",
"314 43 CURVE SMOOTH",
"400 43 OFFCURVE",
"522 63 OFFCURVE",
"595 91 CURVE",
"595 34 LINE",
"527 7 OFFCURVE",
"409 -12 OFFCURVE",
"313 -12 CURVE SMOOTH",
"179 -12 OFFCURVE",
"45 39 OFFCURVE",
"45 190 CURVE SMOOTH",
"45 322 OFFCURVE",
"148 384 OFFCURVE",
"268 384 CURVE SMOOTH",
"321 384 OFFCURVE",
"380 372 OFFCURVE",
"410 355 CURVE",
"396 335 LINE",
"396 373 LINE",
"396 452 OFFCURVE",
"359 498 OFFCURVE",
"277 498 CURVE",
"206 498 OFFCURVE",
"181 458 OFFCURVE",
"178 411 CURVE"
);
}
);
width = 700;
}
);
unicode = 0D85;
},
{
glyphname = "i-sinhala";
lastChange = "2024-02-21 01:14:20 +0000";
layers = (
{
layerId = "25BA55F5-DD3E-4682-A696-ADF7D9496427";
name = Light;
paths = (
{
closed = 1;
nodes = (
"425 214 OFFCURVE",
"392 186 OFFCURVE",
"344 186 CURVE SMOOTH",
"297 186 OFFCURVE",
"263 214 OFFCURVE",
"263 267 CURVE SMOOTH",
"263 317 OFFCURVE",
"297 348 OFFCURVE",
"344 348 CURVE SMOOTH",
"392 348 OFFCURVE",
"425 317 OFFCURVE",
"425 267 CURVE SMOOTH"
);
},
{
closed = 1;
nodes = (
"184 553 OFFCURVE",
"70 474 OFFCURVE",
"70 320 CURVE SMOOTH",
"70 211 OFFCURVE",
"147 122 OFFCURVE",
"298 122 CURVE",
"396 122 OFFCURVE",
"483 168 OFFCURVE",
"483 268 CURVE SMOOTH",
"483 347 OFFCURVE",
"427 402 OFFCURVE",
"345 402 CURVE SMOOTH",
"267 402 OFFCURVE",
"205 351 OFFCURVE",
"205 269 CURVE SMOOTH",
"205 222 OFFCURVE",
"234 167 OFFCURVE",
"294 159 CURVE",
"293 166 LINE",
"196 166 OFFCURVE",
"127 218 OFFCURVE",
"127 320 CURVE SMOOTH",
"127 452 OFFCURVE",
"230 498 OFFCURVE",
"340 498 CURVE",
"499 498 OFFCURVE",
"567 403 OFFCURVE",
"567 284 CURVE SMOOTH",
"567 144 OFFCURVE",
"481 55 OFFCURVE",
"300 55 CURVE SMOOTH",
"235 55 LINE",
"235 0 LINE",
"318 0 LINE SMOOTH",
"398 0 OFFCURVE",
"462 -7 OFFCURVE",
"462 -64 CURVE SMOOTH",
"462 -116 OFFCURVE",
"423 -142 OFFCURVE",
"341 -142 CURVE SMOOTH",
"245 -142 OFFCURVE",
"196 -103 OFFCURVE",
"196 -40 CURVE",
"136 -40 LINE",
"136 -154 OFFCURVE",
"238 -197 OFFCURVE",
"340 -197 CURVE SMOOTH",
"443 -197 OFFCURVE",
"522 -153 OFFCURVE",
"522 -65 CURVE SMOOTH",
"522 -10 OFFCURVE",
"489 28 OFFCURVE",
"433 35 CURVE",
"413 20 LINE",
"560 36 OFFCURVE",
"627 169 OFFCURVE",
"627 283 CURVE SMOOTH",
"627 443 OFFCURVE",
"523 553 OFFCURVE",
"340 553 CURVE"
);
}
);
width = 707;
}
);
unicode = 0D89;
},
{
glyphname = "ii-sinhala";
lastChange = "2024-02-21 01:14:20 +0000";
layers = (
{
layerId = "25BA55F5-DD3E-4682-A696-ADF7D9496427";
name = Light;
paths = (
{
closed = 1;
nodes = (
"341 575 OFFCURVE",
"457 678 OFFCURVE",
"507 755 CURVE",
"566 755 LINE",
"519 660 OFFCURVE",
"399 558 OFFCURVE",
"307 520 CURVE",
"250 535 LINE"
);
},
{
closed = 1;
nodes = (
"273 647 OFFCURVE",
"254 666 OFFCURVE",
"254 693 CURVE SMOOTH",
"254 719 OFFCURVE",
"273 740 OFFCURVE",
"300 740 CURVE SMOOTH",
"327 740 OFFCURVE",
"348 719 OFFCURVE",
"348 693 CURVE SMOOTH",
"348 666 OFFCURVE",
"327 647 OFFCURVE",
"300 647 CURVE SMOOTH"
);
},
{
closed = 1;
nodes = (
"540 534 OFFCURVE",
"521 553 OFFCURVE",
"521 580 CURVE SMOOTH",
"521 606 OFFCURVE",
"540 627 OFFCURVE",
"567 627 CURVE SMOOTH",
"594 627 OFFCURVE",
"615 606 OFFCURVE",
"615 580 CURVE SMOOTH",
"615 553 OFFCURVE",
"594 534 OFFCURVE",
"567 534 CURVE SMOOTH"
);
},
{
closed = 1;
nodes = (
"200 -10 OFFCURVE",
"80 95 OFFCURVE",
"80 271 CURVE SMOOTH",
"80 446 OFFCURVE",
"200 553 OFFCURVE",
"354 553 CURVE SMOOTH",
"507 553 OFFCURVE",
"623 446 OFFCURVE",
"623 271 CURVE SMOOTH",
"623 95 OFFCURVE",
"507 -10 OFFCURVE",
"354 -10 CURVE SMOOTH"
);
},
{
closed = 1;
nodes = (
"479 42 OFFCURVE",
"565 129 OFFCURVE",
"565 271 CURVE SMOOTH",
"565 412 OFFCURVE",
"479 501 OFFCURVE",
"354 501 CURVE SMOOTH",
"228 501 OFFCURVE",
"138 412 OFFCURVE",
"138 271 CURVE SMOOTH",
"138 129 OFFCURVE",
"228 42 OFFCURVE",
"354 42 CURVE SMOOTH"
);
}
);
width = 719;
}
);
unicode = 0D8A;
},
{
glyphname = "u-sinhala";
lastChange = "2024-02-21 01:14:20 +0000";
layers = (
{
layerId = "25BA55F5-DD3E-4682-A696-ADF7D9496427";
name = Light;
paths = (
{
closed = 1;
nodes = (
"174 419 LINE",
"174 487 OFFCURVE",
"227 554 OFFCURVE",
"346 554 CURVE SMOOTH",
"484 554 OFFCURVE",
"549 467 OFFCURVE",
"549 372 CURVE",
"549 323 LINE",
"359 323 LINE SMOOTH",
"214 323 OFFCURVE",
"118 234 OFFCURVE",
"118 88 CURVE SMOOTH",
"118 -79 OFFCURVE",
"225 -158 OFFCURVE",
"356 -158 CURVE SMOOTH",
"489 -158 OFFCURVE",
"575 -80 OFFCURVE",
"575 62 CURVE",
"633 62 LINE",
"633 -126 OFFCURVE",
"517 -210 OFFCURVE",
"356 -210 CURVE SMOOTH",
"197 -210 OFFCURVE",
"60 -113 OFFCURVE",
"60 88 CURVE SMOOTH",
"60 268 OFFCURVE",
"186 375 OFFCURVE",
"359 375 CURVE SMOOTH",
"486 375 LINE",
"486 434 OFFCURVE",
"457 499 OFFCURVE",
"347 499 CURVE",
"267 499 OFFCURVE",
"237 459 OFFCURVE",
"234 419 CURVE"
);
}
);
width = 673;
}
);
unicode = 0D8B;
},
{
glyphname = "rVocalic-sinhala";
lastChange = "2024-02-21 01:14:20 +0000";
layers = (
{
components = (
{
name = "sign-vr-sinhala";
transform = "{1, 0, 0, 1, 730, 0}";
}
);
layerId = "25BA55F5-DD3E-4682-A696-ADF7D9496427";
name = Light;
paths = (
{
closed = 1;
nodes = (
"59 64 OFFCURVE",
"143 -10 OFFCURVE",
"249 -10 CURVE",
"315 -10 OFFCURVE",
"368 24 OFFCURVE",
"387 61 CURVE",
"402 27 OFFCURVE",
"455 -10 OFFCURVE",
"527 -10 CURVE",
"639 -10 OFFCURVE",
"715 76 OFFCURVE",
"715 196 CURVE",
"715 311 OFFCURVE",
"625 391 OFFCURVE",
"502 391 CURVE",
"472 390 LINE",
"472 449 OFFCURVE",
"494 498 OFFCURVE",
"558 498 CURVE",
"607 498 OFFCURVE",
"629 470 OFFCURVE",
"629 425 CURVE",
"689 425 LINE",
"689 499 OFFCURVE",
"646 553 OFFCURVE",
"554 553 CURVE SMOOTH",
"448 553 OFFCURVE",
"408 481 OFFCURVE",
"408 386 CURVE",
"408 362 OFFCURVE",
"409 349 OFFCURVE",
"411 336 CURVE",
"492 336 LINE",
"600 336 OFFCURVE",
"655 281 OFFCURVE",
"655 197 CURVE",
"655 108 OFFCURVE",
"610 45 OFFCURVE",
"531 45 CURVE",
"462 45 OFFCURVE",
"416 84 OFFCURVE",
"416 142 CURVE",
"416 176 LINE",
"357 176 LINE",
"357 142 LINE",
"357 83 OFFCURVE",
"314 45 OFFCURVE",
"250 45 CURVE",
"175 45 OFFCURVE",
"119 96 OFFCURVE",
"119 191 CURVE",
"119 280 OFFCURVE",
"180 336 OFFCURVE",
"288 336 CURVE",
"361 336 LINE",
"363 349 OFFCURVE",
"364 362 OFFCURVE",
"364 386 CURVE",
"364 481 OFFCURVE",
"324 553 OFFCURVE",
"218 553 CURVE SMOOTH",
"126 553 OFFCURVE",
"83 499 OFFCURVE",
"83 425 CURVE",
"143 425 LINE",
"143 470 OFFCURVE",
"165 498 OFFCURVE",
"214 498 CURVE",
"278 498 OFFCURVE",
"300 449 OFFCURVE",
"300 390 CURVE",
"286 391 LINE",
"144 391 OFFCURVE",
"59 310 OFFCURVE",
"59 190 CURVE"
);
}
);
width = 1165;
}
);
unicode = 0D8D;
},
{
glyphname = "rrVocalic-sinhala";
lastChange = "2024-02-21 01:14:20 +0000";
layers = (
{
components = (
{
name = "sign-vr-sinhala";
transform = "{1, 0, 0, 1, 730, 0}";
},
{
name = "sign-vr-sinhala";
transform = "{1, 0, 0, 1, 1168, 0}";
}
);
layerId = "25BA55F5-DD3E-4682-A696-ADF7D9496427";
name = Light;
paths = (
{
closed = 1;
nodes = (
"67 65 OFFCURVE",
"138 -10 OFFCURVE",
"248 -10 CURVE",
"314 -10 OFFCURVE",
"368 24 OFFCURVE",
"387 61 CURVE",
"402 27 OFFCURVE",
"447 -10 OFFCURVE",
"519 -10 CURVE",
"631 -10 OFFCURVE",
"705 65 OFFCURVE",
"705 185 CURVE",
"705 300 OFFCURVE",
"620 391 OFFCURVE",
"503 391 CURVE",
"472 390 LINE",
"472 449 OFFCURVE",
"494 498 OFFCURVE",
"558 498 CURVE",
"607 498 OFFCURVE",
"633 470 OFFCURVE",
"633 425 CURVE",
"693 425 LINE",
"693 499 OFFCURVE",
"646 553 OFFCURVE",
"554 553 CURVE SMOOTH",
"448 553 OFFCURVE",
"408 481 OFFCURVE",
"408 386 CURVE",
"408 362 OFFCURVE",
"409 349 OFFCURVE",
"411 336 CURVE",
"484 336 LINE",
"592 336 OFFCURVE",
"645 270 OFFCURVE",
"645 186 CURVE",
"645 97 OFFCURVE",
"602 45 OFFCURVE",
"523 45 CURVE",
"454 45 OFFCURVE",
"416 84 OFFCURVE",
"416 142 CURVE",
"416 176 LINE",
"357 176 LINE",
"357 142 LINE",
"357 83 OFFCURVE",
"313 45 OFFCURVE",
"249 45 CURVE",
"170 45 OFFCURVE",
"127 97 OFFCURVE",
"127 186 CURVE",
"127 270 OFFCURVE",
"180 336 OFFCURVE",
"288 336 CURVE",
"361 336 LINE",
"363 349 OFFCURVE",
"364 362 OFFCURVE",
"364 386 CURVE",
"364 481 OFFCURVE",
"324 553 OFFCURVE",
"218 553 CURVE SMOOTH",
"126 553 OFFCURVE",
"79 499 OFFCURVE",
"79 425 CURVE",
"139 425 LINE",
"139 470 OFFCURVE",
"165 498 OFFCURVE",
"214 498 CURVE",
"278 498 OFFCURVE",
"300 449 OFFCURVE",
"300 390 CURVE",
"269 391 LINE",
"152 391 OFFCURVE",
"67 300 OFFCURVE",
"67 185 CURVE"
);
}
);
width = 1603;
}
);
unicode = 0D8E;
},
{
glyphname = "lVocalic-sinhala";
lastChange = "2024-02-21 01:14:20 +0000";
layers = (
{
layerId = "25BA55F5-DD3E-4682-A696-ADF7D9496427";
name = Light;
paths = (
{
closed = 1;
nodes = (
"916 324 OFFCURVE",
"836 391 OFFCURVE",
"719 391 CURVE",
"688 390 LINE",
"688 449 OFFCURVE",
"710 498 OFFCURVE",
"774 498 CURVE",
"823 498 OFFCURVE",
"849 470 OFFCURVE",
"849 425 CURVE",
"909 425 LINE",
"909 499 OFFCURVE",
"862 553 OFFCURVE",
"770 553 CURVE SMOOTH",
"664 553 OFFCURVE",
"624 481 OFFCURVE",
"624 386 CURVE",
"624 362 OFFCURVE",
"625 349 OFFCURVE",
"627 336 CURVE",
"700 336 LINE",
"798 336 OFFCURVE",
"856 294 OFFCURVE",
"856 210 CURVE",
"856 91 OFFCURVE",
"746 45 OFFCURVE",
"601 45 CURVE",
"466 45 OFFCURVE",
"330 91 OFFCURVE",
"330 210 CURVE",
"330 294 OFFCURVE",
"388 336 OFFCURVE",
"486 336 CURVE",
"559 336 LINE",
"561 349 OFFCURVE",
"562 362 OFFCURVE",
"562 386 CURVE",
"562 481 OFFCURVE",
"518 553 OFFCURVE",
"412 553 CURVE SMOOTH",
"320 553 OFFCURVE",
"277 499 OFFCURVE",
"277 434 CURVE",
"337 434 LINE",
"340 481 OFFCURVE",
"370 498 OFFCURVE",
"413 498 CURVE",
"477 498 OFFCURVE",
"498 449 OFFCURVE",
"498 390 CURVE",
"467 391 LINE",
"350 391 OFFCURVE",
"270 324 OFFCURVE",
"270 209 CURVE",
"270 59 OFFCURVE",
"433 -10 OFFCURVE",
"601 -10 CURVE",
"779 -10 OFFCURVE",
"916 59 OFFCURVE",
"916 209 CURVE"
);
},
{
closed = 1;
nodes = (
"207 0 LINE",
"163 81 OFFCURVE",
"130 182 OFFCURVE",
"130 281 CURVE SMOOTH",
"130 420 OFFCURVE",
"171 503 OFFCURVE",
"246 503 CURVE SMOOTH",
"274 503 OFFCURVE",
"301 488 OFFCURVE",
"316 470 CURVE",
"361 493 LINE",
"341 525 OFFCURVE",
"297 553 OFFCURVE",
"245 553 CURVE SMOOTH",
"130 553 OFFCURVE",
"70 443 OFFCURVE",
"70 284 CURVE",
"70 171 OFFCURVE",
"102 66 OFFCURVE",
"140 0 CURVE"
);
},
{
closed = 1;
nodes = (
"1089 66 OFFCURVE",
"1121 171 OFFCURVE",
"1121 284 CURVE",
"1121 443 OFFCURVE",
"1061 553 OFFCURVE",
"946 553 CURVE SMOOTH",
"894 553 OFFCURVE",
"850 525 OFFCURVE",
"830 493 CURVE",
"875 470 LINE",
"890 488 OFFCURVE",
"917 503 OFFCURVE",
"945 503 CURVE SMOOTH",
"1020 503 OFFCURVE",
"1061 420 OFFCURVE",
"1061 281 CURVE",
"1061 183 OFFCURVE",
"1028 85 OFFCURVE",
"984 0 CURVE",
"1051 0 LINE"
);
}
);
width = 1191;
}
);
unicode = 0D8F;
},
{
glyphname = "e-sinhala";
lastChange = "2024-02-21 01:14:20 +0000";
layers = (
{
layerId = "25BA55F5-DD3E-4682-A696-ADF7D9496427";
name = Light;
paths = (
{
closed = 1;
nodes = (
"380 367 LINE SMOOTH",
"380 462 OFFCURVE",
"329 553 OFFCURVE",
"223 553 CURVE",
"141 553 OFFCURVE",
"91 493 OFFCURVE",
"90 424 CURVE SMOOTH",
"150 424 LINE SMOOTH",
"150 469 OFFCURVE",
"181 498 OFFCURVE",
"224 498 CURVE SMOOTH",
"288 498 OFFCURVE",
"316 439 OFFCURVE",
"316 380 CURVE SMOOTH",
"30 380 LINE SMOOTH",
"30 325 LINE SMOOTH",
"380 326 LINE SMOOTH"
);
},
{
closed = 1;
nodes = (
"665 567 OFFCURVE",
"543 744 OFFCURVE",
"347 797 CURVE SMOOTH",
"347 739 LINE SMOOTH",
"513 682 OFFCURVE",
"605 535 OFFCURVE",
"605 365 CURVE SMOOTH",
"605 156 OFFCURVE",
"508 45 OFFCURVE",
"345 45 CURVE",
"226 45 OFFCURVE",
"137 103 OFFCURVE",
"137 202 CURVE",
"137 278 OFFCURVE",
"182 326 OFFCURVE",
"249 326 CURVE SMOOTH",
"143 326 LINE SMOOTH",
"106 309 OFFCURVE",
"73 266 OFFCURVE",
"73 201 CURVE",
"73 71 OFFCURVE",
"192 -10 OFFCURVE",
"344 -10 CURVE",
"574 -10 OFFCURVE",
"665 156 OFFCURVE",
"665 366 CURVE SMOOTH"
);
},
{
closed = 1;
nodes = (
"582 541 LINE SMOOTH",
"567 523 OFFCURVE",
"542 506 OFFCURVE",
"501 506 CURVE SMOOTH",
"455 506 OFFCURVE",
"418 533 OFFCURVE",
"418 584 CURVE",
"418 631 OFFCURVE",
"442 673 OFFCURVE",
"472 699 CURVE SMOOTH",
"423 735 LINE SMOOTH",
"386 700 OFFCURVE",
"360 644 OFFCURVE",
"360 586 CURVE",
"360 503 OFFCURVE",
"422 451 OFFCURVE",
"496 451 CURVE",
"552 451 OFFCURVE",
"592 470 OFFCURVE",
"614 502 CURVE SMOOTH"
);
}
);
width = 740;
}
);
unicode = 0D91;
},
{
glyphname = "ee-sinhala";
lastChange = "2024-02-21 01:14:20 +0000";
layers = (
{
components = (
{
name = "e-sinhala";
}
);
layerId = "25BA55F5-DD3E-4682-A696-ADF7D9496427";
name = Light;
paths = (
{
closed = 1;
nodes = (
"618 562 LINE",
"618 790 LINE",
"618 815 OFFCURVE",
"616 842 OFFCURVE",
"604 864 CURVE",
"592 833 LINE",
"604 845 OFFCURVE",
"631 858 OFFCURVE",
"654 858 CURVE SMOOTH",
"696 858 OFFCURVE",
"714 833 OFFCURVE",
"714 801 CURVE SMOOTH",
"714 726 OFFCURVE",
"643 716 OFFCURVE",
"577 716 CURVE",
"592 657 LINE SMOOTH",
"694 657 OFFCURVE",
"774 707 OFFCURVE",
"774 797 CURVE SMOOTH",
"774 862 OFFCURVE",
"733 915 OFFCURVE",
"658 915 CURVE SMOOTH",
"619 915 OFFCURVE",
"590 896 OFFCURVE",
"572 872 CURVE",
"601 872 LINE",
"595 889 OFFCURVE",
"589 901 OFFCURVE",
"579 912 CURVE",
"518 912 LINE",
"552 868 OFFCURVE",
"558 825 OFFCURVE",
"558 770 CURVE SMOOTH",
"558 590 LINE"
);
}
);
width = 764;
}
);
unicode = 0D92;
},
{
glyphname = "o-sinhala";
lastChange = "2024-02-21 01:14:20 +0000";
layers = (
{
layerId = "25BA55F5-DD3E-4682-A696-ADF7D9496427";
name = Light;
paths = (
{
closed = 1;
nodes = (
"80 281 LINE",
"80 141 OFFCURVE",
"147 -10 OFFCURVE",
"294 -10 CURVE",
"375 -10 OFFCURVE",
"412 37 OFFCURVE",
"433 88 CURVE",
"451 33 OFFCURVE",
"497 -10 OFFCURVE",
"578 -10 CURVE SMOOTH",
"746 -10 OFFCURVE",
"790 183 OFFCURVE",
"790 352 CURVE",
"790 579 OFFCURVE",
"675 773 OFFCURVE",
"394 773 CURVE",
"305 773 OFFCURVE",
"205 750 OFFCURVE",
"135 720 CURVE",
"135 665 LINE",
"204 694 OFFCURVE",
"305 718 OFFCURVE",
"394 718 CURVE",
"618 718 OFFCURVE",
"730 577 OFFCURVE",
"730 353 CURVE",
"730 209 OFFCURVE",
"696 45 OFFCURVE",
"574 45 CURVE SMOOTH",
"510 45 OFFCURVE",
"469 95 OFFCURVE",
"461 147 CURVE",
"401 147 LINE",
"393 97 OFFCURVE",
"364 45 OFFCURVE",
"296 45 CURVE",
"192 45 OFFCURVE",
"140 152 OFFCURVE",
"140 279 CURVE",
"140 400 OFFCURVE",
"179 498 OFFCURVE",
"247 498 CURVE",
"267 498 OFFCURVE",
"276 487 OFFCURVE",
"276 470 CURVE SMOOTH",
"276 434 OFFCURVE",
"262 399 OFFCURVE",
"262 356 CURVE SMOOTH",
"262 246 OFFCURVE",
"342 180 OFFCURVE",
"451 180 CURVE SMOOTH",
"566 180 OFFCURVE",
"636 251 OFFCURVE",
"636 382 CURVE",
"636 480 OFFCURVE",
"585 554 OFFCURVE",
"500 554 CURVE SMOOTH",
"431 554 OFFCURVE",
"379 505 OFFCURVE",
"379 434 CURVE SMOOTH",
"379 357 OFFCURVE",
"429 314 OFFCURVE",
"495 314 CURVE SMOOTH",
"542 314 OFFCURVE",
"592 347 OFFCURVE",
"592 395 CURVE",
"580 425 LINE",
"583 405 OFFCURVE",
"585 394 OFFCURVE",
"585 385 CURVE SMOOTH",
"585 288 OFFCURVE",
"544 235 OFFCURVE",
"452 235 CURVE SMOOTH",
"372 235 OFFCURVE",
"322 278 OFFCURVE",
"322 357 CURVE SMOOTH",
"322 399 OFFCURVE",
"336 435 OFFCURVE",
"336 477 CURVE SMOOTH",
"336 520 OFFCURVE",
"310 553 OFFCURVE",
"253 553 CURVE",
"132 553 OFFCURVE",
"80 419 OFFCURVE",
"80 281 CURVE"
);
},
{
closed = 1;
nodes = (
"544 499 OFFCURVE",
"567 472 OFFCURVE",
"567 434 CURVE SMOOTH",
"567 396 OFFCURVE",
"544 369 OFFCURVE",
"501 369 CURVE SMOOTH",
"461 369 OFFCURVE",
"437 396 OFFCURVE",
"437 434 CURVE SMOOTH",
"437 472 OFFCURVE",
"461 499 OFFCURVE",
"501 499 CURVE SMOOTH"
);
}
);
width = 870;
}
);
unicode = 0D94;
},
{
glyphname = "oo-sinhala";
lastChange = "2024-02-21 01:14:20 +0000";
layers = (
{
layerId = "25BA55F5-DD3E-4682-A696-ADF7D9496427";
name = Light;
paths = (
{
closed = 1;
nodes = (
"451 33 OFFCURVE",
"497 -10 OFFCURVE",
"578 -10 CURVE SMOOTH",
"746 -10 OFFCURVE",
"790 163 OFFCURVE",
"790 322 CURVE",
"790 614 OFFCURVE",
"668 823 OFFCURVE",
"420 823 CURVE",
"314 823 OFFCURVE",
"235 784 OFFCURVE",
"229 699 CURVE SMOOTH",
"228 680 OFFCURVE",
"232 665 OFFCURVE",
"239 643 CURVE",
"290 669 LINE",
"286 677 OFFCURVE",
"284 687 OFFCURVE",
"284 698 CURVE SMOOTH",
"284 745 OFFCURVE",
"333 769 OFFCURVE",
"420 769 CURVE",
"582 769 OFFCURVE",
"686 656 OFFCURVE",
"716 534 CURVE",
"718 538 LINE",
"673 637 OFFCURVE",
"548 703 OFFCURVE",
"394 703 CURVE",
"305 703 OFFCURVE",
"205 680 OFFCURVE",
"135 650 CURVE",
"135 595 LINE",
"204 624 OFFCURVE",
"305 648 OFFCURVE",
"394 648 CURVE",
"608 648 OFFCURVE",
"730 537 OFFCURVE",
"730 323 CURVE",
"730 189 OFFCURVE",
"696 45 OFFCURVE",
"574 45 CURVE SMOOTH",
"510 45 OFFCURVE",
"469 95 OFFCURVE",
"461 147 CURVE",
"401 147 LINE",
"393 97 OFFCURVE",
"364 45 OFFCURVE",
"296 45 CURVE",
"192 45 OFFCURVE",
"140 152 OFFCURVE",
"140 279 CURVE",
"140 400 OFFCURVE",
"179 498 OFFCURVE",
"247 498 CURVE",
"267 498 OFFCURVE",
"276 487 OFFCURVE",
"276 470 CURVE SMOOTH",
"276 434 OFFCURVE",
"262 399 OFFCURVE",
"262 356 CURVE SMOOTH",
"262 246 OFFCURVE",
"342 180 OFFCURVE",
"451 180 CURVE SMOOTH",
"566 180 OFFCURVE",
"636 251 OFFCURVE",
"636 382 CURVE",
"636 480 OFFCURVE",
"585 554 OFFCURVE",
"500 554 CURVE SMOOTH",
"431 554 OFFCURVE",
"379 505 OFFCURVE",
"379 434 CURVE SMOOTH",
"379 357 OFFCURVE",
"429 314 OFFCURVE",
"495 314 CURVE SMOOTH",
"542 314 OFFCURVE",
"592 347 OFFCURVE",
"592 395 CURVE",
"580 425 LINE",
"583 405 OFFCURVE",
"585 394 OFFCURVE",
"585 385 CURVE SMOOTH",
"585 288 OFFCURVE",
"544 235 OFFCURVE",
"452 235 CURVE SMOOTH",
"372 235 OFFCURVE",
"322 278 OFFCURVE",
"322 357 CURVE SMOOTH",
"322 399 OFFCURVE",
"336 435 OFFCURVE",
"336 477 CURVE SMOOTH",
"336 520 OFFCURVE",
"310 553 OFFCURVE",
"253 553 CURVE",
"132 553 OFFCURVE",
"80 419 OFFCURVE",
"80 281 CURVE",
"80 281 LINE",
"80 141 OFFCURVE",
"147 -10 OFFCURVE",
"294 -10 CURVE",
"375 -10 OFFCURVE",
"412 37 OFFCURVE",
"433 88 CURVE"
);
},
{
closed = 1;
nodes = (
"544 499 OFFCURVE",
"567 472 OFFCURVE",
"567 434 CURVE SMOOTH",
"567 396 OFFCURVE",
"544 369 OFFCURVE",
"501 369 CURVE SMOOTH",
"461 369 OFFCURVE",
"437 396 OFFCURVE",
"437 434 CURVE SMOOTH",
"437 472 OFFCURVE",
"461 499 OFFCURVE",
"501 499 CURVE SMOOTH"
);
}
);
width = 870;
}
);
unicode = 0D95;
},
{
glyphname = "ka-sinhala";
lastChange = "2024-02-21 01:14:20 +0000";
layers = (
{
layerId = "25BA55F5-DD3E-4682-A696-ADF7D9496427";
name = Light;
paths = (
{
closed = 1;
nodes = (
"89 0 LINE",
"234 247 OFFCURVE",
"300 321 OFFCURVE",
"452 321 CURVE",
"554 321 OFFCURVE",
"622 267 OFFCURVE",
"622 168 CURVE SMOOTH",
"622 102 OFFCURVE",
"606 45 OFFCURVE",
"548 45 CURVE SMOOTH",
"499 45 OFFCURVE",
"474 99 OFFCURVE",
"474 163 CURVE SMOOTH",
"474 181 LINE",
"414 181 LINE",
"414 164 LINE SMOOTH",
"414 108 OFFCURVE",
"403 45 OFFCURVE",
"347 45 CURVE SMOOTH",
"287 45 OFFCURVE",
"261 139 OFFCURVE",
"207 139 CURVE SMOOTH",
"163 139 OFFCURVE",
"153 111 OFFCURVE",
"118 69 CURVE",
"89 0 LINE",
"109 43 OFFCURVE",
"143 86 OFFCURVE",
"183 86 CURVE SMOOTH",
"239 86 OFFCURVE",
"255 -10 OFFCURVE",
"346 -10 CURVE SMOOTH",
"400 -10 OFFCURVE",
"428 25 OFFCURVE",
"444 83 CURVE",
"455 28 OFFCURVE",
"494 -10 OFFCURVE",
"551 -10 CURVE SMOOTH",
"644 -10 OFFCURVE",
"681 79 OFFCURVE",
"681 167 CURVE SMOOTH",
"681 291 OFFCURVE",
"585 375 OFFCURVE",
"457 375 CURVE",
"332 375 OFFCURVE",
"285 333 OFFCURVE",
"213 249 CURVE",
"234 261 LINE",
"337 415 OFFCURVE",
"430 498 OFFCURVE",
"568 498 CURVE",
"729 498 OFFCURVE",
"806 393 OFFCURVE",
"806 242 CURVE SMOOTH",
"806 163 OFFCURVE",
"790 86 OFFCURVE",
"751 0 CURVE",
"814 0 LINE",
"853 89 OFFCURVE",
"866 172 OFFCURVE",
"866 242 CURVE SMOOTH",
"866 427 OFFCURVE",
"753 553 OFFCURVE",
"572 553 CURVE",
"440 553 OFFCURVE",
"333 491 OFFCURVE",
"268 373 CURVE",
"197 275 LINE SMOOTH",
"27 0 LINE"
);
},
{
closed = 1;
nodes = (
"295 493 OFFCURVE",
"250 553 OFFCURVE",
"164 553 CURVE SMOOTH",
"76 553 OFFCURVE",
"34 494 OFFCURVE",
"34 429 CURVE",
"94 429 LINE",
"95 466 OFFCURVE",
"113 498 OFFCURVE",
"169 498 CURVE",
"218 498 OFFCURVE",
"244 466 OFFCURVE",
"244 422 CURVE SMOOTH",
"244 377 OFFCURVE",
"226 331 OFFCURVE",
"189 261 CURVE",
"274 348 LINE",
"284 374 OFFCURVE",
"295 404 OFFCURVE",
"295 425 CURVE"
);
}
);
width = 946;
}
);
unicode = 0D9A;
},
{
glyphname = "kha-sinhala";
lastChange = "2024-02-21 04:30:20 +0000";
layers = (
{
anchors = (
{
name = "u-sign-sinhala";
position = "{695, 189}";
}
);
layerId = "25BA55F5-DD3E-4682-A696-ADF7D9496427";
name = Light;
paths = (
{
closed = 1;
nodes = (
"178 44 OFFCURVE",
"149 74 OFFCURVE",
"149 120 CURVE SMOOTH",
"149 167 OFFCURVE",
"177 199 OFFCURVE",
"223 199 CURVE SMOOTH",
"268 199 OFFCURVE",
"295 169 OFFCURVE",
"295 122 CURVE SMOOTH",
"295 76 OFFCURVE",
"269 44 OFFCURVE",
"224 44 CURVE SMOOTH"
);
},
{
closed = 1;
nodes = (
"763 546 OFFCURVE",
"658 773 OFFCURVE",
"347 773 CURVE",
"258 773 OFFCURVE",
"149 747 OFFCURVE",
"88 710 CURVE",
"88 655 LINE",
"148 691 OFFCURVE",
"258 718 OFFCURVE",
"347 718 CURVE",
"601 718 OFFCURVE",
"703 544 OFFCURVE",
"703 320 CURVE",
"703 178 OFFCURVE",
"685 45 OFFCURVE",
"586 45 CURVE SMOOTH",
"539 45 OFFCURVE",
"507 76 OFFCURVE",
"493 106 CURVE",
"465 63 LINE",
"484 30 OFFCURVE",
"523 -10 OFFCURVE",
"586 -10 CURVE SMOOTH",
"731 -10 OFFCURVE",
"763 152 OFFCURVE",
"763 319 CURVE"
);
},
{
closed = 1;
nodes = (
"50 102 OFFCURVE",
"110 -10 OFFCURVE",
"225 -10 CURVE SMOOTH",
"296 -10 OFFCURVE",
"349 42 OFFCURVE",
"349 123 CURVE SMOOTH",
"349 202 OFFCURVE",
"303 253 OFFCURVE",
"229 253 CURVE SMOOTH",
"167 253 OFFCURVE",
"114 213 OFFCURVE",
"114 134 CURVE",
"130 129 LINE",
"126 144 OFFCURVE",
"108 167 OFFCURVE",
"108 224 CURVE SMOOTH",
"108 320 OFFCURVE",
"156 427 OFFCURVE",
"288 427 CURVE",
"409 427 OFFCURVE",
"461 340 OFFCURVE",
"461 222 CURVE SMOOTH",
"461 132 OFFCURVE",
"425 50 OFFCURVE",
"398 0 CURVE",
"462 0 LINE",
"497 60 OFFCURVE",
"521 147 OFFCURVE",
"521 222 CURVE SMOOTH",
"521 356 OFFCURVE",
"456 482 OFFCURVE",
"289 482 CURVE",
"140 482 OFFCURVE",
"50 374 OFFCURVE",
"50 223 CURVE SMOOTH"
);
}
);
width = 843;
}
);
unicode = 0D9B;
},
{
glyphname = "ga-sinhala";
lastChange = "2024-02-21 01:14:20 +0000";
layers = (
{
layerId = "25BA55F5-DD3E-4682-A696-ADF7D9496427";
name = Light;
paths = (
{
closed = 1;
nodes = (
"174 543 LINE",
"126 488 OFFCURVE",
"80 384 OFFCURVE",
"80 276 CURVE SMOOTH",
"80 122 OFFCURVE",
"165 -10 OFFCURVE",
"338 -10 CURVE",
"466 -10 OFFCURVE",
"546 72 OFFCURVE",
"546 197 CURVE SMOOTH",
"546 262 OFFCURVE",
"506 332 OFFCURVE",
"434 332 CURVE SMOOTH",
"382 332 OFFCURVE",
"331 303 OFFCURVE",
"331 217 CURVE",
"367 216 LINE",
"367 250 OFFCURVE",
"386 277 OFFCURVE",
"422 277 CURVE SMOOTH",
"465 277 OFFCURVE",
"486 243 OFFCURVE",
"486 196 CURVE SMOOTH",
"486 116 OFFCURVE",
"442 45 OFFCURVE",
"339 45 CURVE",
"212 45 OFFCURVE",
"142 138 OFFCURVE",
"142 276 CURVE SMOOTH",
"142 367 OFFCURVE",
"173 461 OFFCURVE",
"241 543 CURVE"
);
},
{
closed = 1;
nodes = (
"676 0 LINE",
"716 52 OFFCURVE",
"755 163 OFFCURVE",
"755 277 CURVE SMOOTH",
"755 421 OFFCURVE",
"695 553 OFFCURVE",
"521 553 CURVE",
"368 553 OFFCURVE",
"293 447 OFFCURVE",
"293 276 CURVE SMOOTH",
"293 253 OFFCURVE",
"297 226 OFFCURVE",
"299 216 CURVE",
"351 216 LINE",
"348 231 OFFCURVE",
"346 250 OFFCURVE",
"346 277 CURVE SMOOTH",
"346 383 OFFCURVE",
"384 498 OFFCURVE",
"520 498 CURVE",
"648 498 OFFCURVE",
"693 405 OFFCURVE",
"693 277 CURVE SMOOTH",
"693 175 OFFCURVE",
"658 71 OFFCURVE",
"610 0 CURVE"
);
}
);
width = 835;
}
);
unicode = 0D9C;
},
{
glyphname = "gha-sinhala";
lastChange = "2024-02-21 04:33:26 +0000";
layers = (
{
anchors = (
{
name = "u-sign-sinhala";
position = "{694, 189}";
}
);
layerId = "25BA55F5-DD3E-4682-A696-ADF7D9496427";
name = Light;
paths = (
{
closed = 1;
nodes = (
"125 434 LINE",
"128 478 OFFCURVE",
"164 498 OFFCURVE",
"205 498 CURVE",
"279 498 OFFCURVE",
"306 449 OFFCURVE",
"306 390 CURVE",
"40 390 LINE",
"40 335 LINE",
"368 336 LINE",
"370 350 OFFCURVE",
"370 372 OFFCURVE",
"370 386 CURVE",
"370 481 OFFCURVE",
"310 553 OFFCURVE",
"204 553 CURVE SMOOTH",
"124 553 OFFCURVE",
"65 506 OFFCURVE",
"65 434 CURVE"
);
},
{
closed = 1;
nodes = (
"106 258 OFFCURVE",
"157 336 OFFCURVE",
"224 336 CURVE",
"119 336 LINE",
"83 311 OFFCURVE",
"46 248 OFFCURVE",
"46 173 CURVE",
"46 56 OFFCURVE",
"119 -10 OFFCURVE",
"235 -10 CURVE SMOOTH",
"289 -10 OFFCURVE",
"336 4 OFFCURVE",
"371 22 CURVE",
"371 79 LINE",
"332 77 OFFCURVE",
"292 104 OFFCURVE",
"292 166 CURVE SMOOTH",
"292 219 OFFCURVE",
"329 258 OFFCURVE",
"400 258 CURVE",
"470 258 OFFCURVE",
"506 219 OFFCURVE",
"506 166 CURVE SMOOTH",
"506 104 OFFCURVE",
"466 77 OFFCURVE",
"427 79 CURVE",
"427 22 LINE",
"462 4 OFFCURVE",
"509 -10 OFFCURVE",
"563 -10 CURVE SMOOTH",
"689 -10 OFFCURVE",
"752 75 OFFCURVE",
"752 182 CURVE SMOOTH",
"752 305 OFFCURVE",
"682 391 OFFCURVE",
"555 391 CURVE",
"494 390 LINE",
"494 449 OFFCURVE",
"521 498 OFFCURVE",
"585 498 CURVE",
"628 498 OFFCURVE",
"662 481 OFFCURVE",
"665 434 CURVE",
"725 434 LINE",
"725 499 OFFCURVE",
"678 553 OFFCURVE",
"586 553 CURVE SMOOTH",
"480 553 OFFCURVE",
"430 481 OFFCURVE",
"430 386 CURVE",
"430 362 OFFCURVE",
"431 349 OFFCURVE",
"433 336 CURVE",
"536 336 LINE",
"644 336 OFFCURVE",
"692 275 OFFCURVE",
"692 183 CURVE SMOOTH",
"692 107 OFFCURVE",
"655 45 OFFCURVE",
"563 45 CURVE SMOOTH",
"508 45 OFFCURVE",
"486 57 OFFCURVE",
"462 68 CURVE",
"464 47 LINE",
"525 47 OFFCURVE",
"565 105 OFFCURVE",
"565 169 CURVE SMOOTH",
"565 251 OFFCURVE",
"502 311 OFFCURVE",
"399 311 CURVE",
"296 311 OFFCURVE",
"233 251 OFFCURVE",
"233 169 CURVE SMOOTH",
"233 98 OFFCURVE",
"277 49 OFFCURVE",
"337 47 CURVE",
"336 68 LINE",
"312 57 OFFCURVE",
"290 45 OFFCURVE",
"235 45 CURVE SMOOTH",
"153 45 OFFCURVE",
"106 88 OFFCURVE",
"106 174 CURVE"
);
}
);
width = 797;
}
);
unicode = 0D9D;
},
{
glyphname = "nga-sinhala";
lastChange = "2024-02-21 04:20:58 +0000";
layers = (
{
anchors = (
{
name = "u-sign-sinhala";
position = "{615, 189}";
}
);
layerId = "25BA55F5-DD3E-4682-A696-ADF7D9496427";
name = Light;
paths = (
{
closed = 1;
nodes = (
"393 467 OFFCURVE",
"332 553 OFFCURVE",
"195 553 CURVE SMOOTH",
"117 553 OFFCURVE",
"55 517 OFFCURVE",
"55 443 CURVE SMOOTH",
"55 385 OFFCURVE",
"102 349 OFFCURVE",
"155 349 CURVE SMOOTH",
"229 349 OFFCURVE",
"254 395 OFFCURVE",
"254 452 CURVE SMOOTH",
"254 471 OFFCURVE",
"248 495 OFFCURVE",
"241 516 CURVE",
"193 523 LINE",
"197 505 OFFCURVE",
"202 488 OFFCURVE",
"202 465 CURVE SMOOTH",
"202 442 OFFCURVE",
"199 401 OFFCURVE",
"156 401 CURVE SMOOTH",
"132 401 OFFCURVE",
"111 415 OFFCURVE",
"111 444 CURVE SMOOTH",
"111 487 OFFCURVE",
"143 502 OFFCURVE",
"194 502 CURVE",
"274 502 OFFCURVE",
"330 448 OFFCURVE",
"330 364 CURVE SMOOTH",
"330 348 OFFCURVE",
"329 337 OFFCURVE",
"328 330 CURVE",
"244 331 LINE",
"137 331 OFFCURVE",
"65 275 OFFCURVE",
"65 162 CURVE SMOOTH",
"65 65 OFFCURVE",
"128 -10 OFFCURVE",
"234 -10 CURVE SMOOTH",
"298 -10 OFFCURVE",
"341 19 OFFCURVE",
"361 58 CURVE",
"377 29 OFFCURVE",
"417 -10 OFFCURVE",
"479 -10 CURVE SMOOTH",
"642 -10 OFFCURVE",
"683 188 OFFCURVE",
"683 355 CURVE",
"683 565 OFFCURVE",
"600 773 OFFCURVE",
"309 773 CURVE",
"220 773 OFFCURVE",
"137 753 OFFCURVE",
"76 727 CURVE",
"76 672 LINE",
"136 697 OFFCURVE",
"220 718 OFFCURVE",
"309 718 CURVE",
"543 718 OFFCURVE",
"623 563 OFFCURVE",
"623 356 CURVE",
"623 214 OFFCURVE",
"590 45 OFFCURVE",
"483 45 CURVE SMOOTH",
"414 45 OFFCURVE",
"390 94 OFFCURVE",
"390 142 CURVE",
"390 156 LINE",
"331 156 LINE",
"331 142 LINE",
"331 94 OFFCURVE",
"301 45 OFFCURVE",
"235 45 CURVE SMOOTH",
"163 45 OFFCURVE",
"125 97 OFFCURVE",
"125 163 CURVE SMOOTH",
"125 245 OFFCURVE",
"175 276 OFFCURVE",
"283 276 CURVE",
"389 276 LINE",
"391 289 OFFCURVE",
"393 320 OFFCURVE",
"393 344 CURVE"
);
}
);
width = 763;
}
);
unicode = 0D9E;
},
{
glyphname = "nnga-sinhala";
lastChange = "2024-02-21 01:14:20 +0000";
layers = (
{
layerId = "25BA55F5-DD3E-4682-A696-ADF7D9496427";
name = Light;
paths = (
{
closed = 1;
nodes = (
"202 0 LINE",
"158 81 OFFCURVE",
"125 182 OFFCURVE",
"125 281 CURVE",
"125 420 OFFCURVE",
"175 493 OFFCURVE",
"271 493 CURVE",
"369 493 LINE",
"387 543 LINE",
"270 543 LINE",
"134 543 OFFCURVE",
"65 443 OFFCURVE",
"65 284 CURVE",
"65 171 OFFCURVE",
"97 66 OFFCURVE",
"135 0 CURVE"
);
},
{
closed = 1;
nodes = (
"563 553 OFFCURVE",
"488 447 OFFCURVE",
"488 276 CURVE SMOOTH",
"488 253 OFFCURVE",
"492 226 OFFCURVE",
"494 216 CURVE",
"546 216 LINE",
"543 231 OFFCURVE",
"541 250 OFFCURVE",
"541 277 CURVE SMOOTH",
"541 383 OFFCURVE",
"579 498 OFFCURVE",
"715 498 CURVE",
"843 498 OFFCURVE",
"888 405 OFFCURVE",
"888 277 CURVE SMOOTH",
"888 175 OFFCURVE",
"853 71 OFFCURVE",
"805 0 CURVE",
"871 0 LINE",
"911 52 OFFCURVE",
"950 163 OFFCURVE",
"950 277 CURVE SMOOTH",
"950 421 OFFCURVE",
"890 553 OFFCURVE",
"716 553 CURVE"
);
},
{
closed = 1;
nodes = (
"408 543 LINE",
"369 543 LINE",
"321 488 OFFCURVE",
"275 384 OFFCURVE",
"275 276 CURVE SMOOTH",
"275 122 OFFCURVE",
"360 -10 OFFCURVE",
"533 -10 CURVE",
"661 -10 OFFCURVE",
"741 72 OFFCURVE",
"741 197 CURVE SMOOTH",
"741 262 OFFCURVE",
"701 332 OFFCURVE",
"629 332 CURVE SMOOTH",
"577 332 OFFCURVE",
"526 303 OFFCURVE",
"526 217 CURVE",
"562 216 LINE",
"562 250 OFFCURVE",
"581 277 OFFCURVE",
"617 277 CURVE SMOOTH",
"660 277 OFFCURVE",
"681 243 OFFCURVE",
"681 196 CURVE SMOOTH",
"681 116 OFFCURVE",
"637 45 OFFCURVE",
"534 45 CURVE",
"407 45 OFFCURVE",
"337 138 OFFCURVE",
"337 276 CURVE SMOOTH",
"337 353 OFFCURVE",
"359 433 OFFCURVE",
"408 506 CURVE"
);
}
);
width = 1015;
}
);
unicode = 0D9F;
},
{
glyphname = "ca-sinhala";
lastChange = "2024-02-21 04:04:19 +0000";
layers = (
{
anchors = (
{
name = "u-sign-sinhala";
position = "{611, 297}";
}
);
layerId = "25BA55F5-DD3E-4682-A696-ADF7D9496427";
name = Light;
paths = (
{
closed = 1;
nodes = (
"141 424 LINE",
"143 464 OFFCURVE",
"165 498 OFFCURVE",
"218 498 CURVE",
"297 498 OFFCURVE",
"316 439 OFFCURVE",
"316 380 CURVE",
"30 380 LINE",
"30 325 LINE",
"378 326 LINE",
"380 340 OFFCURVE",
"380 353 OFFCURVE",
"380 367 CURVE",
"380 462 OFFCURVE",
"338 553 OFFCURVE",
"217 553 CURVE SMOOTH",
"125 553 OFFCURVE",
"83 493 OFFCURVE",
"81 424 CURVE"
);
},
{
closed = 1;
nodes = (
"615 178 OFFCURVE",
"518 45 OFFCURVE",
"330 45 CURVE SMOOTH",
"207 45 OFFCURVE",
"126 103 OFFCURVE",
"126 202 CURVE SMOOTH",
"126 278 OFFCURVE",
"171 326 OFFCURVE",
"238 326 CURVE",
"120 326 LINE",
"85 303 OFFCURVE",
"62 259 OFFCURVE",
"62 201 CURVE SMOOTH",
"62 71 OFFCURVE",
"173 -10 OFFCURVE",
"329 -10 CURVE SMOOTH",
"584 -10 OFFCURVE",
"675 177 OFFCURVE",
"675 367 CURVE",
"675 573 OFFCURVE",
"587 773 OFFCURVE",
"302 773 CURVE",
"213 773 OFFCURVE",
"130 753 OFFCURVE",
"69 727 CURVE",
"69 672 LINE",
"129 697 OFFCURVE",
"213 718 OFFCURVE",
"302 718 CURVE",
"530 718 OFFCURVE",
"615 570 OFFCURVE",
"615 367 CURVE"
);
}
);
width = 755;
}
);
unicode = 0DA0;
},
{
glyphname = "cha-sinhala";
lastChange = "2024-02-21 04:33:10 +0000";
layers = (
{
anchors = (
{
name = "u-sign-sinhala";
position = "{640, 189}";
}
);
layerId = "25BA55F5-DD3E-4682-A696-ADF7D9496427";
name = Light;
paths = (
{
closed = 1;
nodes = (
"429 350 LINE",
"440 351 OFFCURVE",
"450 351 OFFCURVE",
"461 351 CURVE SMOOTH",
"567 351 OFFCURVE",
"639 321 OFFCURVE",
"639 220 CURVE",
"639 93 OFFCURVE",
"527 45 OFFCURVE",
"378 45 CURVE",
"236 45 OFFCURVE",
"108 94 OFFCURVE",
"108 213 CURVE",
"108 297 OFFCURVE",
"164 336 OFFCURVE",
"262 336 CURVE SMOOTH",
"344 336 LINE",
"346 349 OFFCURVE",
"347 362 OFFCURVE",
"347 386 CURVE",
"347 481 OFFCURVE",
"309 553 OFFCURVE",
"203 553 CURVE SMOOTH",
"115 553 OFFCURVE",
"74 499 OFFCURVE",
"73 434 CURVE",
"133 434 LINE",
"135 474 OFFCURVE",
"161 498 OFFCURVE",
"204 498 CURVE",
"268 498 OFFCURVE",
"283 449 OFFCURVE",
"283 390 CURVE",
"243 391 LINE",
"126 391 OFFCURVE",
"48 327 OFFCURVE",
"48 212 CURVE",
"48 62 OFFCURVE",
"204 -10 OFFCURVE",
"379 -10 CURVE",
"561 -10 OFFCURVE",
"699 61 OFFCURVE",
"699 219 CURVE",
"699 348 OFFCURVE",
"602 411 OFFCURVE",
"470 411 CURVE SMOOTH",
"456 411 OFFCURVE",
"440 410 OFFCURVE",
"425 408 CURVE"
);
},
{
closed = 1;
nodes = (
"617 211 OFFCURVE",
"663 290 OFFCURVE",
"663 384 CURVE SMOOTH",
"663 461 OFFCURVE",
"632 553 OFFCURVE",
"537 553 CURVE SMOOTH",
"477 553 OFFCURVE",
"435 500 OFFCURVE",
"421 458 CURVE",
"383 391 LINE",
"383 283 OFFCURVE",
"431 211 OFFCURVE",
"523 211 CURVE SMOOTH"
);
},
{
closed = 1;
nodes = (
"465 266 OFFCURVE",
"441 321 OFFCURVE",
"441 384 CURVE SMOOTH",
"441 444 OFFCURVE",
"467 498 OFFCURVE",
"523 498 CURVE SMOOTH",
"586 498 OFFCURVE",
"605 439 OFFCURVE",
"605 384 CURVE SMOOTH",
"605 327 OFFCURVE",
"586 266 OFFCURVE",
"523 266 CURVE SMOOTH"
);
},
{
closed = 1;
nodes = (
"594 668 LINE",
"428 648 OFFCURVE",
"383 518 OFFCURVE",
"383 391 CURVE",
"434 417 LINE",
"434 521 OFFCURVE",
"493 600 OFFCURVE",
"594 614 CURVE"
);
}
);
width = 754;
}
);
unicode = 0DA1;
},
{
glyphname = "ja-sinhala";
lastChange = "2024-02-21 04:33:12 +0000";
layers = (
{
anchors = (
{
name = "u-sign-sinhala";
position = "{640, 189}";
}
);
layerId = "25BA55F5-DD3E-4682-A696-ADF7D9496427";
name = Light;
paths = (
{
closed = 1;
nodes = (
"521 342 LINE",
"594 342 OFFCURVE",
"630 394 OFFCURVE",
"630 448 CURVE",
"630 501 OFFCURVE",
"599 555 OFFCURVE",
"533 555 CURVE SMOOTH",
"472 555 OFFCURVE",
"449 509 OFFCURVE",
"436 467 CURVE",
"457 437 LINE",
"457 474 OFFCURVE",
"480 502 OFFCURVE",
"521 502 CURVE SMOOTH",
"557 502 OFFCURVE",
"576 481 OFFCURVE",
"576 448 CURVE",
"576 414 OFFCURVE",
"550 391 OFFCURVE",
"506 391 CURVE"
);
},
{
closed = 1;
nodes = (
"236 45 OFFCURVE",
"108 94 OFFCURVE",
"108 213 CURVE",
"108 297 OFFCURVE",
"164 336 OFFCURVE",
"262 336 CURVE SMOOTH",
"344 336 LINE",
"346 349 OFFCURVE",
"347 362 OFFCURVE",
"347 386 CURVE",
"347 481 OFFCURVE",
"308 553 OFFCURVE",
"204 553 CURVE SMOOTH",
"114 553 OFFCURVE",
"74 499 OFFCURVE",
"73 434 CURVE",
"133 434 LINE",
"135 474 OFFCURVE",
"161 498 OFFCURVE",
"204 498 CURVE",
"268 498 OFFCURVE",
"283 449 OFFCURVE",
"283 390 CURVE",
"243 391 LINE",
"126 391 OFFCURVE",
"48 327 OFFCURVE",
"48 212 CURVE",
"48 62 OFFCURVE",
"204 -10 OFFCURVE",
"379 -10 CURVE",
"547 -10 OFFCURVE",
"703 59 OFFCURVE",
"703 209 CURVE",
"703 324 OFFCURVE",
"623 391 OFFCURVE",
"506 391 CURVE",
"461 390 LINE",
"458 407 OFFCURVE",
"457 418 OFFCURVE",
"457 434 CURVE SMOOTH",
"457 532 OFFCURVE",
"492 610 OFFCURVE",
"592 610 CURVE",
"592 664 LINE",
"442 664 OFFCURVE",
"396 560 OFFCURVE",
"396 440 CURVE SMOOTH",
"396 397 OFFCURVE",
"402 352 OFFCURVE",
"407 336 CURVE",
"485 336 LINE",
"583 336 OFFCURVE",
"641 294 OFFCURVE",
"641 210 CURVE",
"641 91 OFFCURVE",
"513 45 OFFCURVE",
"378 45 CURVE"
);
}
);
width = 758;
}
);
unicode = 0DA2;
},
{
glyphname = "jha-sinhala";
lastChange = "2024-02-21 04:35:21 +0000";
layers = (
{
anchors = (
{
name = "u-sign-sinhala";
position = "{1226, 189}";
}
);
layerId = "25BA55F5-DD3E-4682-A696-ADF7D9496427";
name = Light;
paths = (
{
closed = 1;
nodes = (
"89 0 LINE",
"238 253 OFFCURVE",
"326 321 OFFCURVE",
"461 321 CURVE",
"563 321 OFFCURVE",
"622 267 OFFCURVE",
"622 168 CURVE SMOOTH",
"622 102 OFFCURVE",
"606 45 OFFCURVE",
"548 45 CURVE SMOOTH",
"499 45 OFFCURVE",
"474 99 OFFCURVE",
"474 163 CURVE SMOOTH",
"474 181 LINE",
"414 181 LINE",
"414 164 LINE SMOOTH",
"414 108 OFFCURVE",
"403 45 OFFCURVE",
"347 45 CURVE SMOOTH",
"287 45 OFFCURVE",
"261 139 OFFCURVE",
"207 139 CURVE SMOOTH",
"163 139 OFFCURVE",
"153 111 OFFCURVE",
"118 69 CURVE",
"89 0 LINE",
"109 43 OFFCURVE",
"143 86 OFFCURVE",
"183 86 CURVE SMOOTH",
"239 86 OFFCURVE",
"255 -10 OFFCURVE",
"346 -10 CURVE SMOOTH",
"400 -10 OFFCURVE",
"428 25 OFFCURVE",
"444 83 CURVE",
"455 28 OFFCURVE",
"494 -10 OFFCURVE",
"551 -10 CURVE SMOOTH",
"644 -10 OFFCURVE",
"681 79 OFFCURVE",
"681 167 CURVE SMOOTH",
"681 291 OFFCURVE",
"595 375 OFFCURVE",
"467 375 CURVE",
"342 375 OFFCURVE",
"285 328 OFFCURVE",
"213 244 CURVE",
"234 261 LINE",
"332 426 OFFCURVE",
"427 498 OFFCURVE",
"559 498 CURVE",
"698 498 OFFCURVE",
"765 427 OFFCURVE",
"823 348 CURVE",
"868 370 LINE",
"804 477 OFFCURVE",
"710 553 OFFCURVE",
"560 553 CURVE",
"431 553 OFFCURVE",
"325 489 OFFCURVE",
"268 381 CURVE",
"197 275 LINE SMOOTH",
"27 0 LINE"
);
},
{
closed = 1;
nodes = (
"76 553 OFFCURVE",
"34 494 OFFCURVE",
"34 429 CURVE",
"94 429 LINE",
"95 466 OFFCURVE",
"113 498 OFFCURVE",
"169 498 CURVE",
"218 498 OFFCURVE",
"244 466 OFFCURVE",
"244 422 CURVE SMOOTH",
"244 377 OFFCURVE",
"226 331 OFFCURVE",
"189 261 CURVE",
"274 348 LINE",
"284 374 OFFCURVE",
"295 404 OFFCURVE",
"295 425 CURVE",
"295 493 OFFCURVE",
"250 553 OFFCURVE",
"164 553 CURVE SMOOTH"
);
},
{
closed = 1;
nodes = (
"713 682 LINE",
"770 704 OFFCURVE",
"842 718 OFFCURVE",
"909 718 CURVE",
"1143 718 OFFCURVE",
"1237 544 OFFCURVE",
"1237 340 CURVE",
"1237 198 OFFCURVE",
"1204 45 OFFCURVE",
"1097 45 CURVE SMOOTH",
"1028 45 OFFCURVE",
"1004 94 OFFCURVE",
"1004 142 CURVE",
"1004 176 LINE",
"945 176 LINE",
"945 142 LINE",
"945 94 OFFCURVE",
"914 45 OFFCURVE",
"848 45 CURVE SMOOTH",
"776 45 OFFCURVE",
"737 99 OFFCURVE",
"737 174 CURVE SMOOTH",
"737 260 OFFCURVE",
"790 315 OFFCURVE",
"868 315 CURVE",
"868 370 LINE",
"751 370 OFFCURVE",
"677 290 OFFCURVE",
"677 173 CURVE SMOOTH",
"677 76 OFFCURVE",
"741 -10 OFFCURVE",
"847 -10 CURVE SMOOTH",
"911 -10 OFFCURVE",
"955 19 OFFCURVE",
"975 58 CURVE",
"991 29 OFFCURVE",
"1031 -10 OFFCURVE",
"1093 -10 CURVE SMOOTH",
"1256 -10 OFFCURVE",
"1297 172 OFFCURVE",
"1297 339 CURVE",
"1297 546 OFFCURVE",
"1200 773 OFFCURVE",
"909 773 CURVE",
"842 773 OFFCURVE",
"770 760 OFFCURVE",
"713 737 CURVE"
);
}
);
width = 1408;
}
);
unicode = 0DA3;
},
{
glyphname = "nya-sinhala";
lastChange = "2024-02-21 01:14:20 +0000";
layers = (
{
layerId = "25BA55F5-DD3E-4682-A696-ADF7D9496427";
name = Light;
paths = (
{
closed = 1;
nodes = (
"319 553 OFFCURVE",
"277 494 OFFCURVE",
"277 429 CURVE",
"337 429 LINE",
"338 466 OFFCURVE",
"356 498 OFFCURVE",
"412 498 CURVE",
"461 498 OFFCURVE",
"487 466 OFFCURVE",
"487 422 CURVE SMOOTH",
"487 377 OFFCURVE",
"469 331 OFFCURVE",
"432 261 CURVE",
"517 348 LINE",
"527 374 OFFCURVE",
"538 404 OFFCURVE",
"538 425 CURVE",
"538 493 OFFCURVE",
"493 553 OFFCURVE",
"407 553 CURVE SMOOTH"
);
},
{
closed = 1;
nodes = (
"688 553 OFFCURVE",
"568 499 OFFCURVE",
"511 381 CURVE",
"440 275 LINE SMOOTH",
"270 0 LINE",
"332 0 LINE",
"481 253 OFFCURVE",
"569 321 OFFCURVE",
"704 321 CURVE",
"806 321 OFFCURVE",
"865 267 OFFCURVE",
"865 168 CURVE SMOOTH",
"865 102 OFFCURVE",
"849 45 OFFCURVE",
"791 45 CURVE SMOOTH",
"742 45 OFFCURVE",
"717 99 OFFCURVE",
"717 163 CURVE SMOOTH",
"717 181 LINE",
"657 181 LINE",
"657 164 LINE SMOOTH",
"657 108 OFFCURVE",
"646 45 OFFCURVE",
"590 45 CURVE SMOOTH",
"530 45 OFFCURVE",
"504 139 OFFCURVE",
"450 139 CURVE SMOOTH",
"406 139 OFFCURVE",
"396 111 OFFCURVE",
"361 69 CURVE",
"332 0 LINE",
"352 43 OFFCURVE",
"386 86 OFFCURVE",
"426 86 CURVE SMOOTH",
"482 86 OFFCURVE",
"498 -10 OFFCURVE",
"589 -10 CURVE SMOOTH",
"643 -10 OFFCURVE",
"671 25 OFFCURVE",
"687 83 CURVE",
"698 28 OFFCURVE",
"737 -10 OFFCURVE",
"794 -10 CURVE SMOOTH",
"887 -10 OFFCURVE",
"924 79 OFFCURVE",
"924 167 CURVE SMOOTH",
"924 291 OFFCURVE",
"838 375 OFFCURVE",
"710 375 CURVE",
"585 375 OFFCURVE",
"528 328 OFFCURVE",
"456 244 CURVE",
"477 261 LINE",
"575 426 OFFCURVE",
"663 498 OFFCURVE",
"815 498 CURVE",
"921 498 OFFCURVE",
"985 462 OFFCURVE",
"1025 434 CURVE",
"1051 478 LINE",
"1009 515 OFFCURVE",
"933 553 OFFCURVE",
"817 553 CURVE"
);
},
{
closed = 1;
nodes = (
"208 0 LINE",
"164 81 OFFCURVE",
"125 182 OFFCURVE",
"125 281 CURVE",
"125 420 OFFCURVE",
"166 503 OFFCURVE",
"241 503 CURVE SMOOTH",
"269 503 OFFCURVE",
"296 488 OFFCURVE",
"311 470 CURVE",
"356 493 LINE",
"336 525 OFFCURVE",
"292 553 OFFCURVE",
"240 553 CURVE SMOOTH",
"125 553 OFFCURVE",
"65 443 OFFCURVE",
"65 284 CURVE",
"65 171 OFFCURVE",
"103 66 OFFCURVE",
"141 0 CURVE"
);
},
{
closed = 1;
nodes = (
"1085 434 LINE",
"1098 481 OFFCURVE",
"1132 498 OFFCURVE",
"1175 498 CURVE",
"1239 498 OFFCURVE",
"1256 449 OFFCURVE",
"1256 390 CURVE",
"1141 391 LINE",
"1004 391 OFFCURVE",
"918 312 OFFCURVE",
"918 197 CURVE",
"918 39 OFFCURVE",
"1048 -10 OFFCURVE",
"1182 -10 CURVE SMOOTH",
"1232 -10 OFFCURVE",
"1289 0 OFFCURVE",
"1329 13 CURVE",
"1329 68 LINE",
"1292 54 OFFCURVE",
"1230 45 OFFCURVE",
"1176 45 CURVE SMOOTH",
"1082 45 OFFCURVE",
"978 78 OFFCURVE",
"978 198 CURVE",
"978 282 OFFCURVE",
"1035 336 OFFCURVE",
"1143 336 CURVE SMOOTH",
"1317 336 LINE",
"1319 349 OFFCURVE",
"1320 362 OFFCURVE",
"1320 386 CURVE",
"1320 481 OFFCURVE",
"1280 553 OFFCURVE",
"1174 553 CURVE SMOOTH",
"1082 553 OFFCURVE",
"1035 499 OFFCURVE",
"1025 434 CURVE"
);
},
{
closed = 1;
nodes = (
"1286 37 LINE",
"1226 13 OFFCURVE",
"1182 -39 OFFCURVE",
"1182 -93 CURVE SMOOTH",
"1182 -159 OFFCURVE",
"1243 -186 OFFCURVE",
"1296 -186 CURVE SMOOTH",
"1305 -186 OFFCURVE",
"1316 -185 OFFCURVE",
"1322 -184 CURVE",
"1323 -137 LINE",
"1281 -137 OFFCURVE",
"1245 -126 OFFCURVE",
"1245 -87 CURVE SMOOTH",
"1245 -40 OFFCURVE",
"1285 -6 OFFCURVE",
"1329 13 CURVE"
);
}
);
width = 1374;
}
);
unicode = 0DA4;
},
{
glyphname = "jnya-sinhala";
lastChange = "2024-02-21 01:14:20 +0000";
layers = (
{
layerId = "25BA55F5-DD3E-4682-A696-ADF7D9496427";
name = Light;
paths = (
{
closed = 1;
nodes = (
"202 0 LINE",
"158 81 OFFCURVE",
"125 182 OFFCURVE",
"125 281 CURVE",
"125 420 OFFCURVE",
"175 493 OFFCURVE",
"271 493 CURVE",
"369 493 LINE",
"387 543 LINE",
"270 543 LINE",
"134 543 OFFCURVE",
"65 443 OFFCURVE",
"65 284 CURVE",
"65 171 OFFCURVE",
"97 66 OFFCURVE",
"135 0 CURVE"
);
},
{
closed = 1;
nodes = (
"408 543 LINE",
"369 543 LINE",
"321 488 OFFCURVE",
"275 384 OFFCURVE",
"275 276 CURVE SMOOTH",
"275 122 OFFCURVE",
"360 -10 OFFCURVE",
"533 -10 CURVE",
"661 -10 OFFCURVE",
"741 72 OFFCURVE",
"741 197 CURVE SMOOTH",
"741 262 OFFCURVE",
"701 332 OFFCURVE",
"629 332 CURVE SMOOTH",
"577 332 OFFCURVE",
"526 303 OFFCURVE",
"526 217 CURVE",
"562 216 LINE",
"562 250 OFFCURVE",
"581 277 OFFCURVE",
"617 277 CURVE SMOOTH",
"660 277 OFFCURVE",
"681 243 OFFCURVE",
"681 196 CURVE SMOOTH",
"681 116 OFFCURVE",
"637 45 OFFCURVE",
"534 45 CURVE",
"407 45 OFFCURVE",
"337 138 OFFCURVE",
"337 276 CURVE SMOOTH",
"337 353 OFFCURVE",
"359 433 OFFCURVE",
"408 506 CURVE"
);
},
{
closed = 1;
nodes = (
"873 475 LINE",
"845 521 OFFCURVE",
"788 553 OFFCURVE",
"711 553 CURVE",
"558 553 OFFCURVE",
"488 447 OFFCURVE",
"488 276 CURVE SMOOTH",
"488 253 OFFCURVE",
"492 226 OFFCURVE",
"494 216 CURVE",
"546 216 LINE",
"543 231 OFFCURVE",
"541 250 OFFCURVE",
"541 277 CURVE SMOOTH",
"541 383 OFFCURVE",
"574 498 OFFCURVE",
"710 498 CURVE",
"782 498 OFFCURVE",
"823 462 OFFCURVE",
"842 424 CURVE"
);
},
{
closed = 1;
nodes = (
"1109 54 OFFCURVE",
"1047 45 OFFCURVE",
"993 45 CURVE SMOOTH",
"899 45 OFFCURVE",
"795 78 OFFCURVE",
"795 198 CURVE",
"795 282 OFFCURVE",
"852 336 OFFCURVE",
"960 336 CURVE SMOOTH",
"1134 336 LINE",
"1136 349 OFFCURVE",
"1137 362 OFFCURVE",
"1137 386 CURVE",
"1137 481 OFFCURVE",
"1087 553 OFFCURVE",
"981 553 CURVE SMOOTH",
"889 553 OFFCURVE",
"842 490 OFFCURVE",
"842 424 CURVE",
"902 424 LINE",
"902 471 OFFCURVE",
"939 498 OFFCURVE",
"982 498 CURVE",
"1046 498 OFFCURVE",
"1073 449 OFFCURVE",
"1073 390 CURVE",
"958 391 LINE",
"821 391 OFFCURVE",
"735 312 OFFCURVE",
"735 197 CURVE",
"735 39 OFFCURVE",
"865 -10 OFFCURVE",
"999 -10 CURVE SMOOTH",
"1049 -10 OFFCURVE",
"1106 0 OFFCURVE",
"1146 13 CURVE",
"1146 68 LINE"
);
},
{
closed = 1;
nodes = (
"1103 37 LINE",
"1043 13 OFFCURVE",
"999 -39 OFFCURVE",
"999 -93 CURVE SMOOTH",
"999 -159 OFFCURVE",
"1060 -186 OFFCURVE",
"1113 -186 CURVE SMOOTH",
"1122 -186 OFFCURVE",
"1133 -185 OFFCURVE",
"1139 -184 CURVE",
"1140 -137 LINE",
"1098 -137 OFFCURVE",
"1062 -126 OFFCURVE",
"1062 -87 CURVE SMOOTH",
"1062 -40 OFFCURVE",
"1102 -6 OFFCURVE",
"1146 13 CURVE"
);
}
);
width = 1206;
}
);
unicode = 0DA5;
},
{
glyphname = "nyja-sinhala";
lastChange = "2024-02-21 04:33:17 +0000";
layers = (
{
anchors = (
{
name = "u-sign-sinhala";
position = "{868, 189}";
}
);
layerId = "25BA55F5-DD3E-4682-A696-ADF7D9496427";
name = Light;
paths = (
{
closed = 1;
nodes = (
"748 342 LINE",
"821 342 OFFCURVE",
"857 394 OFFCURVE",
"857 448 CURVE",
"857 501 OFFCURVE",
"827 555 OFFCURVE",
"758 555 CURVE SMOOTH",
"701 555 OFFCURVE",
"676 510 OFFCURVE",
"663 467 CURVE",
"684 437 LINE",
"684 474 OFFCURVE",
"707 502 OFFCURVE",
"748 502 CURVE SMOOTH",
"784 502 OFFCURVE",
"803 481 OFFCURVE",
"803 448 CURVE",
"803 414 OFFCURVE",
"777 391 OFFCURVE",
"733 391 CURVE"
);
},
{
closed = 1;
nodes = (
"207 0 LINE",
"163 81 OFFCURVE",
"130 182 OFFCURVE",
"130 281 CURVE SMOOTH",
"130 420 OFFCURVE",
"171 503 OFFCURVE",
"246 503 CURVE SMOOTH",
"274 503 OFFCURVE",
"301 488 OFFCURVE",
"316 470 CURVE",
"361 493 LINE",
"341 525 OFFCURVE",
"297 553 OFFCURVE",
"245 553 CURVE SMOOTH",
"130 553 OFFCURVE",
"70 443 OFFCURVE",
"70 284 CURVE",
"70 171 OFFCURVE",
"102 66 OFFCURVE",
"140 0 CURVE"
);
},
{
closed = 1;
nodes = (
"773 -10 OFFCURVE",
"930 59 OFFCURVE",
"930 209 CURVE",
"930 324 OFFCURVE",
"850 391 OFFCURVE",
"733 391 CURVE",
"688 390 LINE",
"685 407 OFFCURVE",
"684 417 OFFCURVE",
"684 437 CURVE SMOOTH",
"684 531 OFFCURVE",
"719 611 OFFCURVE",
"819 611 CURVE",
"819 665 LINE",
"669 665 OFFCURVE",
"623 562 OFFCURVE",
"623 435 CURVE",
"623 399 OFFCURVE",
"629 352 OFFCURVE",
"634 336 CURVE",
"712 336 LINE",
"810 336 OFFCURVE",
"868 294 OFFCURVE",
"868 210 CURVE",
"868 91 OFFCURVE",
"740 45 OFFCURVE",
"605 45 CURVE",
"463 45 OFFCURVE",
"335 94 OFFCURVE",
"335 213 CURVE",
"335 297 OFFCURVE",
"391 336 OFFCURVE",
"489 336 CURVE SMOOTH",
"571 336 LINE",
"573 349 OFFCURVE",
"574 362 OFFCURVE",
"574 386 CURVE",
"574 481 OFFCURVE",
"536 553 OFFCURVE",
"430 553 CURVE SMOOTH",
"342 553 OFFCURVE",
"301 499 OFFCURVE",
"300 434 CURVE",
"360 434 LINE",
"362 474 OFFCURVE",
"388 498 OFFCURVE",
"431 498 CURVE",
"495 498 OFFCURVE",
"510 449 OFFCURVE",
"510 390 CURVE",
"470 391 LINE",
"353 391 OFFCURVE",
"275 327 OFFCURVE",
"275 212 CURVE",
"275 62 OFFCURVE",
"430 -10 OFFCURVE",
"605 -10 CURVE"
);
}
);
width = 985;
}
);
unicode = 0DA6;
},
{
glyphname = "tta-sinhala";
lastChange = "2024-02-21 04:02:46 +0000";
layers = (
{
anchors = (
{
name = "_u-sign-sinhala";
position = "{310, 297}";
},
{
name = "u-sign-sinhala";
position = "{593, 297}";
}
);
layerId = "25BA55F5-DD3E-4682-A696-ADF7D9496427";
name = Light;
paths = (
{
closed = 1;
nodes = (
"65 667 LINE",
"126 698 OFFCURVE",
"214 718 OFFCURVE",
"295 718 CURVE",
"504 718 OFFCURVE",
"596 574 OFFCURVE",
"596 370 CURVE",
"596 191 OFFCURVE",
"509 45 OFFCURVE",
"332 45 CURVE SMOOTH",
"208 45 OFFCURVE",
"120 111 OFFCURVE",
"120 230 CURVE SMOOTH",
"120 336 OFFCURVE",
"196 396 OFFCURVE",
"302 396 CURVE SMOOTH",
"323 396 OFFCURVE",
"343 395 OFFCURVE",
"366 391 CURVE",
"366 445 LINE",
"346 450 OFFCURVE",
"327 452 OFFCURVE",
"303 452 CURVE",
"141 452 OFFCURVE",
"56 352 OFFCURVE",
"56 229 CURVE SMOOTH",
"56 79 OFFCURVE",
"174 -10 OFFCURVE",
"331 -10 CURVE SMOOTH",
"575 -10 OFFCURVE",
"656 191 OFFCURVE",
"656 371 CURVE",
"656 578 OFFCURVE",
"561 773 OFFCURVE",
"295 773 CURVE",
"214 773 OFFCURVE",
"126 754 OFFCURVE",
"65 722 CURVE"
);
}
);
width = 706;
}
);
unicode = 0DA7;
},
{
glyphname = "ttha-sinhala";
lastChange = "2024-02-21 04:04:33 +0000";
layers = (
{
anchors = (
{
name = "u-sign-sinhala";
position = "{626, 297}";
}
);
layerId = "25BA55F5-DD3E-4682-A696-ADF7D9496427";
name = Light;
paths = (
{
closed = 1;
nodes = (
"576 541 LINE",
"561 523 OFFCURVE",
"536 506 OFFCURVE",
"495 506 CURVE",
"449 506 OFFCURVE",
"412 533 OFFCURVE",
"412 584 CURVE SMOOTH",
"412 631 OFFCURVE",
"436 673 OFFCURVE",
"466 699 CURVE",
"417 735 LINE",
"380 700 OFFCURVE",
"354 644 OFFCURVE",
"354 586 CURVE SMOOTH",
"354 503 OFFCURVE",
"416 451 OFFCURVE",
"490 451 CURVE SMOOTH",
"546 451 OFFCURVE",
"586 470 OFFCURVE",
"608 502 CURVE"
);
},
{
closed = 1;
nodes = (
"133 317 OFFCURVE",
"195 396 OFFCURVE",
"301 396 CURVE SMOOTH",
"320 396 OFFCURVE",
"343 395 OFFCURVE",
"362 391 CURVE",
"362 444 LINE",
"343 450 OFFCURVE",
"320 452 OFFCURVE",
"301 452 CURVE SMOOTH",
"139 452 OFFCURVE",
"73 333 OFFCURVE",
"73 200 CURVE",
"73 83 OFFCURVE",
"135 -10 OFFCURVE",
"250 -10 CURVE SMOOTH",
"316 -10 OFFCURVE",
"351 24 OFFCURVE",
"371 58 CURVE",
"387 29 OFFCURVE",
"427 -10 OFFCURVE",
"489 -10 CURVE SMOOTH",
"652 -10 OFFCURVE",
"686 147 OFFCURVE",
"686 314 CURVE",
"686 552 OFFCURVE",
"553 737 OFFCURVE",
"339 794 CURVE",
"339 735 LINE",
"522 675 OFFCURVE",
"626 522 OFFCURVE",
"626 315 CURVE",
"626 173 OFFCURVE",
"600 45 OFFCURVE",
"493 45 CURVE SMOOTH",
"424 45 OFFCURVE",
"400 94 OFFCURVE",
"400 142 CURVE",
"400 176 LINE",
"341 176 LINE",
"341 142 LINE",
"341 93 OFFCURVE",
"315 45 OFFCURVE",
"251 45 CURVE SMOOTH",
"173 45 OFFCURVE",
"133 106 OFFCURVE",
"133 201 CURVE"
);
}
);
width = 766;
}
);
unicode = 0DA8;
},
{
glyphname = "dda-sinhala";
lastChange = "2024-02-21 04:35:03 +0000";
layers = (
{
anchors = (
{
name = "u-sign-sinhala";
position = "{626, 189}";
}
);
layerId = "25BA55F5-DD3E-4682-A696-ADF7D9496427";
name = Light;
paths = (
{
closed = 1;
nodes = (
"312 -10 OFFCURVE",
"354 22 OFFCURVE",
"374 61 CURVE",
"388 24 OFFCURVE",
"430 -10 OFFCURVE",
"497 -10 CURVE SMOOTH",
"660 -10 OFFCURVE",
"696 152 OFFCURVE",
"696 339 CURVE",
"696 546 OFFCURVE",
"611 773 OFFCURVE",
"320 773 CURVE",
"231 773 OFFCURVE",
"150 750 OFFCURVE",
"89 713 CURVE",
"89 658 LINE",
"149 694 OFFCURVE",
"231 718 OFFCURVE",
"320 718 CURVE",
"554 718 OFFCURVE",
"636 544 OFFCURVE",
"636 340 CURVE",
"636 178 OFFCURVE",
"608 45 OFFCURVE",
"501 45 CURVE SMOOTH",
"424 45 OFFCURVE",
"403 94 OFFCURVE",
"403 142 CURVE",
"403 176 LINE",
"344 176 LINE",
"344 142 LINE",
"344 94 OFFCURVE",
"323 45 OFFCURVE",
"249 45 CURVE SMOOTH",
"184 45 OFFCURVE",
"130 90 OFFCURVE",
"130 176 CURVE",
"130 272 OFFCURVE",
"186 326 OFFCURVE",
"253 326 CURVE",
"139 326 LINE",
"101 305 OFFCURVE",
"70 247 OFFCURVE",
"70 175 CURVE",
"70 58 OFFCURVE",
"149 -10 OFFCURVE",
"248 -10 CURVE SMOOTH"
);
},
{
closed = 1;
nodes = (
"130 424 LINE",
"133 471 OFFCURVE",
"164 498 OFFCURVE",
"217 498 CURVE",
"301 498 OFFCURVE",
"321 439 OFFCURVE",
"321 380 CURVE",
"35 380 LINE",
"35 325 LINE",
"383 326 LINE",
"385 340 OFFCURVE",
"385 353 OFFCURVE",
"385 367 CURVE",
"385 462 OFFCURVE",
"342 553 OFFCURVE",
"216 553 CURVE SMOOTH",
"124 553 OFFCURVE",
"70 499 OFFCURVE",
"70 424 CURVE"
);
}
);
width = 776;
}
);
unicode = 0DA9;
},
{
glyphname = "ddha-sinhala";
lastChange = "2024-02-21 04:35:09 +0000";
layers = (
{
anchors = (
{
name = "u-sign-sinhala";
position = "{620, 189}";
}
);
layerId = "25BA55F5-DD3E-4682-A696-ADF7D9496427";
name = Light;
paths = (
{
closed = 1;
nodes = (
"383 340 OFFCURVE",
"384 353 OFFCURVE",
"384 367 CURVE",
"384 462 OFFCURVE",
"342 553 OFFCURVE",
"226 553 CURVE SMOOTH",
"140 553 OFFCURVE",
"90 499 OFFCURVE",
"90 424 CURVE",
"150 424 LINE",
"153 471 OFFCURVE",
"180 498 OFFCURVE",
"227 498 CURVE",
"301 498 OFFCURVE",
"321 439 OFFCURVE",
"321 380 CURVE",
"35 380 LINE",
"35 325 LINE",
"382 326 LINE"
);
},
{
closed = 1;
nodes = (
"689 545 OFFCURVE",
"556 737 OFFCURVE",
"341 794 CURVE",
"341 736 LINE",
"525 676 OFFCURVE",
"629 515 OFFCURVE",
"629 308 CURVE",
"629 175 OFFCURVE",
"603 45 OFFCURVE",
"496 45 CURVE",
"427 45 OFFCURVE",
"403 94 OFFCURVE",
"403 142 CURVE",
"403 156 LINE",
"344 156 LINE",
"344 142 LINE",
"344 94 OFFCURVE",
"317 45 OFFCURVE",
"243 45 CURVE SMOOTH",
"178 45 OFFCURVE",
"130 96 OFFCURVE",
"130 182 CURVE",
"130 268 OFFCURVE",
"186 326 OFFCURVE",
"253 326 CURVE",
"144 326 LINE",
"107 309 OFFCURVE",
"70 253 OFFCURVE",
"70 181 CURVE",
"70 64 OFFCURVE",
"143 -10 OFFCURVE",
"242 -10 CURVE SMOOTH",
"306 -10 OFFCURVE",
"352 21 OFFCURVE",
"372 60 CURVE",
"388 31 OFFCURVE",
"430 -10 OFFCURVE",
"492 -10 CURVE",
"655 -10 OFFCURVE",
"689 149 OFFCURVE",
"689 307 CURVE"
);
},
{
closed = 1;
nodes = (
"422 735 LINE",
"385 700 OFFCURVE",
"359 644 OFFCURVE",
"359 586 CURVE SMOOTH",
"359 503 OFFCURVE",
"421 451 OFFCURVE",
"495 451 CURVE SMOOTH",
"551 451 OFFCURVE",
"591 470 OFFCURVE",
"613 502 CURVE",
"581 541 LINE",
"566 523 OFFCURVE",
"541 506 OFFCURVE",
"500 506 CURVE",
"454 506 OFFCURVE",
"417 533 OFFCURVE",
"417 584 CURVE SMOOTH",
"417 631 OFFCURVE",
"441 673 OFFCURVE",
"471 699 CURVE"
);
}
);
width = 769;
}
);
unicode = 0DAA;
},
{
glyphname = "nna-sinhala";
lastChange = "2024-02-21 01:14:20 +0000";
layers = (
{
layerId = "25BA55F5-DD3E-4682-A696-ADF7D9496427";
name = Light;
paths = (
{
closed = 1;
nodes = (
"437 214 OFFCURVE",
"404 186 OFFCURVE",
"356 186 CURVE SMOOTH",
"309 186 OFFCURVE",
"275 214 OFFCURVE",
"275 267 CURVE SMOOTH",
"275 317 OFFCURVE",
"309 348 OFFCURVE",
"356 348 CURVE SMOOTH",
"404 348 OFFCURVE",
"437 317 OFFCURVE",
"437 267 CURVE SMOOTH"
);
},
{
closed = 1;
nodes = (
"206 553 OFFCURVE",
"82 474 OFFCURVE",
"82 320 CURVE SMOOTH",
"82 211 OFFCURVE",
"166 120 OFFCURVE",
"317 120 CURVE",
"415 120 OFFCURVE",
"495 168 OFFCURVE",
"495 268 CURVE SMOOTH",
"495 347 OFFCURVE",
"439 402 OFFCURVE",
"357 402 CURVE SMOOTH",
"279 402 OFFCURVE",
"217 351 OFFCURVE",
"217 269 CURVE SMOOTH",
"217 222 OFFCURVE",
"246 167 OFFCURVE",
"306 159 CURVE",
"305 171 LINE",
"217 171 OFFCURVE",
"139 218 OFFCURVE",
"139 320 CURVE SMOOTH",
"139 452 OFFCURVE",
"252 498 OFFCURVE",
"352 498 CURVE",
"504 498 OFFCURVE",
"581 408 OFFCURVE",
"581 289 CURVE SMOOTH",
"581 149 OFFCURVE",
"512 45 OFFCURVE",
"340 45 CURVE SMOOTH",
"262 45 OFFCURVE",
"215 75 OFFCURVE",
"157 75 CURVE SMOOTH",
"105 75 OFFCURVE",
"59 47 OFFCURVE",
"47 29 CURVE",
"40 -13 LINE",
"70 12 OFFCURVE",
"103 27 OFFCURVE",
"143 27 CURVE SMOOTH",
"207 27 OFFCURVE",
"257 -10 OFFCURVE",
"341 -10 CURVE SMOOTH",
"533 -10 OFFCURVE",
"641 106 OFFCURVE",
"641 288 CURVE SMOOTH",
"641 448 OFFCURVE",
"528 553 OFFCURVE",
"352 553 CURVE"
);
},
{
closed = 1;
nodes = (
"148 209 LINE",
"40 61 LINE",
"40 -13 LINE",
"192 174 LINE"
);
},
{
closed = 1;
nodes = (
"449 502 LINE",
"571 658 LINE",
"501 658 LINE",
"397 526 LINE"
);
},
{
closed = 1;
nodes = (
"629 13 LINE",
"674 -2 OFFCURVE",
"725 -10 OFFCURVE",
"790 -10 CURVE",
"1020 -10 OFFCURVE",
"1069 161 OFFCURVE",
"1069 328 CURVE",
"1069 451 OFFCURVE",
"1028 553 OFFCURVE",
"921 553 CURVE SMOOTH",
"867 553 OFFCURVE",
"824 519 OFFCURVE",
"812 464 CURVE",
"797 519 OFFCURVE",
"761 553 OFFCURVE",
"698 553 CURVE SMOOTH",
"626 553 OFFCURVE",
"566 499 OFFCURVE",
"560 400 CURVE",
"614 397 LINE",
"620 466 OFFCURVE",
"651 499 OFFCURVE",
"699 499 CURVE SMOOTH",
"761 499 OFFCURVE",
"783 446 OFFCURVE",
"783 381 CURVE SMOOTH",
"783 268 LINE",
"841 268 LINE",
"841 381 LINE SMOOTH",
"841 443 OFFCURVE",
"864 499 OFFCURVE",
"921 499 CURVE SMOOTH",
"987 499 OFFCURVE",
"1009 429 OFFCURVE",
"1009 329 CURVE",
"1009 158 OFFCURVE",
"957 45 OFFCURVE",
"790 45 CURVE SMOOTH",
"728 45 OFFCURVE",
"672 55 OFFCURVE",
"629 69 CURVE"
);
}
);
width = 1149;
}
);
unicode = 0DAB;
},
{
glyphname = "nndda-sinhala";
lastChange = "2024-02-21 04:35:14 +0000";
layers = (
{
anchors = (
{
name = "u-sign-sinhala";
position = "{851, 189}";
}
);
layerId = "25BA55F5-DD3E-4682-A696-ADF7D9496427";
name = Light;
paths = (
{
closed = 1;
nodes = (
"538 -10 OFFCURVE",
"580 22 OFFCURVE",
"600 61 CURVE",
"614 24 OFFCURVE",
"656 -10 OFFCURVE",
"723 -10 CURVE SMOOTH",
"886 -10 OFFCURVE",
"922 152 OFFCURVE",
"922 339 CURVE",
"922 546 OFFCURVE",
"837 773 OFFCURVE",
"546 773 CURVE",
"457 773 OFFCURVE",
"376 750 OFFCURVE",
"315 713 CURVE",
"315 658 LINE",
"375 694 OFFCURVE",
"457 718 OFFCURVE",
"546 718 CURVE",
"780 718 OFFCURVE",
"862 544 OFFCURVE",
"862 340 CURVE",
"862 178 OFFCURVE",
"834 45 OFFCURVE",
"727 45 CURVE SMOOTH",
"650 45 OFFCURVE",
"629 94 OFFCURVE",
"629 142 CURVE",
"629 176 LINE",
"570 176 LINE",
"570 142 LINE",
"570 94 OFFCURVE",
"549 45 OFFCURVE",
"475 45 CURVE SMOOTH",
"410 45 OFFCURVE",
"356 90 OFFCURVE",
"356 176 CURVE",
"356 272 OFFCURVE",
"412 326 OFFCURVE",
"479 326 CURVE",
"365 326 LINE",
"327 305 OFFCURVE",
"296 247 OFFCURVE",
"296 175 CURVE",
"296 58 OFFCURVE",
"375 -10 OFFCURVE",
"474 -10 CURVE SMOOTH"
);
},
{
closed = 1;
nodes = (
"356 424 LINE",
"359 471 OFFCURVE",
"390 498 OFFCURVE",
"443 498 CURVE",
"527 498 OFFCURVE",
"547 439 OFFCURVE",
"547 380 CURVE",
"261 380 LINE",
"261 325 LINE",
"609 326 LINE",
"611 340 OFFCURVE",
"611 353 OFFCURVE",
"611 367 CURVE",
"611 462 OFFCURVE",
"568 553 OFFCURVE",
"442 553 CURVE SMOOTH",
"350 553 OFFCURVE",
"296 499 OFFCURVE",
"296 424 CURVE"
);
},
{
closed = 1;
nodes = (
"202 0 LINE",
"158 81 OFFCURVE",
"125 182 OFFCURVE",
"125 281 CURVE SMOOTH",
"125 420 OFFCURVE",
"166 503 OFFCURVE",
"241 503 CURVE SMOOTH",
"269 503 OFFCURVE",
"296 488 OFFCURVE",
"311 470 CURVE",
"356 493 LINE",
"336 525 OFFCURVE",
"292 553 OFFCURVE",
"240 553 CURVE SMOOTH",
"125 553 OFFCURVE",
"65 443 OFFCURVE",
"65 284 CURVE",
"65 171 OFFCURVE",
"97 66 OFFCURVE",
"135 0 CURVE"
);
}
);
width = 997;
}
);
unicode = 0DAC;
},
{
glyphname = "ta-sinhala";
lastChange = "2024-02-21 01:14:20 +0000";
layers = (
{
layerId = "25BA55F5-DD3E-4682-A696-ADF7D9496427";
name = Light;
paths = (
{
closed = 1;
nodes = (
"102 0 LINE",
"243 251 OFFCURVE",
"327 319 OFFCURVE",
"444 319 CURVE",
"526 319 OFFCURVE",
"577 269 OFFCURVE",
"577 189 CURVE SMOOTH",
"577 113 OFFCURVE",
"538 45 OFFCURVE",
"445 45 CURVE SMOOTH",
"345 45 OFFCURVE",
"297 139 OFFCURVE",
"220 139 CURVE SMOOTH",
"176 139 OFFCURVE",
"166 111 OFFCURVE",
"131 69 CURVE",
"102 0 LINE",
"122 43 OFFCURVE",
"156 86 OFFCURVE",
"196 86 CURVE SMOOTH",
"275 86 OFFCURVE",
"318 -10 OFFCURVE",
"449 -10 CURVE SMOOTH",
"560 -10 OFFCURVE",
"636 70 OFFCURVE",
"636 188 CURVE SMOOTH",
"636 293 OFFCURVE",
"558 373 OFFCURVE",
"450 373 CURVE",
"352 373 OFFCURVE",
"294 335 OFFCURVE",
"226 253 CURVE",
"253 269 LINE",
"333 418 OFFCURVE",
"425 498 OFFCURVE",
"548 498 CURVE",
"709 498 OFFCURVE",
"771 393 OFFCURVE",
"771 250 CURVE SMOOTH",
"771 171 OFFCURVE",
"753 86 OFFCURVE",
"714 0 CURVE",
"777 0 LINE",
"816 89 OFFCURVE",
"831 180 OFFCURVE",
"831 250 CURVE SMOOTH",
"831 427 OFFCURVE",
"730 553 OFFCURVE",
"549 553 CURVE",
"427 553 OFFCURVE",
"329 491 OFFCURVE",
"278 385 CURVE",
"210 275 LINE SMOOTH",
"40 0 LINE"
);
},
{
closed = 1;
nodes = (
"89 553 OFFCURVE",
"47 494 OFFCURVE",
"47 429 CURVE",
"107 429 LINE",
"108 466 OFFCURVE",
"126 498 OFFCURVE",
"182 498 CURVE",
"231 498 OFFCURVE",
"257 466 OFFCURVE",
"257 422 CURVE SMOOTH",
"257 377 OFFCURVE",
"239 331 OFFCURVE",
"202 261 CURVE",
"287 348 LINE",
"297 374 OFFCURVE",
"308 404 OFFCURVE",
"308 425 CURVE",
"308 493 OFFCURVE",
"263 553 OFFCURVE",
"177 553 CURVE SMOOTH"
);
}
);
width = 906;
}
);
unicode = 0DAD;
},
{
glyphname = "tha-sinhala";
lastChange = "2024-02-21 04:02:56 +0000";
layers = (
{
anchors = (
{
name = "u-sign-sinhala";
position = "{591, 297}";
}
);
layerId = "25BA55F5-DD3E-4682-A696-ADF7D9496427";
name = Light;
paths = (
{
closed = 1;
nodes = (
"293 734 LINE",
"475 673 OFFCURVE",
"590 526 OFFCURVE",
"590 321 CURVE",
"590 162 OFFCURVE",
"521 45 OFFCURVE",
"344 45 CURVE SMOOTH",
"220 45 OFFCURVE",
"119 104 OFFCURVE",
"119 233 CURVE SMOOTH",
"119 339 OFFCURVE",
"193 396 OFFCURVE",
"279 396 CURVE",
"279 452 LINE",
"137 452 OFFCURVE",
"55 355 OFFCURVE",
"55 232 CURVE SMOOTH",
"55 72 OFFCURVE",
"186 -10 OFFCURVE",
"343 -10 CURVE SMOOTH",
"587 -10 OFFCURVE",
"650 162 OFFCURVE",
"650 322 CURVE",
"650 558 OFFCURVE",
"505 735 OFFCURVE",
"293 793 CURVE"
);
},
{
closed = 1;
nodes = (
"377 737 LINE",
"340 702 OFFCURVE",
"314 646 OFFCURVE",
"314 588 CURVE SMOOTH",
"314 505 OFFCURVE",
"376 453 OFFCURVE",
"450 453 CURVE SMOOTH",
"506 453 OFFCURVE",
"546 472 OFFCURVE",
"568 504 CURVE",
"536 543 LINE",
"521 525 OFFCURVE",
"496 508 OFFCURVE",
"455 508 CURVE",
"409 508 OFFCURVE",
"372 535 OFFCURVE",
"372 586 CURVE SMOOTH",
"372 633 OFFCURVE",
"396 675 OFFCURVE",
"426 701 CURVE"
);
}
);
width = 725;
}
);
unicode = 0DAE;
},
{
glyphname = "da-sinhala";
lastChange = "2024-02-21 01:14:20 +0000";
layers = (
{
layerId = "25BA55F5-DD3E-4682-A696-ADF7D9496427";
name = Light;
paths = (
{
closed = 1;
nodes = (
"222 434 LINE",
"222 477 OFFCURVE",
"255 498 OFFCURVE",
"301 498 CURVE",
"365 498 OFFCURVE",
"393 449 OFFCURVE",
"393 390 CURVE",
"278 391 LINE",
"141 391 OFFCURVE",
"55 312 OFFCURVE",
"55 197 CURVE",
"55 39 OFFCURVE",
"185 -10 OFFCURVE",
"319 -10 CURVE SMOOTH",
"369 -10 OFFCURVE",
"426 0 OFFCURVE",
"466 13 CURVE",
"466 68 LINE",
"429 54 OFFCURVE",
"367 45 OFFCURVE",
"313 45 CURVE SMOOTH",
"219 45 OFFCURVE",
"115 78 OFFCURVE",
"115 198 CURVE",
"115 282 OFFCURVE",
"172 336 OFFCURVE",
"280 336 CURVE SMOOTH",
"454 336 LINE",
"456 349 OFFCURVE",
"457 362 OFFCURVE",
"457 386 CURVE",
"457 481 OFFCURVE",
"404 553 OFFCURVE",
"298 553 CURVE SMOOTH",
"209 553 OFFCURVE",
"162 499 OFFCURVE",
"162 434 CURVE"
);
},
{
closed = 1;
nodes = (
"423 37 LINE",
"363 13 OFFCURVE",
"319 -39 OFFCURVE",
"319 -93 CURVE SMOOTH",
"319 -159 OFFCURVE",
"380 -186 OFFCURVE",
"433 -186 CURVE SMOOTH",
"442 -186 OFFCURVE",
"453 -185 OFFCURVE",
"459 -184 CURVE",
"460 -137 LINE",
"418 -137 OFFCURVE",
"382 -126 OFFCURVE",
"382 -87 CURVE SMOOTH",
"382 -40 OFFCURVE",
"422 -6 OFFCURVE",
"466 13 CURVE"
);
}
);
width = 531;
}
);
unicode = 0DAF;
},
{
glyphname = "dha-sinhala";
lastChange = "2024-02-21 04:03:03 +0000";
layers = (
{
anchors = (
{
name = "u-sign-sinhala";
position = "{631, 297}";
}
);
layerId = "25BA55F5-DD3E-4682-A696-ADF7D9496427";
name = Light;
paths = (
{
closed = 1;
nodes = (
"173 45 OFFCURVE",
"133 106 OFFCURVE",
"133 201 CURVE",
"133 317 OFFCURVE",
"195 396 OFFCURVE",
"301 396 CURVE SMOOTH",
"320 396 OFFCURVE",
"343 395 OFFCURVE",
"362 391 CURVE",
"362 444 LINE",
"343 450 OFFCURVE",
"320 452 OFFCURVE",
"301 452 CURVE SMOOTH",
"139 452 OFFCURVE",
"73 333 OFFCURVE",
"73 200 CURVE",
"73 83 OFFCURVE",
"135 -10 OFFCURVE",
"250 -10 CURVE SMOOTH",
"316 -10 OFFCURVE",
"351 24 OFFCURVE",
"371 58 CURVE",
"387 29 OFFCURVE",
"427 -10 OFFCURVE",
"489 -10 CURVE SMOOTH",
"652 -10 OFFCURVE",
"686 152 OFFCURVE",
"686 319 CURVE",
"686 556 OFFCURVE",
"594 773 OFFCURVE",
"318 773 CURVE",
"237 773 OFFCURVE",
"149 754 OFFCURVE",
"88 722 CURVE",
"88 667 LINE",
"149 698 OFFCURVE",
"237 718 OFFCURVE",
"318 718 CURVE",
"537 718 OFFCURVE",
"626 553 OFFCURVE",
"626 319 CURVE",
"626 177 OFFCURVE",
"600 45 OFFCURVE",
"493 45 CURVE SMOOTH",
"424 45 OFFCURVE",
"400 94 OFFCURVE",
"400 142 CURVE",
"400 176 LINE",
"341 176 LINE",
"341 142 LINE",
"341 93 OFFCURVE",
"315 45 OFFCURVE",
"251 45 CURVE SMOOTH"
);
}
);
width = 761;
}
);
unicode = 0DB0;
},
{
glyphname = "na-sinhala";
lastChange = "2024-02-21 01:14:20 +0000";
layers = (
{
layerId = "25BA55F5-DD3E-4682-A696-ADF7D9496427";
name = Light;
paths = (
{
closed = 1;
nodes = (
"89 553 OFFCURVE",
"47 494 OFFCURVE",
"47 429 CURVE",
"107 429 LINE",
"108 466 OFFCURVE",
"126 498 OFFCURVE",
"182 498 CURVE",
"231 498 OFFCURVE",
"257 466 OFFCURVE",
"257 422 CURVE SMOOTH",
"257 361 OFFCURVE",
"232 310 OFFCURVE",
"186 240 CURVE",
"287 348 LINE",
"297 374 OFFCURVE",
"307 404 OFFCURVE",
"307 425 CURVE",
"307 493 OFFCURVE",
"263 553 OFFCURVE",
"177 553 CURVE SMOOTH"
);
},
{
closed = 1;
nodes = (
"133 67 LINE",
"207 176 LINE SMOOTH",
"254 246 OFFCURVE",
"301 319 OFFCURVE",
"417 319 CURVE",
"500 319 OFFCURVE",
"551 267 OFFCURVE",
"551 194 CURVE SMOOTH",
"551 104 OFFCURVE",
"494 45 OFFCURVE",
"377 45 CURVE SMOOTH",
"237 45 OFFCURVE",
"139 99 OFFCURVE",
"40 143 CURVE",
"40 83 LINE",
"119 37 OFFCURVE",
"246 -10 OFFCURVE",
"378 -10 CURVE SMOOTH",
"532 -10 OFFCURVE",
"610 71 OFFCURVE",
"610 193 CURVE SMOOTH",
"610 292 OFFCURVE",
"539 373 OFFCURVE",
"430 373 CURVE",
"332 373 OFFCURVE",
"291 343 OFFCURVE",
"223 261 CURVE",
"253 269 LINE",
"338 418 OFFCURVE",
"425 498 OFFCURVE",
"548 498 CURVE",
"709 498 OFFCURVE",
"753 393 OFFCURVE",
"753 250 CURVE SMOOTH",
"753 171 OFFCURVE",
"735 86 OFFCURVE",
"696 0 CURVE",
"759 0 LINE",
"798 89 OFFCURVE",
"813 180 OFFCURVE",
"813 250 CURVE SMOOTH",
"813 431 OFFCURVE",
"732 553 OFFCURVE",
"549 553 CURVE",
"427 553 OFFCURVE",
"329 489 OFFCURVE",
"278 383 CURVE",
"92 96 LINE"
);
}
);
width = 906;
}
);
unicode = 0DB1;
},
{
glyphname = "nda-sinhala";
lastChange = "2024-02-21 01:14:20 +0000";
layers = (
{
components = (
{
name = "da-sinhala";
transform = "{1, 0, 0, 1, 175, 0}";
}
);
layerId = "25BA55F5-DD3E-4682-A696-ADF7D9496427";
name = Light;
paths = (
{
closed = 1;
nodes = (
"207 0 LINE",
"163 81 OFFCURVE",
"130 182 OFFCURVE",
"130 281 CURVE SMOOTH",
"130 420 OFFCURVE",
"176 503 OFFCURVE",
"256 503 CURVE SMOOTH",
"299 503 OFFCURVE",
"336 482 OFFCURVE",
"351 464 CURVE",
"375 504 LINE",
"351 535 OFFCURVE",
"307 553 OFFCURVE",
"255 553 CURVE SMOOTH",
"135 553 OFFCURVE",
"70 443 OFFCURVE",
"70 284 CURVE",
"70 171 OFFCURVE",
"102 66 OFFCURVE",
"140 0 CURVE"
);
}
);
width = 706;
}
);
unicode = 0DB3;
},
{
glyphname = "pa-sinhala";
lastChange = "2024-02-21 04:33:04 +0000";
layers = (
{
anchors = (
{
name = "u-sign-sinhala";
position = "{640, 189}";
}
);
layerId = "25BA55F5-DD3E-4682-A696-ADF7D9496427";
name = Light;
paths = (
{
closed = 1;
nodes = (
"558 -10 OFFCURVE",
"701 56 OFFCURVE",
"701 210 CURVE",
"701 325 OFFCURVE",
"630 391 OFFCURVE",
"513 391 CURVE",
"463 390 LINE",
"463 449 OFFCURVE",
"485 498 OFFCURVE",
"549 498 CURVE",
"598 498 OFFCURVE",
"619 466 OFFCURVE",
"619 425 CURVE",
"679 425 LINE",
"679 499 OFFCURVE",
"633 553 OFFCURVE",
"545 553 CURVE SMOOTH",
"445 553 OFFCURVE",
"399 481 OFFCURVE",
"399 386 CURVE",
"399 362 OFFCURVE",
"400 349 OFFCURVE",
"402 336 CURVE",
"494 336 LINE",
"592 336 OFFCURVE",
"641 295 OFFCURVE",
"641 211 CURVE",
"641 88 OFFCURVE",
"525 45 OFFCURVE",
"377 45 CURVE",
"242 45 OFFCURVE",
"115 82 OFFCURVE",
"115 208 CURVE",
"115 292 OFFCURVE",
"175 336 OFFCURVE",
"273 336 CURVE",
"353 336 LINE",
"355 349 OFFCURVE",
"356 362 OFFCURVE",
"356 386 CURVE",
"356 481 OFFCURVE",
"312 553 OFFCURVE",
"206 553 CURVE SMOOTH",
"119 553 OFFCURVE",
"76 499 OFFCURVE",
"76 434 CURVE",
"136 434 LINE",
"139 476 OFFCURVE",
"164 498 OFFCURVE",
"207 498 CURVE",
"271 498 OFFCURVE",
"292 449 OFFCURVE",
"292 390 CURVE",
"252 391 LINE",
"135 391 OFFCURVE",
"55 322 OFFCURVE",
"55 207 CURVE",
"55 50 OFFCURVE",
"209 -10 OFFCURVE",
"377 -10 CURVE"
);
}
);
width = 758;
}
);
unicode = 0DB4;
},
{
glyphname = "pha-sinhala";
lastChange = "2024-02-21 04:20:11 +0000";
layers = (
{
anchors = (
{
name = "u-sign-sinhala";
position = "{580, 189}";
}
);
layerId = "25BA55F5-DD3E-4682-A696-ADF7D9496427";
name = Light;
paths = (
{
closed = 1;
nodes = (
"603 164 OFFCURVE",
"507 45 OFFCURVE",
"336 45 CURVE SMOOTH",
"207 45 OFFCURVE",
"106 94 OFFCURVE",
"106 207 CURVE SMOOTH",
"106 291 OFFCURVE",
"164 336 OFFCURVE",
"262 336 CURVE SMOOTH",
"344 336 LINE",
"346 349 OFFCURVE",
"347 362 OFFCURVE",
"347 386 CURVE SMOOTH",
"347 481 OFFCURVE",
"305 553 OFFCURVE",
"205 553 CURVE SMOOTH",
"123 553 OFFCURVE",
"73 499 OFFCURVE",
"72 434 CURVE",
"132 434 LINE",
"134 475 OFFCURVE",
"163 498 OFFCURVE",
"206 498 CURVE SMOOTH",
"266 498 OFFCURVE",
"283 449 OFFCURVE",
"283 390 CURVE",
"245 391 LINE SMOOTH",
"128 394 OFFCURVE",
"46 321 OFFCURVE",
"46 206 CURVE SMOOTH",
"46 62 OFFCURVE",
"173 -10 OFFCURVE",
"335 -10 CURVE SMOOTH",
"573 -10 OFFCURVE",
"663 163 OFFCURVE",
"663 323 CURVE SMOOTH",
"663 558 OFFCURVE",
"537 740 OFFCURVE",
"313 797 CURVE",
"313 739 LINE",
"503 680 OFFCURVE",
"603 524 OFFCURVE",
"603 323 CURVE SMOOTH"
);
},
{
closed = 1;
nodes = (
"554 550 LINE",
"539 532 OFFCURVE",
"514 515 OFFCURVE",
"473 515 CURVE",
"427 515 OFFCURVE",
"390 542 OFFCURVE",
"390 593 CURVE SMOOTH",
"390 640 OFFCURVE",
"414 682 OFFCURVE",
"444 708 CURVE",
"395 744 LINE",
"358 709 OFFCURVE",
"332 653 OFFCURVE",
"332 595 CURVE SMOOTH",
"332 512 OFFCURVE",
"394 460 OFFCURVE",
"468 460 CURVE SMOOTH",
"524 460 OFFCURVE",
"564 479 OFFCURVE",
"586 511 CURVE"
);
}
);
width = 741;
}
);
unicode = 0DB5;
},
{
glyphname = "ba-sinhala";
lastChange = "2024-02-21 04:20:43 +0000";
layers = (
{
anchors = (
{
name = "u-sign-sinhala";
position = "{669, 189}";
}
);
layerId = "25BA55F5-DD3E-4682-A696-ADF7D9496427";
name = Light;
paths = (
{
closed = 1;
nodes = (
"178 44 OFFCURVE",
"149 74 OFFCURVE",
"149 120 CURVE SMOOTH",
"149 167 OFFCURVE",
"177 199 OFFCURVE",
"223 199 CURVE SMOOTH",
"268 199 OFFCURVE",
"295 169 OFFCURVE",
"295 122 CURVE SMOOTH",
"295 76 OFFCURVE",
"269 44 OFFCURVE",
"224 44 CURVE SMOOTH"
);
},
{
closed = 1;
nodes = (
"481 157 OFFCURVE",
"521 191 OFFCURVE",
"521 268 CURVE SMOOTH",
"521 392 OFFCURVE",
"439 482 OFFCURVE",
"292 482 CURVE",
"143 482 OFFCURVE",
"50 374 OFFCURVE",
"50 223 CURVE SMOOTH",
"50 102 OFFCURVE",
"110 -10 OFFCURVE",
"225 -10 CURVE SMOOTH",
"296 -10 OFFCURVE",
"349 42 OFFCURVE",
"349 123 CURVE SMOOTH",
"349 202 OFFCURVE",
"303 253 OFFCURVE",
"229 253 CURVE SMOOTH",
"167 253 OFFCURVE",
"114 213 OFFCURVE",
"114 134 CURVE",
"130 129 LINE",
"126 144 OFFCURVE",
"108 167 OFFCURVE",
"108 224 CURVE SMOOTH",
"108 320 OFFCURVE",
"159 427 OFFCURVE",
"291 427 CURVE",
"392 427 OFFCURVE",
"461 376 OFFCURVE",
"461 268 CURVE",
"461 192 OFFCURVE",
"421 160 OFFCURVE",
"421 97 CURVE SMOOTH",
"421 34 OFFCURVE",
"478 -10 OFFCURVE",
"547 -10 CURVE SMOOTH",
"684 -10 OFFCURVE",
"743 152 OFFCURVE",
"743 319 CURVE",
"743 546 OFFCURVE",
"648 773 OFFCURVE",
"337 773 CURVE",
"248 773 OFFCURVE",
"139 747 OFFCURVE",
"78 710 CURVE",
"78 655 LINE",
"138 691 OFFCURVE",
"248 718 OFFCURVE",
"337 718 CURVE",
"591 718 OFFCURVE",
"683 544 OFFCURVE",
"683 320 CURVE",
"683 178 OFFCURVE",
"636 45 OFFCURVE",
"547 45 CURVE SMOOTH",
"514 45 OFFCURVE",
"481 62 OFFCURVE",
"481 101 CURVE SMOOTH"
);
}
);
width = 818;
}
);
unicode = 0DB6;
},
{
glyphname = "bha-sinhala";
lastChange = "2024-02-21 01:14:20 +0000";
layers = (
{
layerId = "25BA55F5-DD3E-4682-A696-ADF7D9496427";
name = Light;
paths = (
{
closed = 1;
nodes = (
"135 424 LINE",
"140 470 OFFCURVE",
"171 498 OFFCURVE",
"220 498 CURVE",
"295 498 OFFCURVE",
"316 439 OFFCURVE",
"316 380 CURVE",
"30 380 LINE",
"30 325 LINE",
"375 326 LINE",
"377 340 OFFCURVE",
"378 353 OFFCURVE",
"378 367 CURVE",
"378 462 OFFCURVE",
"336 553 OFFCURVE",
"219 553 CURVE SMOOTH",
"132 553 OFFCURVE",
"77 499 OFFCURVE",
"75 424 CURVE"
);
},
{
closed = 1;
nodes = (
"470 553 OFFCURVE",
"397 414 OFFCURVE",
"397 236 CURVE",
"451 236 LINE",
"448 328 OFFCURVE",
"478 498 OFFCURVE",
"634 498 CURVE",
"762 498 OFFCURVE",
"803 405 OFFCURVE",
"803 277 CURVE SMOOTH",
"803 175 OFFCURVE",
"768 71 OFFCURVE",
"720 0 CURVE",
"786 0 LINE",
"826 52 OFFCURVE",
"865 163 OFFCURVE",
"865 277 CURVE SMOOTH",
"865 421 OFFCURVE",
"809 553 OFFCURVE",
"635 553 CURVE"
);
},
{
closed = 1;
nodes = (
"544 -10 OFFCURVE",
"650 77 OFFCURVE",
"650 212 CURVE SMOOTH",
"650 290 OFFCURVE",
"606 352 OFFCURVE",
"534 352 CURVE SMOOTH",
"482 352 OFFCURVE",
"431 322 OFFCURVE",
"431 236 CURVE",
"460 236 LINE",
"460 270 OFFCURVE",
"486 297 OFFCURVE",
"522 297 CURVE SMOOTH",
"570 297 OFFCURVE",
"590 258 OFFCURVE",
"590 211 CURVE SMOOTH",
"590 111 OFFCURVE",
"520 45 OFFCURVE",
"357 45 CURVE",
"231 45 OFFCURVE",
"127 93 OFFCURVE",
"127 202 CURVE SMOOTH",
"127 278 OFFCURVE",
"172 326 OFFCURVE",
"239 326 CURVE",
"127 326 LINE",
"86 303 OFFCURVE",
"63 256 OFFCURVE",
"63 201 CURVE SMOOTH",
"63 61 OFFCURVE",
"197 -10 OFFCURVE",
"356 -10 CURVE"
);
}
);
width = 940;
}
);
unicode = 0DB7;
},
{
glyphname = "ma-sinhala";
lastChange = "2024-02-21 04:30:34 +0000";
layers = (
{
anchors = (
{
name = "u-sign-sinhala";
position = "{669, 189}";
}
);
layerId = "25BA55F5-DD3E-4682-A696-ADF7D9496427";
name = Light;
paths = (
{
closed = 1;
nodes = (
"55 105 OFFCURVE",
"196 -10 OFFCURVE",
"415 -10 CURVE SMOOTH",
"664 -10 OFFCURVE",
"765 182 OFFCURVE",
"765 361 CURVE SMOOTH",
"765 588 OFFCURVE",
"650 773 OFFCURVE",
"369 773 CURVE SMOOTH",
"280 773 OFFCURVE",
"180 750 OFFCURVE",
"110 720 CURVE",
"110 665 LINE",
"179 694 OFFCURVE",
"280 718 OFFCURVE",
"369 718 CURVE SMOOTH",
"593 718 OFFCURVE",
"705 586 OFFCURVE",
"705 362 CURVE SMOOTH",
"705 208 OFFCURVE",
"628 45 OFFCURVE",
"415 45 CURVE SMOOTH",
"221 45 OFFCURVE",
"115 154 OFFCURVE",
"115 309 CURVE SMOOTH",
"115 430 OFFCURVE",
"164 498 OFFCURVE",
"222 498 CURVE SMOOTH",
"242 498 OFFCURVE",
"251 487 OFFCURVE",
"251 470 CURVE SMOOTH",
"251 434 OFFCURVE",
"237 399 OFFCURVE",
"237 356 CURVE SMOOTH",
"237 246 OFFCURVE",
"317 180 OFFCURVE",
"426 180 CURVE SMOOTH",
"541 180 OFFCURVE",
"611 251 OFFCURVE",
"611 382 CURVE SMOOTH",
"611 480 OFFCURVE",
"560 554 OFFCURVE",
"475 554 CURVE SMOOTH",
"406 554 OFFCURVE",
"354 505 OFFCURVE",
"354 434 CURVE SMOOTH",
"354 357 OFFCURVE",
"404 314 OFFCURVE",
"470 314 CURVE SMOOTH",
"517 314 OFFCURVE",
"567 347 OFFCURVE",
"567 395 CURVE",
"555 425 LINE",
"558 405 OFFCURVE",
"560 394 OFFCURVE",
"560 385 CURVE SMOOTH",
"560 288 OFFCURVE",
"519 235 OFFCURVE",
"427 235 CURVE SMOOTH",
"347 235 OFFCURVE",
"297 278 OFFCURVE",
"297 357 CURVE SMOOTH",
"297 399 OFFCURVE",
"311 435 OFFCURVE",
"311 477 CURVE SMOOTH",
"311 520 OFFCURVE",
"285 553 OFFCURVE",
"228 553 CURVE SMOOTH",
"123 553 OFFCURVE",
"55 457 OFFCURVE",
"55 311 CURVE SMOOTH"
);
},
{
closed = 1;
nodes = (
"519 499 OFFCURVE",
"542 472 OFFCURVE",
"542 434 CURVE SMOOTH",
"542 396 OFFCURVE",
"519 369 OFFCURVE",
"476 369 CURVE SMOOTH",
"436 369 OFFCURVE",
"412 396 OFFCURVE",
"412 434 CURVE SMOOTH",
"412 472 OFFCURVE",
"436 499 OFFCURVE",
"476 499 CURVE SMOOTH"
);
}
);
width = 840;
}
);
unicode = 0DB8;
},
{
glyphname = "mba-sinhala";
lastChange = "2024-02-21 04:20:52 +0000";
layers = (
{
anchors = (
{
name = "u-sign-sinhala";
position = "{772, 189}";
}
);
layerId = "25BA55F5-DD3E-4682-A696-ADF7D9496427";
name = Light;
paths = (
{
closed = 1;
nodes = (
"557 499 OFFCURVE",
"580 472 OFFCURVE",
"580 434 CURVE SMOOTH",
"580 396 OFFCURVE",
"557 369 OFFCURVE",
"514 369 CURVE SMOOTH",
"474 369 OFFCURVE",
"450 396 OFFCURVE",
"450 434 CURVE SMOOTH",
"450 472 OFFCURVE",
"474 499 OFFCURVE",
"514 499 CURVE SMOOTH"
);
},
{
closed = 1;
nodes = (
"784 177 OFFCURVE",
"740 45 OFFCURVE",
"608 45 CURVE SMOOTH",
"553 45 OFFCURVE",
"531 53 OFFCURVE",
"507 64 CURVE",
"515 43 LINE",
"579 43 OFFCURVE",
"603 87 OFFCURVE",
"603 142 CURVE SMOOTH",
"603 224 OFFCURVE",
"537 271 OFFCURVE",
"444 271 CURVE",
"351 271 OFFCURVE",
"286 224 OFFCURVE",
"286 142 CURVE SMOOTH",
"286 83 OFFCURVE",
"316 47 OFFCURVE",
"380 43 CURVE",
"381 64 LINE",
"357 53 OFFCURVE",
"335 45 OFFCURVE",
"280 45 CURVE SMOOTH",
"168 45 OFFCURVE",
"130 152 OFFCURVE",
"130 278 CURVE",
"130 409 OFFCURVE",
"189 498 OFFCURVE",
"249 498 CURVE",
"274 498 OFFCURVE",
"284 483 OFFCURVE",
"284 458 CURVE SMOOTH",
"284 426 OFFCURVE",
"273 403 OFFCURVE",
"273 370 CURVE SMOOTH",
"273 280 OFFCURVE",
"343 225 OFFCURVE",
"462 225 CURVE SMOOTH",
"575 225 OFFCURVE",
"649 251 OFFCURVE",
"649 382 CURVE",
"649 480 OFFCURVE",
"598 554 OFFCURVE",
"513 554 CURVE SMOOTH",
"444 554 OFFCURVE",
"392 505 OFFCURVE",
"392 434 CURVE SMOOTH",
"392 357 OFFCURVE",
"442 314 OFFCURVE",
"508 314 CURVE SMOOTH",
"555 314 OFFCURVE",
"605 347 OFFCURVE",
"605 395 CURVE",
"593 425 LINE",
"596 405 OFFCURVE",
"598 394 OFFCURVE",
"598 385 CURVE SMOOTH",
"598 288 OFFCURVE",
"552 272 OFFCURVE",
"462 272 CURVE SMOOTH",
"372 272 OFFCURVE",
"333 312 OFFCURVE",
"333 371 CURVE SMOOTH",
"333 397 OFFCURVE",
"344 421 OFFCURVE",
"344 459 CURVE SMOOTH",
"344 516 OFFCURVE",
"315 553 OFFCURVE",
"257 553 CURVE",
"129 553 OFFCURVE",
"70 415 OFFCURVE",
"70 278 CURVE",
"70 121 OFFCURVE",
"135 -9 OFFCURVE",
"281 -9 CURVE SMOOTH",
"335 -9 OFFCURVE",
"381 0 OFFCURVE",
"416 18 CURVE",
"416 75 LINE",
"377 73 OFFCURVE",
"345 90 OFFCURVE",
"345 142 CURVE SMOOTH",
"345 185 OFFCURVE",
"381 221 OFFCURVE",
"445 221 CURVE",
"509 221 OFFCURVE",
"544 185 OFFCURVE",
"544 142 CURVE SMOOTH",
"544 90 OFFCURVE",
"511 73 OFFCURVE",
"472 75 CURVE",
"472 18 LINE",
"507 0 OFFCURVE",
"554 -10 OFFCURVE",
"608 -10 CURVE SMOOTH",
"784 -10 OFFCURVE",
"844 149 OFFCURVE",
"844 316 CURVE",
"844 563 OFFCURVE",
"728 773 OFFCURVE",
"407 773 CURVE",
"318 773 OFFCURVE",
"218 750 OFFCURVE",
"148 720 CURVE",
"148 665 LINE",
"217 694 OFFCURVE",
"318 718 OFFCURVE",
"407 718 CURVE",
"671 718 OFFCURVE",
"784 561 OFFCURVE",
"784 317 CURVE"
);
}
);
width = 914;
}
);
unicode = 0DB9;
},
{
glyphname = "ya-sinhala";
lastChange = "2024-02-21 04:19:41 +0000";
layers = (
{
layerId = "25BA55F5-DD3E-4682-A696-ADF7D9496427";
name = Light;
paths = (
{
closed = 1;
nodes = (
"655 304 OFFCURVE",
"575 391 OFFCURVE",
"458 391 CURVE",
"427 390 LINE",
"427 449 OFFCURVE",
"449 498 OFFCURVE",
"513 498 CURVE",
"562 498 OFFCURVE",
"588 471 OFFCURVE",
"588 426 CURVE",
"648 426 LINE",
"648 500 OFFCURVE",
"601 553 OFFCURVE",
"509 553 CURVE SMOOTH",
"403 553 OFFCURVE",
"363 481 OFFCURVE",
"363 386 CURVE",
"363 362 OFFCURVE",
"364 349 OFFCURVE",
"366 336 CURVE",
"439 336 LINE",
"547 336 OFFCURVE",
"595 274 OFFCURVE",
"595 190 CURVE",
"595 111 OFFCURVE",
"568 45 OFFCURVE",
"489 45 CURVE",
"420 45 OFFCURVE",
"392 94 OFFCURVE",
"392 142 CURVE",
"392 176 LINE",
"333 176 LINE",
"333 142 LINE",
"333 93 OFFCURVE",
"307 45 OFFCURVE",
"243 45 CURVE SMOOTH",
"171 45 OFFCURVE",
"125 106 OFFCURVE",
"125 201 CURVE",
"125 317 OFFCURVE",
"183 396 OFFCURVE",
"289 396 CURVE",
"289 452 LINE",
"127 452 OFFCURVE",
"65 333 OFFCURVE",
"65 200 CURVE",
"65 83 OFFCURVE",
"133 -10 OFFCURVE",
"242 -10 CURVE SMOOTH",
"308 -10 OFFCURVE",
"344 24 OFFCURVE",
"363 61 CURVE",
"378 27 OFFCURVE",
"413 -10 OFFCURVE",
"485 -10 CURVE",
"597 -10 OFFCURVE",
"655 79 OFFCURVE",
"655 189 CURVE"
);
}
);
width = 730;
}
);
unicode = 0DBA;
},
{
glyphname = "ra-sinhala";
lastChange = "2024-02-21 01:14:20 +0000";
layers = (
{
layerId = "25BA55F5-DD3E-4682-A696-ADF7D9496427";
name = Light;
paths = (
{
closed = 1;
nodes = (
"507 -10 OFFCURVE",
"623 95 OFFCURVE",
"623 271 CURVE SMOOTH",
"623 446 OFFCURVE",
"507 553 OFFCURVE",
"354 553 CURVE SMOOTH",
"200 553 OFFCURVE",
"80 446 OFFCURVE",
"80 271 CURVE SMOOTH",
"80 95 OFFCURVE",
"200 -10 OFFCURVE",
"354 -10 CURVE SMOOTH"
);
},
{
closed = 1;
nodes = (
"228 42 OFFCURVE",
"138 129 OFFCURVE",
"138 271 CURVE SMOOTH",
"138 412 OFFCURVE",
"228 501 OFFCURVE",
"354 501 CURVE SMOOTH",
"479 501 OFFCURVE",
"565 412 OFFCURVE",
"565 271 CURVE SMOOTH",
"565 129 OFFCURVE",
"479 42 OFFCURVE",
"354 42 CURVE SMOOTH"
);
},
{
closed = 1;
nodes = (
"399 558 OFFCURVE",
"519 660 OFFCURVE",
"566 755 CURVE",
"507 755 LINE",
"457 678 OFFCURVE",
"341 575 OFFCURVE",
"250 535 CURVE",
"307 520 LINE"
);
}
);
width = 688;
}
);
unicode = 0DBB;
},
{
glyphname = "la-sinhala";
lastChange = "2024-02-21 01:14:20 +0000";
layers = (
{
layerId = "25BA55F5-DD3E-4682-A696-ADF7D9496427";
name = Light;
paths = (
{
closed = 1;
nodes = (
"559 378 LINE",
"328 378 LINE",
"328 323 LINE",
"559 324 LINE"
);
},
{
closed = 1;
nodes = (
"671 -134 LINE",
"612 -159 OFFCURVE",
"535 -175 OFFCURVE",
"463 -175 CURVE",
"254 -175 OFFCURVE",
"135 -31 OFFCURVE",
"135 173 CURVE",
"135 365 OFFCURVE",
"240 498 OFFCURVE",
"417 498 CURVE SMOOTH",
"562 498 OFFCURVE",
"636 433 OFFCURVE",
"636 320 CURVE SMOOTH",
"636 231 OFFCURVE",
"593 179 OFFCURVE",
"523 179 CURVE",
"470 179 OFFCURVE",
"433 204 OFFCURVE",
"433 249 CURVE",
"433 306 OFFCURVE",
"477 324 OFFCURVE",
"529 324 CURVE",
"529 353 LINE",
"422 353 OFFCURVE",
"373 321 OFFCURVE",
"373 242 CURVE",
"373 167 OFFCURVE",
"438 124 OFFCURVE",
"521 124 CURVE",
"640 124 OFFCURVE",
"700 215 OFFCURVE",
"700 321 CURVE SMOOTH",
"700 465 OFFCURVE",
"586 553 OFFCURVE",
"418 553 CURVE SMOOTH",
"174 553 OFFCURVE",
"75 365 OFFCURVE",
"75 172 CURVE",
"75 -35 OFFCURVE",
"197 -230 OFFCURVE",
"463 -230 CURVE",
"535 -230 OFFCURVE",
"612 -215 OFFCURVE",
"671 -189 CURVE"
);
}
);
width = 765;
}
);
unicode = 0DBD;
},
{
glyphname = "va-sinhala";
lastChange = "2024-02-21 04:03:10 +0000";
layers = (
{
anchors = (
{
name = "u-sign-sinhala";
position = "{609, 297}";
}
);
layerId = "25BA55F5-DD3E-4682-A696-ADF7D9496427";
name = Light;
paths = (
{
closed = 1;
nodes = (
"125 380 OFFCURVE",
"49 305 OFFCURVE",
"49 201 CURVE SMOOTH",
"49 71 OFFCURVE",
"170 -10 OFFCURVE",
"326 -10 CURVE SMOOTH",
"571 -10 OFFCURVE",
"672 177 OFFCURVE",
"672 367 CURVE",
"672 573 OFFCURVE",
"587 773 OFFCURVE",
"302 773 CURVE",
"213 773 OFFCURVE",
"130 753 OFFCURVE",
"69 727 CURVE",
"69 672 LINE",
"129 697 OFFCURVE",
"213 718 OFFCURVE",
"302 718 CURVE",
"530 718 OFFCURVE",
"612 570 OFFCURVE",
"612 367 CURVE",
"612 178 OFFCURVE",
"505 45 OFFCURVE",
"327 45 CURVE SMOOTH",
"204 45 OFFCURVE",
"113 103 OFFCURVE",
"113 202 CURVE SMOOTH",
"113 278 OFFCURVE",
"158 326 OFFCURVE",
"265 326 CURVE",
"378 326 LINE",
"380 340 OFFCURVE",
"380 353 OFFCURVE",
"380 367 CURVE",
"380 462 OFFCURVE",
"337 553 OFFCURVE",
"211 553 CURVE SMOOTH",
"119 553 OFFCURVE",
"65 499 OFFCURVE",
"65 424 CURVE",
"125 424 LINE",
"128 471 OFFCURVE",
"159 498 OFFCURVE",
"212 498 CURVE",
"296 498 OFFCURVE",
"316 439 OFFCURVE",
"316 380 CURVE",
"246 380 LINE"
);
}
);
width = 750;
}
);
unicode = 0DC0;
},
{
glyphname = "sha-sinhala";
lastChange = "2024-02-21 01:14:20 +0000";
layers = (
{
layerId = "25BA55F5-DD3E-4682-A696-ADF7D9496427";
name = Light;
paths = (
{
closed = 1;
nodes = (
"393 553 OFFCURVE",
"288 447 OFFCURVE",
"288 276 CURVE SMOOTH",
"288 253 OFFCURVE",
"292 226 OFFCURVE",
"294 216 CURVE",
"346 216 LINE",
"343 231 OFFCURVE",
"341 250 OFFCURVE",
"341 277 CURVE SMOOTH",
"341 383 OFFCURVE",
"409 498 OFFCURVE",
"555 498 CURVE",
"693 498 OFFCURVE",
"761 413 OFFCURVE",
"761 277 CURVE SMOOTH",
"761 175 OFFCURVE",
"729 71 OFFCURVE",
"681 0 CURVE",
"744 0 LINE",
"781 52 OFFCURVE",
"823 163 OFFCURVE",
"823 277 CURVE SMOOTH",
"823 429 OFFCURVE",
"740 553 OFFCURVE",
"556 553 CURVE"
);
},
{
closed = 1;
nodes = (
"169 543 LINE",
"121 488 OFFCURVE",
"75 384 OFFCURVE",
"75 276 CURVE SMOOTH",
"75 122 OFFCURVE",
"160 -10 OFFCURVE",
"333 -10 CURVE",
"461 -10 OFFCURVE",
"541 72 OFFCURVE",
"541 197 CURVE SMOOTH",
"541 262 OFFCURVE",
"501 332 OFFCURVE",
"429 332 CURVE SMOOTH",
"377 332 OFFCURVE",
"326 303 OFFCURVE",
"326 217 CURVE",
"362 216 LINE",
"362 250 OFFCURVE",
"381 277 OFFCURVE",
"417 277 CURVE SMOOTH",
"460 277 OFFCURVE",
"481 243 OFFCURVE",
"481 196 CURVE SMOOTH",
"481 116 OFFCURVE",
"437 45 OFFCURVE",
"334 45 CURVE",
"207 45 OFFCURVE",
"137 138 OFFCURVE",
"137 276 CURVE SMOOTH",
"137 367 OFFCURVE",
"168 461 OFFCURVE",
"236 543 CURVE"
);
},
{
closed = 1;
nodes = (
"777 235 LINE",
"764 255 OFFCURVE",
"735 274 OFFCURVE",
"696 274 CURVE SMOOTH",
"639 274 OFFCURVE",
"582 237 OFFCURVE",
"582 164 CURVE SMOOTH",
"582 71 OFFCURVE",
"678 60 OFFCURVE",
"678 0 CURVE",
"705 0 LINE",
"712 16 OFFCURVE",
"715 25 OFFCURVE",
"715 36 CURVE SMOOTH",
"715 86 OFFCURVE",
"642 98 OFFCURVE",
"642 164 CURVE SMOOTH",
"642 199 OFFCURVE",
"668 219 OFFCURVE",
"702 219 CURVE SMOOTH",
"728 219 OFFCURVE",
"750 210 OFFCURVE",
"765 195 CURVE"
);
}
);
width = 898;
}
);
unicode = 0DC1;
},
{
glyphname = "ssa-sinhala";
lastChange = "2024-02-21 04:33:09 +0000";
layers = (
{
anchors = (
{
name = "u-sign-sinhala";
position = "{640, 189}";
}
);
layerId = "25BA55F5-DD3E-4682-A696-ADF7D9496427";
name = Light;
paths = (
{
closed = 1;
nodes = (
"564 -10 OFFCURVE",
"701 59 OFFCURVE",
"701 209 CURVE",
"701 324 OFFCURVE",
"621 391 OFFCURVE",
"504 391 CURVE",
"473 390 LINE",
"473 449 OFFCURVE",
"495 498 OFFCURVE",
"559 498 CURVE",
"608 498 OFFCURVE",
"634 471 OFFCURVE",
"634 426 CURVE SMOOTH",
"634 389 OFFCURVE",
"624 362 OFFCURVE",
"602 329 CURVE",
"649 308 LINE",
"677 329 OFFCURVE",
"694 379 OFFCURVE",
"694 425 CURVE",
"694 499 OFFCURVE",
"647 553 OFFCURVE",
"555 553 CURVE SMOOTH",
"449 553 OFFCURVE",
"409 481 OFFCURVE",
"409 386 CURVE",
"409 362 OFFCURVE",
"410 349 OFFCURVE",
"412 336 CURVE",
"485 336 LINE",
"592 336 OFFCURVE",
"641 294 OFFCURVE",
"641 210 CURVE",
"641 91 OFFCURVE",
"531 45 OFFCURVE",
"386 45 CURVE",
"251 45 OFFCURVE",
"108 85 OFFCURVE",
"108 210 CURVE",
"108 294 OFFCURVE",
"166 336 OFFCURVE",
"264 336 CURVE",
"344 336 LINE",
"346 349 OFFCURVE",
"347 362 OFFCURVE",
"347 386 CURVE",
"347 481 OFFCURVE",
"307 553 OFFCURVE",
"201 553 CURVE SMOOTH",
"116 553 OFFCURVE",
"68 499 OFFCURVE",
"68 434 CURVE",
"128 434 LINE",
"131 475 OFFCURVE",
"159 498 OFFCURVE",
"202 498 CURVE",
"266 498 OFFCURVE",
"283 449 OFFCURVE",
"283 390 CURVE",
"245 391 LINE",
"128 391 OFFCURVE",
"48 324 OFFCURVE",
"48 209 CURVE",
"48 53 OFFCURVE",
"218 -10 OFFCURVE",
"386 -10 CURVE"
);
},
{
closed = 1;
nodes = (
"462 95 OFFCURVE",
"519 138 OFFCURVE",
"519 202 CURVE SMOOTH",
"519 244 OFFCURVE",
"491 290 OFFCURVE",
"432 290 CURVE",
"328 290 LINE",
"267 290 OFFCURVE",
"239 259 OFFCURVE",
"239 203 CURVE SMOOTH",
"239 141 OFFCURVE",
"288 95 OFFCURVE",
"379 95 CURVE SMOOTH"
);
},
{
closed = 1;
nodes = (
"335 150 OFFCURVE",
"299 169 OFFCURVE",
"299 200 CURVE SMOOTH",
"299 227 OFFCURVE",
"313 237 OFFCURVE",
"344 237 CURVE",
"417 237 LINE",
"446 237 OFFCURVE",
"459 224 OFFCURVE",
"459 200 CURVE SMOOTH",
"459 167 OFFCURVE",
"423 150 OFFCURVE",
"379 150 CURVE SMOOTH"
);
},
{
closed = 1;
nodes = (
"545 290 OFFCURVE",
"517 290 OFFCURVE",
"424 290 CURVE",
"499 242 LINE",
"558 242 OFFCURVE",
"624 264 OFFCURVE",
"641 294 CURVE",
"597 322 LINE"
);
}
);
width = 756;
}
);
unicode = 0DC2;
},
{
glyphname = "sa-sinhala";
lastChange = "2024-02-21 04:33:21 +0000";
layers = (
{
anchors = (
{
name = "u-sign-sinhala";
position = "{652, 189}";
}
);
layerId = "25BA55F5-DD3E-4682-A696-ADF7D9496427";
name = Light;
paths = (
{
closed = 1;
nodes = (
"116 335 LINE",
"80 316 OFFCURVE",
"41 258 OFFCURVE",
"41 181 CURVE SMOOTH",
"41 70 OFFCURVE",
"113 -10 OFFCURVE",
"240 -10 CURVE",
"311 -10 OFFCURVE",
"364 27 OFFCURVE",
"383 64 CURVE",
"398 30 OFFCURVE",
"443 -10 OFFCURVE",
"520 -10 CURVE",
"632 -10 OFFCURVE",
"710 76 OFFCURVE",
"710 196 CURVE",
"710 311 OFFCURVE",
"630 391 OFFCURVE",
"513 391 CURVE",
"472 390 LINE",
"472 449 OFFCURVE",
"494 498 OFFCURVE",
"558 498 CURVE",
"607 498 OFFCURVE",
"633 470 OFFCURVE",
"633 425 CURVE",
"693 425 LINE",
"693 499 OFFCURVE",
"646 553 OFFCURVE",
"554 553 CURVE SMOOTH",
"448 553 OFFCURVE",
"408 481 OFFCURVE",
"408 386 CURVE",
"408 362 OFFCURVE",
"409 349 OFFCURVE",
"411 336 CURVE",
"494 336 LINE",
"602 336 OFFCURVE",
"650 281 OFFCURVE",
"650 197 CURVE",
"650 108 OFFCURVE",
"603 45 OFFCURVE",
"524 45 CURVE",
"448 45 OFFCURVE",
"412 91 OFFCURVE",
"412 149 CURVE",
"412 176 LINE",
"353 176 LINE",
"353 149 LINE",
"353 90 OFFCURVE",
"318 45 OFFCURVE",
"241 45 CURVE",
"155 45 OFFCURVE",
"101 95 OFFCURVE",
"101 182 CURVE SMOOTH",
"101 265 OFFCURVE",
"151 335 OFFCURVE",
"238 335 CURVE"
);
},
{
closed = 1;
nodes = (
"121 424 LINE",
"121 466 OFFCURVE",
"150 498 OFFCURVE",
"198 498 CURVE",
"269 498 OFFCURVE",
"286 448 OFFCURVE",
"286 389 CURVE",
"20 389 LINE",
"20 334 LINE",
"348 335 LINE",
"350 349 OFFCURVE",
"350 362 OFFCURVE",
"350 376 CURVE SMOOTH",
"350 471 OFFCURVE",
"310 553 OFFCURVE",
"197 553 CURVE SMOOTH",
"108 553 OFFCURVE",
"60 492 OFFCURVE",
"60 424 CURVE"
);
}
);
width = 754;
}
);
unicode = 0DC3;
},
{
glyphname = "ha-sinhala";
lastChange = "2024-02-21 01:14:20 +0000";
layers = (
{
layerId = "25BA55F5-DD3E-4682-A696-ADF7D9496427";
name = Light;
paths = (
{
closed = 1;
nodes = (
"468 553 OFFCURVE",
"395 414 OFFCURVE",
"395 236 CURVE",
"449 236 LINE",
"446 328 OFFCURVE",
"476 498 OFFCURVE",
"632 498 CURVE",
"760 498 OFFCURVE",
"801 405 OFFCURVE",
"801 277 CURVE SMOOTH",
"801 175 OFFCURVE",
"766 71 OFFCURVE",
"718 0 CURVE",
"784 0 LINE",
"824 52 OFFCURVE",
"863 163 OFFCURVE",
"863 277 CURVE SMOOTH",
"863 421 OFFCURVE",
"807 553 OFFCURVE",
"633 553 CURVE"
);
},
{
closed = 1;
nodes = (
"115 294 OFFCURVE",
"173 336 OFFCURVE",
"271 336 CURVE",
"350 336 LINE",
"352 349 OFFCURVE",
"353 362 OFFCURVE",
"353 386 CURVE",
"353 481 OFFCURVE",
"313 553 OFFCURVE",
"207 553 CURVE SMOOTH",
"123 553 OFFCURVE",
"75 497 OFFCURVE",
"75 432 CURVE",
"135 432 LINE",
"138 474 OFFCURVE",
"165 498 OFFCURVE",
"208 498 CURVE",
"272 498 OFFCURVE",
"289 449 OFFCURVE",
"289 390 CURVE",
"252 391 LINE",
"135 391 OFFCURVE",
"55 324 OFFCURVE",
"55 209 CURVE",
"55 59 OFFCURVE",
"198 -10 OFFCURVE",
"354 -10 CURVE",
"542 -10 OFFCURVE",
"648 77 OFFCURVE",
"648 212 CURVE SMOOTH",
"648 290 OFFCURVE",
"604 352 OFFCURVE",
"532 352 CURVE SMOOTH",
"480 352 OFFCURVE",
"429 322 OFFCURVE",
"429 236 CURVE",
"458 236 LINE",
"458 270 OFFCURVE",
"484 297 OFFCURVE",
"520 297 CURVE SMOOTH",
"568 297 OFFCURVE",
"588 258 OFFCURVE",
"588 211 CURVE SMOOTH",
"588 111 OFFCURVE",
"518 45 OFFCURVE",
"355 45 CURVE",
"232 45 OFFCURVE",
"115 91 OFFCURVE",
"115 210 CURVE"
);
}
);
width = 917;
}
);
unicode = 0DC4;
},
{
glyphname = "lla-sinhala";
lastChange = "2024-02-21 01:14:20 +0000";
layers = (
{
layerId = "25BA55F5-DD3E-4682-A696-ADF7D9496427";
name = Light;
paths = (
{
closed = 1;
nodes = (
"707 -110 LINE",
"636 -131 OFFCURVE",
"538 -149 OFFCURVE",
"439 -149 CURVE",
"245 -149 OFFCURVE",
"115 -85 OFFCURVE",
"115 69 CURVE",
"115 256 OFFCURVE",
"270 298 OFFCURVE",
"467 298 CURVE SMOOTH",
"548 298 OFFCURVE",
"619 294 OFFCURVE",
"698 290 CURVE",
"698 348 LINE",
"698 468 OFFCURVE",
"644 553 OFFCURVE",
"547 553 CURVE",
"489 553 OFFCURVE",
"446 531 OFFCURVE",
"425 473 CURVE",
"411 525 OFFCURVE",
"372 553 OFFCURVE",
"313 553 CURVE SMOOTH",
"187 553 OFFCURVE",
"145 454 OFFCURVE",
"145 335 CURVE",
"145 128 OFFCURVE",
"291 47 OFFCURVE",
"442 47 CURVE",
"529 47 OFFCURVE",
"602 62 OFFCURVE",
"661 79 CURVE",
"661 133 LINE",
"603 117 OFFCURVE",
"531 102 OFFCURVE",
"444 102 CURVE",
"300 102 OFFCURVE",
"205 171 OFFCURVE",
"205 335 CURVE",
"205 429 OFFCURVE",
"234 498 OFFCURVE",
"311 498 CURVE SMOOTH",
"372 498 OFFCURVE",
"396 451 OFFCURVE",
"396 392 CURVE",
"456 392 LINE",
"456 447 OFFCURVE",
"476 498 OFFCURVE",
"544 498 CURVE",
"619 498 OFFCURVE",
"638 422 OFFCURVE",
"638 347 CURVE",
"586 351 OFFCURVE",
"516 353 OFFCURVE",
"468 353 CURVE SMOOTH",
"233 353 OFFCURVE",
"55 287 OFFCURVE",
"55 68 CURVE",
"55 -129 OFFCURVE",
"228 -209 OFFCURVE",
"439 -209 CURVE",
"545 -209 OFFCURVE",
"638 -191 OFFCURVE",
"707 -172 CURVE"
);
}
);
width = 767;
}
);
unicode = 0DC5;
},
{
glyphname = "fa-sinhala";
lastChange = "2024-02-21 04:03:17 +0000";
layers = (
{
anchors = (
{
name = "u-sign-sinhala";
position = "{666, 297}";
}
);
layerId = "25BA55F5-DD3E-4682-A696-ADF7D9496427";
name = Light;
paths = (
{
closed = 1;
nodes = (
"143 548 OFFCURVE",
"70 444 OFFCURVE",
"70 287 CURVE",
"70 132 OFFCURVE",
"141 -10 OFFCURVE",
"302 -10 CURVE SMOOTH",
"320 -10 OFFCURVE",
"334 -8 OFFCURVE",
"354 -5 CURVE",
"354 50 LINE",
"340 48 OFFCURVE",
"327 47 OFFCURVE",
"314 47 CURVE SMOOTH",
"194 47 OFFCURVE",
"130 136 OFFCURVE",
"130 286 CURVE",
"130 421 OFFCURVE",
"181 493 OFFCURVE",
"269 493 CURVE SMOOTH",
"337 493 OFFCURVE",
"368 445 OFFCURVE",
"368 396 CURVE",
"368 342 LINE",
"427 342 LINE",
"427 396 LINE",
"427 445 OFFCURVE",
"458 493 OFFCURVE",
"526 493 CURVE SMOOTH",
"614 493 OFFCURVE",
"665 421 OFFCURVE",
"665 286 CURVE",
"665 136 OFFCURVE",
"601 47 OFFCURVE",
"481 47 CURVE SMOOTH",
"468 47 OFFCURVE",
"455 48 OFFCURVE",
"441 50 CURVE",
"441 -5 LINE",
"461 -8 OFFCURVE",
"475 -10 OFFCURVE",
"493 -10 CURVE SMOOTH",
"654 -10 OFFCURVE",
"725 132 OFFCURVE",
"725 287 CURVE",
"725 444 OFFCURVE",
"652 548 OFFCURVE",
"527 548 CURVE",
"454 548 OFFCURVE",
"414 509 OFFCURVE",
"398 480 CURVE",
"378 514 OFFCURVE",
"338 548 OFFCURVE",
"268 548 CURVE SMOOTH"
);
}
);
width = 795;
}
);
unicode = 0DC6;
},
{
glyphname = "rakar-sinhala";
lastChange = "2024-02-21 01:39:12 +0000";
layers = (
{
background = {
paths = (
{
closed = 1;
nodes = (
"-100 -200 OFFCURVE",
"-24 -115 OFFCURVE",
"-24 14 CURVE SMOOTH",
"-24 17 OFFCURVE",
"-24 20 OFFCURVE",
"-24 23 CURVE",
"-84 23 LINE",
"-84 20 OFFCURVE",
"-84 18 OFFCURVE",
"-84 15 CURVE SMOOTH",
"-84 -88 OFFCURVE",
"-130 -145 OFFCURVE",
"-227 -145 CURVE SMOOTH",
"-298 -145 OFFCURVE",
"-361 -114 OFFCURVE",
"-412 -58 CURVE",
"-412 -128 LINE",
"-370 -165 OFFCURVE",
"-308 -200 OFFCURVE",
"-227 -200 CURVE SMOOTH"
);
}
);
};
layerId = "25BA55F5-DD3E-4682-A696-ADF7D9496427";
name = Light;
paths = (
{
closed = 1;
nodes = (
"-110 210 LINE",
"-110 -19 OFFCURVE",
"-203 -144 OFFCURVE",
"-395 -144 CURVE SMOOTH",
"-493 -144 OFFCURVE",
"-577 -120 OFFCURVE",
"-655 -63 CURVE",
"-655 -128 LINE",
"-577 -178 OFFCURVE",
"-502 -199 OFFCURVE",
"-399 -199 CURVE SMOOTH",
"-150 -199 OFFCURVE",
"-60 -38 OFFCURVE",
"-60 210 CURVE"
);
}
);
width = 0;
},
{
associatedMasterId = "25BA55F5-DD3E-4682-A696-ADF7D9496427";
background = {
paths = (
{
closed = 1;
nodes = (
"-85 13 LINE",
"-85 -101 OFFCURVE",
"-125 -146 OFFCURVE",
"-234 -146 CURVE SMOOTH",
"-303 -146 OFFCURVE",
"-387 -100 OFFCURVE",
"-413 -68 CURVE",
"-413 -138 LINE",
"-387 -162 OFFCURVE",
"-324 -201 OFFCURVE",
"-234 -201 CURVE SMOOTH",
"-101 -201 OFFCURVE",
"-25 -140 OFFCURVE",
"-25 13 CURVE"
);
}
);
};
layerId = "343F5378-1228-4BD5-AF93-43DCB7249432";
name = "old version";
paths = (
{
closed = 1;
nodes = (
"-121 -201 OFFCURVE",
"-25 -151 OFFCURVE",
"-25 -38 CURVE SMOOTH",
"-25 20 OFFCURVE",
"-50 51 OFFCURVE",
"-75 74 CURVE",
"-116 39 LINE",
"-97 17 OFFCURVE",
"-85 -4 OFFCURVE",
"-85 -38 CURVE SMOOTH",
"-85 -112 OFFCURVE",
"-145 -146 OFFCURVE",
"-254 -146 CURVE SMOOTH",
"-363 -146 OFFCURVE",
"-432 -112 OFFCURVE",
"-432 -38 CURVE",
"-492 -38 LINE",
"-492 -151 OFFCURVE",
"-384 -201 OFFCURVE",
"-254 -201 CURVE SMOOTH"
);
}
);
width = 0;
},
{
associatedMasterId = "25BA55F5-DD3E-4682-A696-ADF7D9496427";
background = {
paths = (
{
closed = 1;
nodes = (
"-85 13 LINE",
"-85 -101 OFFCURVE",
"-125 -146 OFFCURVE",
"-234 -146 CURVE SMOOTH",
"-303 -146 OFFCURVE",
"-387 -100 OFFCURVE",
"-413 -68 CURVE",
"-413 -138 LINE",
"-387 -162 OFFCURVE",
"-324 -201 OFFCURVE",
"-234 -201 CURVE SMOOTH",
"-101 -201 OFFCURVE",
"-25 -140 OFFCURVE",
"-25 13 CURVE"
);
}
);
};
layerId = "42609B90-EF0A-4B3A-ADA2-D556A3F09AD6";
name = "Light Oct 7 15, 12:33 Oct 7 15, 12:35";
paths = (
{
closed = 1;
nodes = (
"-84 13 LINE",
"-84 -91 OFFCURVE",
"-134 -146 OFFCURVE",
"-235 -146 CURVE SMOOTH",
"-304 -146 OFFCURVE",
"-369 -120 OFFCURVE",
"-412 -68 CURVE",
"-412 -138 LINE",
"-368 -178 OFFCURVE",
"-306 -201 OFFCURVE",
"-231 -201 CURVE SMOOTH",
"-95 -201 OFFCURVE",
"-24 -125 OFFCURVE",
"-24 13 CURVE"
);
}
);
width = 0;
},
{
associatedMasterId = "25BA55F5-DD3E-4682-A696-ADF7D9496427";
background = {
paths = (
{
closed = 1;
nodes = (
"-85 13 LINE",
"-85 -101 OFFCURVE",
"-125 -146 OFFCURVE",
"-234 -146 CURVE SMOOTH",
"-303 -146 OFFCURVE",
"-387 -100 OFFCURVE",
"-413 -68 CURVE",
"-413 -138 LINE",
"-387 -162 OFFCURVE",
"-324 -201 OFFCURVE",
"-234 -201 CURVE SMOOTH",
"-101 -201 OFFCURVE",
"-25 -140 OFFCURVE",
"-25 13 CURVE"
);
}
);
};
layerId = "8423C133-10D9-4D71-8845-C9B407922A55";
name = "Light Oct 7 15, 13:37";
paths = (
{
closed = 1;
nodes = (
"-226 -202 CURVE SMOOTH",
"-96 -202 OFFCURVE",
"-23 -130 OFFCURVE",
"-23 0 CURVE SMOOTH",
"-23 13 LINE",
"-83 13 LINE",
"-83 3 LINE SMOOTH",
"-83 -93 OFFCURVE",
"-130 -147 OFFCURVE",
"-226 -147 CURVE SMOOTH",
"-294 -147 OFFCURVE",
"-345 -121 OFFCURVE",
"-412 -74 CURVE",
"-412 -142 LINE",
"-351 -183 OFFCURVE",
"-293 -202 OFFCURVE"
);
}
);
width = 0;
}
);
script = sinhala;
category = Mark;
subCategory = Nonspacing;
},
{
glyphname = "virama-sinhala";
lastChange = "2024-02-21 01:31:59 +0000";
layers = (
{
layerId = "25BA55F5-DD3E-4682-A696-ADF7D9496427";
name = Light;
paths = (
{
closed = 1;
nodes = (
"-187 510 LINE",
"-187 718 LINE",
"-187 743 OFFCURVE",
"-186 790 OFFCURVE",
"-198 812 CURVE",
"-210 781 LINE",
"-198 793 OFFCURVE",
"-171 806 OFFCURVE",
"-148 806 CURVE SMOOTH",
"-106 806 OFFCURVE",
"-88 779 OFFCURVE",
"-88 747 CURVE SMOOTH",
"-88 672 OFFCURVE",
"-159 664 OFFCURVE",
"-225 664 CURVE",
"-210 605 LINE SMOOTH",
"-108 605 OFFCURVE",
"-30 655 OFFCURVE",
"-30 745 CURVE SMOOTH",
"-30 810 OFFCURVE",
"-69 863 OFFCURVE",
"-144 863 CURVE SMOOTH",
"-183 863 OFFCURVE",
"-212 844 OFFCURVE",
"-230 820 CURVE",
"-201 820 LINE",
"-207 837 OFFCURVE",
"-213 849 OFFCURVE",
"-223 860 CURVE",
"-284 860 LINE",
"-250 816 OFFCURVE",
"-244 773 OFFCURVE",
"-244 718 CURVE SMOOTH",
"-244 510 LINE"
);
}
);
width = 0;
}
);
unicode = 0DCA;
},
{
glyphname = "kunddaliya-sinhala";
lastChange = "2024-02-21 03:28:46 +0000";
layers = (
{
background = {
paths = (
{
closed = 1;
nodes = (
"311 49 LINE",
"310 58 OFFCURVE",
"306 73 OFFCURVE",
"296 115 CURVE",
"260 44 OFFCURVE",
"213 7 OFFCURVE",
"146 7 CURVE SMOOTH",
"63 7 OFFCURVE",
"20 67 OFFCURVE",
"20 148 CURVE",
"123 148 LINE",
"130 121 OFFCURVE",
"141 107 OFFCURVE",
"161 107 CURVE SMOOTH",
"217 107 OFFCURVE",
"245 182 OFFCURVE",
"279 272 CURVE",
"339 272 LINE",
"342 246 OFFCURVE",
"346 226 OFFCURVE",
"351 208 CURVE",
"371 263 OFFCURVE",
"397 324 OFFCURVE",
"427 387 CURVE",
"489 387 LINE",
"491 357 OFFCURVE",
"498 319 OFFCURVE",
"508 267 CURVE",
"542 340 OFFCURVE",
"574 399 OFFCURVE",
"603 440 CURVE",
"666 440 LINE",
"667 422 OFFCURVE",
"668 402 OFFCURVE",
"669 374 CURVE SMOOTH",
"674 287 LINE",
"715 346 OFFCURVE",
"737 374 OFFCURVE",
"770 414 CURVE",
"832 414 LINE",
"828 354 OFFCURVE",
"823 296 OFFCURVE",
"818 233 CURVE",
"852 267 OFFCURVE",
"872 288 OFFCURVE",
"897 313 CURVE",
"949 313 LINE",
"939 252 OFFCURVE",
"933 205 OFFCURVE",
"927 163 CURVE",
"949 182 OFFCURVE",
"955 190 OFFCURVE",
"974 211 CURVE",
"1021 211 LINE",
"1021 164 OFFCURVE",
"1038 100 OFFCURVE",
"1073 100 CURVE SMOOTH",
"1091 100 OFFCURVE",
"1100 112 OFFCURVE",
"1100 137 CURVE SMOOTH",
"1100 144 OFFCURVE",
"1099 150 OFFCURVE",
"1097 163 CURVE",
"1195 163 LINE",
"1199 157 OFFCURVE",
"1200 139 OFFCURVE",
"1200 119 CURVE SMOOTH",
"1200 44 OFFCURVE",
"1161 2 OFFCURVE",
"1085 2 CURVE SMOOTH",
"1014 2 OFFCURVE",
"971 34 OFFCURVE",
"956 99 CURVE",
"929 71 OFFCURVE",
"921 63 OFFCURVE",
"894 35 CURVE",
"836 35 LINE",
"845 101 OFFCURVE",
"853 128 OFFCURVE",
"860 172 CURVE",
"832 146 OFFCURVE",
"819 128 OFFCURVE",
"785 94 CURVE",
"734 94 LINE",
"737 248 LINE",
"708 207 OFFCURVE",
"681 165 OFFCURVE",
"657 129 CURVE",
"603 129 LINE",
"593 264 LINE",
"559 193 OFFCURVE",
"536 135 OFFCURVE",
"521 98 CURVE",
"458 98 LINE",
"449 148 OFFCURVE",
"440 183 OFFCURVE",
"433 211 CURVE",
"417 175 OFFCURVE",
"394 119 OFFCURVE",
"365 49 CURVE"
);
}
);
};
layerId = "25BA55F5-DD3E-4682-A696-ADF7D9496427";
name = Light;
paths = (
{
closed = 1;
nodes = (
"1101 1 OFFCURVE",
"1115 56 OFFCURVE",
"1115 110 CURVE SMOOTH",
"1115 125 OFFCURVE",
"1114 136 OFFCURVE",
"1111 147 CURVE",
"1072 147 LINE",
"1074 136 OFFCURVE",
"1074 130 OFFCURVE",
"1074 124 CURVE SMOOTH",
"1074 97 OFFCURVE",
"1069 50 OFFCURVE",
"1035 50 CURVE SMOOTH",
"983 50 OFFCURVE",
"978 129 OFFCURVE",
"963 191 CURVE",
"940 191 LINE",
"923 166 OFFCURVE",
"910 147 OFFCURVE",
"886 112 CURVE",
"899 178 OFFCURVE",
"908 228 OFFCURVE",
"917 283 CURVE",
"870 283 LINE",
"848 257 OFFCURVE",
"801 201 OFFCURVE",
"775 170 CURVE",
"786 226 OFFCURVE",
"800 297 OFFCURVE",
"811 375 CURVE",
"755 375 LINE",
"724 319 OFFCURVE",
"691 259 OFFCURVE",
"661 206 CURVE",
"661 399 LINE",
"604 399 LINE",
"563 297 OFFCURVE",
"529 214 OFFCURVE",
"502 148 CURVE",
"493 195 OFFCURVE",
"486 268 OFFCURVE",
"470 351 CURVE",
"430 350 LINE",
"403 271 OFFCURVE",
"372 191 OFFCURVE",
"354 141 CURVE",
"350 158 OFFCURVE",
"337 223 OFFCURVE",
"334 246 CURVE",
"300 246 LINE",
"272 173 OFFCURVE",
"254 94 OFFCURVE",
"205 94 CURVE SMOOTH",
"184 94 OFFCURVE",
"167 109 OFFCURVE",
"168 134 CURVE",
"125 134 LINE",
"125 70 OFFCURVE",
"163 44 OFFCURVE",
"200 44 CURVE SMOOTH",
"245 44 OFFCURVE",
"288 79 OFFCURVE",
"311 158 CURVE",
"317 114 OFFCURVE",
"320 89 OFFCURVE",
"329 44 CURVE",
"358 44 LINE",
"378 93 OFFCURVE",
"421 201 OFFCURVE",
"441 250 CURVE",
"448 225 OFFCURVE",
"466 134 OFFCURVE",
"474 88 CURVE",
"525 88 LINE",
"544 130 OFFCURVE",
"591 247 OFFCURVE",
"620 311 CURVE",
"620 225 OFFCURVE",
"619 178 OFFCURVE",
"619 117 CURVE",
"655 117 LINE",
"708 207 OFFCURVE",
"726 240 OFFCURVE",
"758 298 CURVE",
"748 242 OFFCURVE",
"735 160 OFFCURVE",
"722 85 CURVE",
"757 85 LINE",
"812 153 OFFCURVE",
"828 173 OFFCURVE",
"871 228 CURVE",
"864 188 OFFCURVE",
"846 91 OFFCURVE",
"835 31 CURVE",
"874 31 LINE",
"900 68 OFFCURVE",
"922 102 OFFCURVE",
"944 133 CURVE",
"960 38 OFFCURVE",
"983 1 OFFCURVE",
"1041 1 CURVE SMOOTH"
);
}
);
width = 1220;
}
);
unicode = 0DF4;
script = sinhala;
category = Punctuation;
},
{
glyphname = "k_ssa-sinhala";
lastChange = "2024-02-24 01:37:04 +0000";
layers = (
{
layerId = "25BA55F5-DD3E-4682-A696-ADF7D9496427";
name = Light;
paths = (
{
closed = 1;
nodes = (
"295 493 OFFCURVE",
"250 553 OFFCURVE",
"164 553 CURVE SMOOTH",
"76 553 OFFCURVE",
"34 494 OFFCURVE",
"34 429 CURVE",
"94 429 LINE",
"95 466 OFFCURVE",
"113 498 OFFCURVE",
"169 498 CURVE",
"218 498 OFFCURVE",
"244 466 OFFCURVE",
"244 422 CURVE SMOOTH",
"244 377 OFFCURVE",
"226 331 OFFCURVE",
"189 261 CURVE",
"274 348 LINE",
"284 374 OFFCURVE",
"295 404 OFFCURVE",
"295 425 CURVE"
);
},
{
closed = 1;
nodes = (
"408 553 OFFCURVE",
"320 477 OFFCURVE",
"268 373 CURVE",
"197 275 LINE SMOOTH",
"27 0 LINE",
"89 0 LINE",
"234 247 OFFCURVE",
"300 321 OFFCURVE",
"452 321 CURVE",
"554 321 OFFCURVE",
"622 267 OFFCURVE",
"622 168 CURVE SMOOTH",
"622 102 OFFCURVE",
"606 45 OFFCURVE",
"548 45 CURVE SMOOTH",
"499 45 OFFCURVE",
"474 99 OFFCURVE",
"474 163 CURVE SMOOTH",
"474 181 LINE",
"414 181 LINE",
"414 164 LINE SMOOTH",
"414 108 OFFCURVE",
"403 45 OFFCURVE",
"347 45 CURVE SMOOTH",
"287 45 OFFCURVE",
"261 139 OFFCURVE",
"207 139 CURVE SMOOTH",
"163 139 OFFCURVE",
"153 111 OFFCURVE",
"118 69 CURVE",
"89 0 LINE",
"109 43 OFFCURVE",
"143 86 OFFCURVE",
"183 86 CURVE SMOOTH",
"239 86 OFFCURVE",
"255 -10 OFFCURVE",
"346 -10 CURVE SMOOTH",
"400 -10 OFFCURVE",
"428 25 OFFCURVE",
"444 83 CURVE",
"455 28 OFFCURVE",
"494 -10 OFFCURVE",
"551 -10 CURVE SMOOTH",
"644 -10 OFFCURVE",
"681 79 OFFCURVE",
"681 167 CURVE SMOOTH",
"681 291 OFFCURVE",
"585 375 OFFCURVE",
"457 375 CURVE",
"332 375 OFFCURVE",
"285 333 OFFCURVE",
"213 249 CURVE",
"234 261 LINE",
"332 400 OFFCURVE",
"402 498 OFFCURVE",
"540 498 CURVE",
"607 498 OFFCURVE",
"655 468 OFFCURVE",
"679 434 CURVE",
"715 473 LINE",
"681 523 OFFCURVE",
"614 553 OFFCURVE",
"540 553 CURVE"
);
},
{
closed = 1;
nodes = (
"1181 -10 OFFCURVE",
"1318 59 OFFCURVE",
"1318 209 CURVE",
"1318 324 OFFCURVE",
"1238 391 OFFCURVE",
"1121 391 CURVE",
"1090 390 LINE",
"1090 449 OFFCURVE",
"1112 498 OFFCURVE",
"1176 498 CURVE",
"1225 498 OFFCURVE",
"1251 471 OFFCURVE",
"1251 426 CURVE SMOOTH",
"1251 389 OFFCURVE",
"1241 362 OFFCURVE",
"1219 329 CURVE",
"1266 308 LINE",
"1294 329 OFFCURVE",
"1311 379 OFFCURVE",
"1311 425 CURVE",
"1311 499 OFFCURVE",
"1264 553 OFFCURVE",
"1172 553 CURVE SMOOTH",
"1066 553 OFFCURVE",
"1026 481 OFFCURVE",
"1026 386 CURVE",
"1026 362 OFFCURVE",
"1027 349 OFFCURVE",
"1029 336 CURVE",
"1102 336 LINE",
"1209 336 OFFCURVE",
"1258 294 OFFCURVE",
"1258 210 CURVE",
"1258 91 OFFCURVE",
"1148 45 OFFCURVE",
"1003 45 CURVE",
"868 45 OFFCURVE",
"732 91 OFFCURVE",
"732 210 CURVE",
"732 294 OFFCURVE",
"790 336 OFFCURVE",
"888 336 CURVE",
"961 336 LINE",
"963 349 OFFCURVE",
"964 362 OFFCURVE",
"964 386 CURVE",
"964 481 OFFCURVE",
"924 553 OFFCURVE",
"818 553 CURVE SMOOTH",
"726 553 OFFCURVE",
"679 499 OFFCURVE",
"679 434 CURVE",
"739 434 LINE",
"742 481 OFFCURVE",
"776 498 OFFCURVE",
"819 498 CURVE",
"883 498 OFFCURVE",
"900 449 OFFCURVE",
"900 390 CURVE",
"869 391 LINE",
"752 391 OFFCURVE",
"672 324 OFFCURVE",
"672 209 CURVE",
"672 59 OFFCURVE",
"835 -10 OFFCURVE",
"1003 -10 CURVE"
);
},
{
closed = 1;
nodes = (
"1079 95 OFFCURVE",
"1136 138 OFFCURVE",
"1136 202 CURVE SMOOTH",
"1136 244 OFFCURVE",
"1108 290 OFFCURVE",
"1049 290 CURVE",
"945 290 LINE",
"884 290 OFFCURVE",
"856 259 OFFCURVE",
"856 203 CURVE SMOOTH",
"856 141 OFFCURVE",
"905 95 OFFCURVE",
"996 95 CURVE SMOOTH"
);
},
{
closed = 1;
nodes = (
"952 150 OFFCURVE",
"916 169 OFFCURVE",
"916 200 CURVE SMOOTH",
"916 227 OFFCURVE",
"930 237 OFFCURVE",
"961 237 CURVE",
"1034 237 LINE",
"1063 237 OFFCURVE",
"1076 224 OFFCURVE",
"1076 200 CURVE SMOOTH",
"1076 167 OFFCURVE",
"1040 150 OFFCURVE",
"996 150 CURVE SMOOTH"
);
},
{
closed = 1;
nodes = (
"1162 290 OFFCURVE",
"1134 290 OFFCURVE",
"1041 290 CURVE",
"1116 242 LINE",
"1175 242 OFFCURVE",
"1241 264 OFFCURVE",
"1258 294 CURVE",
"1214 322 LINE"
);
}
);
width = 1383;
},
{
associatedMasterId = "25BA55F5-DD3E-4682-A696-ADF7D9496427";
layerId = "5B61A7A4-2D88-442C-A6DF-91D6E2B012C7";
name = "24 Feb 24 at 07:07";
paths = (
{
closed = 1;
nodes = (
"295 493 OFFCURVE",
"250 553 OFFCURVE",
"164 553 CURVE SMOOTH",
"76 553 OFFCURVE",
"34 494 OFFCURVE",
"34 429 CURVE",
"94 429 LINE",
"95 466 OFFCURVE",
"113 498 OFFCURVE",
"169 498 CURVE",
"218 498 OFFCURVE",
"244 466 OFFCURVE",
"244 422 CURVE SMOOTH",
"244 377 OFFCURVE",
"226 331 OFFCURVE",
"189 261 CURVE",
"274 348 LINE",
"284 374 OFFCURVE",
"295 404 OFFCURVE",
"295 425 CURVE"
);
},
{
closed = 1;
nodes = (
"408 553 OFFCURVE",
"320 477 OFFCURVE",
"268 373 CURVE",
"197 275 LINE SMOOTH",
"27 0 LINE",
"89 0 LINE",
"234 247 OFFCURVE",
"300 321 OFFCURVE",
"452 321 CURVE",
"554 321 OFFCURVE",
"622 267 OFFCURVE",
"622 168 CURVE SMOOTH",
"622 102 OFFCURVE",
"606 45 OFFCURVE",
"548 45 CURVE SMOOTH",
"499 45 OFFCURVE",
"474 99 OFFCURVE",
"474 163 CURVE SMOOTH",
"474 181 LINE",
"414 181 LINE",
"414 164 LINE SMOOTH",
"414 108 OFFCURVE",
"403 45 OFFCURVE",
"347 45 CURVE SMOOTH",
"287 45 OFFCURVE",
"261 139 OFFCURVE",
"207 139 CURVE SMOOTH",
"163 139 OFFCURVE",
"153 111 OFFCURVE",
"118 69 CURVE",
"89 0 LINE",
"109 43 OFFCURVE",
"143 86 OFFCURVE",
"183 86 CURVE SMOOTH",
"239 86 OFFCURVE",
"255 -10 OFFCURVE",
"346 -10 CURVE SMOOTH",
"400 -10 OFFCURVE",
"428 25 OFFCURVE",
"444 83 CURVE",
"455 28 OFFCURVE",
"494 -10 OFFCURVE",
"551 -10 CURVE SMOOTH",
"644 -10 OFFCURVE",
"681 79 OFFCURVE",
"681 167 CURVE SMOOTH",
"681 291 OFFCURVE",
"585 375 OFFCURVE",
"457 375 CURVE",
"332 375 OFFCURVE",
"285 333 OFFCURVE",
"213 249 CURVE",
"234 261 LINE",
"332 400 OFFCURVE",
"402 498 OFFCURVE",
"540 498 CURVE",
"607 498 OFFCURVE",
"655 468 OFFCURVE",
"679 434 CURVE",
"715 473 LINE",
"681 523 OFFCURVE",
"614 553 OFFCURVE",
"540 553 CURVE"
);
},
{
closed = 1;
nodes = (
"1181 -10 OFFCURVE",
"1318 59 OFFCURVE",
"1318 209 CURVE",
"1318 324 OFFCURVE",
"1238 391 OFFCURVE",
"1121 391 CURVE",
"1090 390 LINE",
"1090 449 OFFCURVE",
"1112 498 OFFCURVE",
"1176 498 CURVE",
"1225 498 OFFCURVE",
"1251 471 OFFCURVE",
"1251 426 CURVE SMOOTH",
"1251 389 OFFCURVE",
"1241 362 OFFCURVE",
"1219 329 CURVE",
"1266 308 LINE",
"1294 329 OFFCURVE",
"1311 379 OFFCURVE",
"1311 425 CURVE",
"1311 499 OFFCURVE",
"1264 553 OFFCURVE",
"1172 553 CURVE SMOOTH",
"1066 553 OFFCURVE",
"1026 481 OFFCURVE",
"1026 386 CURVE",
"1026 362 OFFCURVE",
"1027 349 OFFCURVE",
"1029 336 CURVE",
"1102 336 LINE",
"1209 336 OFFCURVE",
"1258 294 OFFCURVE",
"1258 210 CURVE",
"1258 91 OFFCURVE",
"1148 45 OFFCURVE",
"1003 45 CURVE",
"868 45 OFFCURVE",
"732 91 OFFCURVE",
"732 210 CURVE",
"732 294 OFFCURVE",
"790 336 OFFCURVE",
"888 336 CURVE",
"961 336 LINE",
"963 349 OFFCURVE",
"964 362 OFFCURVE",
"964 386 CURVE",
"964 481 OFFCURVE",
"924 553 OFFCURVE",
"818 553 CURVE SMOOTH",
"726 553 OFFCURVE",
"679 499 OFFCURVE",
"679 434 CURVE",
"739 434 LINE",
"742 481 OFFCURVE",
"776 498 OFFCURVE",
"819 498 CURVE",
"883 498 OFFCURVE",
"900 449 OFFCURVE",
"900 390 CURVE",
"869 391 LINE",
"752 391 OFFCURVE",
"672 324 OFFCURVE",
"672 209 CURVE",
"672 59 OFFCURVE",
"835 -10 OFFCURVE",
"1003 -10 CURVE"
);
},
{
closed = 1;
nodes = (
"1079 95 OFFCURVE",
"1136 138 OFFCURVE",
"1136 202 CURVE SMOOTH",
"1136 244 OFFCURVE",
"1108 290 OFFCURVE",
"1049 290 CURVE",
"945 290 LINE",
"884 290 OFFCURVE",
"856 259 OFFCURVE",
"856 203 CURVE SMOOTH",
"856 141 OFFCURVE",
"905 95 OFFCURVE",
"996 95 CURVE SMOOTH"
);
},
{
closed = 1;
nodes = (
"952 150 OFFCURVE",
"916 169 OFFCURVE",
"916 200 CURVE SMOOTH",
"916 227 OFFCURVE",
"930 237 OFFCURVE",
"961 237 CURVE",
"1034 237 LINE",
"1063 237 OFFCURVE",
"1076 224 OFFCURVE",
"1076 200 CURVE SMOOTH",
"1076 167 OFFCURVE",
"1040 150 OFFCURVE",
"996 150 CURVE SMOOTH"
);
},
{
closed = 1;
nodes = (
"1162 290 OFFCURVE",
"1134 290 OFFCURVE",
"1041 290 CURVE",
"1116 242 LINE",
"1175 242 OFFCURVE",
"1241 264 OFFCURVE",
"1258 294 CURVE",
"1214 322 LINE"
);
}
);
width = 1383;
}
);
},
{
glyphname = "kh-sinhala";
lastChange = "2024-02-21 03:15:11 +0000";
layers = (
{
background = {
paths = (
{
closed = 1;
nodes = (
"178 44 OFFCURVE",
"149 74 OFFCURVE",
"149 120 CURVE SMOOTH",
"149 167 OFFCURVE",
"177 199 OFFCURVE",
"223 199 CURVE SMOOTH",
"268 199 OFFCURVE",
"295 169 OFFCURVE",
"295 122 CURVE SMOOTH",
"295 76 OFFCURVE",
"269 44 OFFCURVE",
"224 44 CURVE SMOOTH"
);
},
{
closed = 1;
nodes = (
"763 546 OFFCURVE",
"658 773 OFFCURVE",
"347 773 CURVE",
"258 773 OFFCURVE",
"149 747 OFFCURVE",
"88 710 CURVE",
"88 655 LINE",
"148 691 OFFCURVE",
"258 718 OFFCURVE",
"347 718 CURVE",
"601 718 OFFCURVE",
"703 544 OFFCURVE",
"703 320 CURVE",
"703 178 OFFCURVE",
"685 45 OFFCURVE",
"586 45 CURVE SMOOTH",
"539 45 OFFCURVE",
"507 76 OFFCURVE",
"493 106 CURVE",
"465 63 LINE",
"484 30 OFFCURVE",
"523 -10 OFFCURVE",
"586 -10 CURVE SMOOTH",
"731 -10 OFFCURVE",
"763 152 OFFCURVE",
"763 319 CURVE"
);
},
{
closed = 1;
nodes = (
"50 102 OFFCURVE",
"110 -10 OFFCURVE",
"225 -10 CURVE SMOOTH",
"296 -10 OFFCURVE",
"349 42 OFFCURVE",
"349 123 CURVE SMOOTH",
"349 202 OFFCURVE",
"303 253 OFFCURVE",
"229 253 CURVE SMOOTH",
"167 253 OFFCURVE",
"114 213 OFFCURVE",
"114 134 CURVE",
"130 129 LINE",
"126 144 OFFCURVE",
"108 167 OFFCURVE",
"108 224 CURVE SMOOTH",
"108 320 OFFCURVE",
"156 427 OFFCURVE",
"288 427 CURVE",
"409 427 OFFCURVE",
"461 340 OFFCURVE",
"461 222 CURVE SMOOTH",
"461 132 OFFCURVE",
"425 50 OFFCURVE",
"398 0 CURVE",
"462 0 LINE",
"497 60 OFFCURVE",
"521 147 OFFCURVE",
"521 222 CURVE SMOOTH",
"521 356 OFFCURVE",
"456 482 OFFCURVE",
"289 482 CURVE",
"140 482 OFFCURVE",
"50 374 OFFCURVE",
"50 223 CURVE SMOOTH"
);
}
);
};
layerId = "25BA55F5-DD3E-4682-A696-ADF7D9496427";
name = Light;
paths = (
{
closed = 1;
nodes = (
"731 -10 OFFCURVE",
"763 152 OFFCURVE",
"763 319 CURVE",
"763 611 OFFCURVE",
"623 823 OFFCURVE",
"375 823 CURVE",
"269 823 OFFCURVE",
"190 784 OFFCURVE",
"184 699 CURVE SMOOTH",
"183 680 OFFCURVE",
"187 665 OFFCURVE",
"194 643 CURVE",
"245 669 LINE",
"241 677 OFFCURVE",
"239 687 OFFCURVE",
"239 698 CURVE SMOOTH",
"239 745 OFFCURVE",
"288 769 OFFCURVE",
"375 769 CURVE",
"537 769 OFFCURVE",
"649 656 OFFCURVE",
"679 534 CURVE",
"681 538 LINE",
"636 637 OFFCURVE",
"503 703 OFFCURVE",
"349 703 CURVE",
"260 703 OFFCURVE",
"160 680 OFFCURVE",
"90 650 CURVE",
"90 595 LINE",
"159 624 OFFCURVE",
"260 648 OFFCURVE",
"349 648 CURVE",
"563 648 OFFCURVE",
"703 534 OFFCURVE",
"703 320 CURVE",
"703 178 OFFCURVE",
"685 45 OFFCURVE",
"586 45 CURVE SMOOTH",
"539 45 OFFCURVE",
"507 76 OFFCURVE",
"493 106 CURVE",
"465 63 LINE",
"484 30 OFFCURVE",
"523 -10 OFFCURVE",
"586 -10 CURVE SMOOTH"
);
},
{
closed = 1;
nodes = (
"178 44 OFFCURVE",
"149 74 OFFCURVE",
"149 120 CURVE SMOOTH",
"149 167 OFFCURVE",
"177 199 OFFCURVE",
"223 199 CURVE SMOOTH",
"268 199 OFFCURVE",
"295 169 OFFCURVE",
"295 122 CURVE SMOOTH",
"295 76 OFFCURVE",
"269 44 OFFCURVE",
"224 44 CURVE SMOOTH"
);
},
{
closed = 1;
nodes = (
"296 -10 OFFCURVE",
"349 42 OFFCURVE",
"349 123 CURVE SMOOTH",
"349 202 OFFCURVE",
"303 253 OFFCURVE",
"229 253 CURVE SMOOTH",
"167 253 OFFCURVE",
"114 213 OFFCURVE",
"114 134 CURVE",
"130 129 LINE",
"126 144 OFFCURVE",
"108 167 OFFCURVE",
"108 224 CURVE SMOOTH",
"108 320 OFFCURVE",
"156 427 OFFCURVE",
"288 427 CURVE",
"409 427 OFFCURVE",
"461 340 OFFCURVE",
"461 222 CURVE SMOOTH",
"461 132 OFFCURVE",
"425 50 OFFCURVE",
"398 0 CURVE",
"462 0 LINE",
"497 60 OFFCURVE",
"521 147 OFFCURVE",
"521 222 CURVE SMOOTH",
"521 356 OFFCURVE",
"456 482 OFFCURVE",
"289 482 CURVE",
"140 482 OFFCURVE",
"50 374 OFFCURVE",
"50 223 CURVE SMOOTH",
"50 102 OFFCURVE",
"110 -10 OFFCURVE",
"225 -10 CURVE SMOOTH"
);
}
);
width = 838;
}
);
},
{
glyphname = "ng-sinhala";
lastChange = "2024-02-21 03:15:21 +0000";
layers = (
{
layerId = "25BA55F5-DD3E-4682-A696-ADF7D9496427";
name = Light;
paths = (
{
closed = 1;
nodes = (
"298 -10 OFFCURVE",
"341 19 OFFCURVE",
"361 58 CURVE",
"377 29 OFFCURVE",
"417 -10 OFFCURVE",
"479 -10 CURVE SMOOTH",
"634 -10 OFFCURVE",
"683 165 OFFCURVE",
"683 332 CURVE",
"683 624 OFFCURVE",
"561 823 OFFCURVE",
"313 823 CURVE",
"207 823 OFFCURVE",
"128 784 OFFCURVE",
"122 699 CURVE SMOOTH",
"121 680 OFFCURVE",
"125 665 OFFCURVE",
"132 643 CURVE",
"183 669 LINE",
"179 677 OFFCURVE",
"177 687 OFFCURVE",
"177 698 CURVE SMOOTH",
"177 745 OFFCURVE",
"226 769 OFFCURVE",
"313 769 CURVE",
"475 769 OFFCURVE",
"579 656 OFFCURVE",
"609 534 CURVE",
"611 538 LINE",
"566 637 OFFCURVE",
"441 703 OFFCURVE",
"287 703 CURVE",
"212 703 OFFCURVE",
"128 687 OFFCURVE",
"62 663 CURVE",
"62 608 LINE",
"128 631 OFFCURVE",
"212 648 OFFCURVE",
"287 648 CURVE",
"501 648 OFFCURVE",
"623 547 OFFCURVE",
"623 333 CURVE",
"623 191 OFFCURVE",
"590 45 OFFCURVE",
"483 45 CURVE SMOOTH",
"414 45 OFFCURVE",
"390 94 OFFCURVE",
"390 142 CURVE",
"390 156 LINE",
"331 156 LINE",
"331 142 LINE",
"331 94 OFFCURVE",
"301 45 OFFCURVE",
"235 45 CURVE SMOOTH",
"163 45 OFFCURVE",
"125 97 OFFCURVE",
"125 163 CURVE SMOOTH",
"125 245 OFFCURVE",
"175 276 OFFCURVE",
"283 276 CURVE",
"389 276 LINE",
"391 289 OFFCURVE",
"393 320 OFFCURVE",
"393 344 CURVE",
"393 467 OFFCURVE",
"332 553 OFFCURVE",
"195 553 CURVE SMOOTH",
"117 553 OFFCURVE",
"55 517 OFFCURVE",
"55 443 CURVE SMOOTH",
"55 385 OFFCURVE",
"102 349 OFFCURVE",
"155 349 CURVE SMOOTH",
"229 349 OFFCURVE",
"254 395 OFFCURVE",
"254 452 CURVE SMOOTH",
"254 471 OFFCURVE",
"248 495 OFFCURVE",
"241 516 CURVE",
"193 523 LINE",
"197 505 OFFCURVE",
"202 488 OFFCURVE",
"202 465 CURVE SMOOTH",
"202 442 OFFCURVE",
"199 401 OFFCURVE",
"156 401 CURVE SMOOTH",
"132 401 OFFCURVE",
"111 415 OFFCURVE",
"111 444 CURVE SMOOTH",
"111 487 OFFCURVE",
"143 502 OFFCURVE",
"194 502 CURVE",
"274 502 OFFCURVE",
"330 448 OFFCURVE",
"330 364 CURVE SMOOTH",
"330 348 OFFCURVE",
"329 337 OFFCURVE",
"328 330 CURVE",
"244 331 LINE",
"137 331 OFFCURVE",
"65 275 OFFCURVE",
"65 162 CURVE SMOOTH",
"65 65 OFFCURVE",
"128 -10 OFFCURVE",
"234 -10 CURVE SMOOTH"
);
}
);
width = 758;
}
);
},
{
glyphname = "c-sinhala";
lastChange = "2024-02-21 03:14:36 +0000";
layers = (
{
layerId = "25BA55F5-DD3E-4682-A696-ADF7D9496427";
name = Light;
paths = (
{
closed = 1;
nodes = (
"584 -10 OFFCURVE",
"676 163 OFFCURVE",
"676 343 CURVE",
"676 635 OFFCURVE",
"554 823 OFFCURVE",
"306 823 CURVE",
"200 823 OFFCURVE",
"121 784 OFFCURVE",
"115 699 CURVE SMOOTH",
"114 680 OFFCURVE",
"118 665 OFFCURVE",
"125 643 CURVE",
"176 669 LINE",
"172 677 OFFCURVE",
"170 687 OFFCURVE",
"170 698 CURVE SMOOTH",
"170 745 OFFCURVE",
"219 769 OFFCURVE",
"306 769 CURVE",
"468 769 OFFCURVE",
"576 659 OFFCURVE",
"606 537 CURVE",
"608 541 LINE",
"563 640 OFFCURVE",
"434 703 OFFCURVE",
"280 703 CURVE",
"206 703 OFFCURVE",
"124 687 OFFCURVE",
"58 664 CURVE",
"58 609 LINE",
"123 631 OFFCURVE",
"206 648 OFFCURVE",
"280 648 CURVE",
"494 648 OFFCURVE",
"616 533 OFFCURVE",
"616 343 CURVE",
"616 164 OFFCURVE",
"518 45 OFFCURVE",
"340 45 CURVE SMOOTH",
"217 45 OFFCURVE",
"136 103 OFFCURVE",
"136 202 CURVE SMOOTH",
"136 278 OFFCURVE",
"181 326 OFFCURVE",
"248 326 CURVE",
"130 326 LINE",
"95 303 OFFCURVE",
"72 259 OFFCURVE",
"72 201 CURVE SMOOTH",
"72 71 OFFCURVE",
"183 -10 OFFCURVE",
"339 -10 CURVE SMOOTH"
);
},
{
closed = 1;
nodes = (
"378 326 LINE",
"380 340 OFFCURVE",
"380 353 OFFCURVE",
"380 367 CURVE",
"380 462 OFFCURVE",
"337 553 OFFCURVE",
"211 553 CURVE SMOOTH",
"119 553 OFFCURVE",
"65 499 OFFCURVE",
"65 424 CURVE",
"125 424 LINE",
"128 471 OFFCURVE",
"159 498 OFFCURVE",
"212 498 CURVE",
"296 498 OFFCURVE",
"316 439 OFFCURVE",
"316 380 CURVE",
"30 380 LINE",
"30 325 LINE"
);
}
);
width = 750;
}
);
},
{
glyphname = "ch-sinhala";
lastChange = "2024-02-21 03:14:45 +0000";
layers = (
{
layerId = "25BA55F5-DD3E-4682-A696-ADF7D9496427";
name = Light;
paths = (
{
closed = 1;
nodes = (
"429 350 LINE",
"440 351 OFFCURVE",
"450 351 OFFCURVE",
"461 351 CURVE SMOOTH",
"567 351 OFFCURVE",
"639 321 OFFCURVE",
"639 220 CURVE",
"639 93 OFFCURVE",
"527 45 OFFCURVE",
"378 45 CURVE",
"236 45 OFFCURVE",
"108 94 OFFCURVE",
"108 213 CURVE",
"108 297 OFFCURVE",
"164 336 OFFCURVE",
"262 336 CURVE SMOOTH",
"344 336 LINE",
"346 349 OFFCURVE",
"347 362 OFFCURVE",
"347 386 CURVE",
"347 481 OFFCURVE",
"309 553 OFFCURVE",
"203 553 CURVE SMOOTH",
"115 553 OFFCURVE",
"74 499 OFFCURVE",
"73 434 CURVE",
"133 434 LINE",
"135 474 OFFCURVE",
"161 498 OFFCURVE",
"204 498 CURVE",
"268 498 OFFCURVE",
"283 449 OFFCURVE",
"283 390 CURVE",
"243 391 LINE",
"126 391 OFFCURVE",
"48 327 OFFCURVE",
"48 212 CURVE",
"48 62 OFFCURVE",
"204 -10 OFFCURVE",
"379 -10 CURVE",
"561 -10 OFFCURVE",
"699 61 OFFCURVE",
"699 219 CURVE",
"699 348 OFFCURVE",
"602 411 OFFCURVE",
"470 411 CURVE SMOOTH",
"456 411 OFFCURVE",
"440 410 OFFCURVE",
"425 408 CURVE"
);
},
{
closed = 1;
nodes = (
"617 211 OFFCURVE",
"663 290 OFFCURVE",
"663 384 CURVE SMOOTH",
"663 461 OFFCURVE",
"632 553 OFFCURVE",
"537 553 CURVE SMOOTH",
"477 553 OFFCURVE",
"435 500 OFFCURVE",
"421 458 CURVE",
"383 391 LINE",
"383 283 OFFCURVE",
"431 211 OFFCURVE",
"523 211 CURVE SMOOTH"
);
},
{
closed = 1;
nodes = (
"465 266 OFFCURVE",
"441 321 OFFCURVE",
"441 384 CURVE SMOOTH",
"441 444 OFFCURVE",
"467 498 OFFCURVE",
"523 498 CURVE SMOOTH",
"586 498 OFFCURVE",
"605 439 OFFCURVE",
"605 384 CURVE SMOOTH",
"605 327 OFFCURVE",
"586 266 OFFCURVE",
"523 266 CURVE SMOOTH"
);
},
{
closed = 1;
nodes = (
"594 668 LINE",
"428 648 OFFCURVE",
"383 518 OFFCURVE",
"383 391 CURVE",
"434 417 LINE",
"434 521 OFFCURVE",
"493 600 OFFCURVE",
"594 614 CURVE"
);
},
{
closed = 1;
nodes = (
"627 510 LINE",
"627 718 LINE SMOOTH",
"627 743 OFFCURVE",
"628 790 OFFCURVE",
"616 812 CURVE",
"604 781 LINE",
"616 793 OFFCURVE",
"642 806 OFFCURVE",
"669 806 CURVE SMOOTH",
"707 806 OFFCURVE",
"726 779 OFFCURVE",
"726 746 CURVE SMOOTH",
"726 673 OFFCURVE",
"636 670 OFFCURVE",
"589 669 CURVE",
"594 612 LINE",
"699 617 OFFCURVE",
"784 653 OFFCURVE",
"784 749 CURVE SMOOTH",
"784 807 OFFCURVE",
"745 863 OFFCURVE",
"672 863 CURVE SMOOTH",
"630 863 OFFCURVE",
"602 844 OFFCURVE",
"584 820 CURVE",
"613 820 LINE",
"607 837 OFFCURVE",
"601 849 OFFCURVE",
"591 860 CURVE",
"530 860 LINE",
"564 816 OFFCURVE",
"570 773 OFFCURVE",
"570 718 CURVE SMOOTH",
"570 510 LINE"
);
}
);
width = 774;
}
);
leftMetricsKey = snCHA;
},
{
glyphname = "j-sinhala";
lastChange = "2024-02-21 03:15:04 +0000";
layers = (
{
layerId = "25BA55F5-DD3E-4682-A696-ADF7D9496427";
name = Light;
paths = (
{
closed = 1;
nodes = (
"521 342 LINE",
"594 342 OFFCURVE",
"630 394 OFFCURVE",
"630 448 CURVE",
"630 501 OFFCURVE",
"600 555 OFFCURVE",
"531 555 CURVE SMOOTH",
"474 555 OFFCURVE",
"449 510 OFFCURVE",
"436 467 CURVE",
"457 437 LINE",
"457 474 OFFCURVE",
"480 502 OFFCURVE",
"521 502 CURVE SMOOTH",
"557 502 OFFCURVE",
"576 481 OFFCURVE",
"576 448 CURVE",
"576 414 OFFCURVE",
"550 391 OFFCURVE",
"506 391 CURVE"
);
},
{
closed = 1;
nodes = (
"236 45 OFFCURVE",
"108 94 OFFCURVE",
"108 213 CURVE",
"108 297 OFFCURVE",
"164 336 OFFCURVE",
"262 336 CURVE SMOOTH",
"344 336 LINE",
"346 349 OFFCURVE",
"347 362 OFFCURVE",
"347 386 CURVE",
"347 481 OFFCURVE",
"309 553 OFFCURVE",
"203 553 CURVE SMOOTH",
"115 553 OFFCURVE",
"74 499 OFFCURVE",
"73 434 CURVE",
"133 434 LINE",
"135 474 OFFCURVE",
"161 498 OFFCURVE",
"204 498 CURVE",
"268 498 OFFCURVE",
"283 449 OFFCURVE",
"283 390 CURVE",
"243 391 LINE",
"126 391 OFFCURVE",
"48 327 OFFCURVE",
"48 212 CURVE",
"48 62 OFFCURVE",
"204 -10 OFFCURVE",
"379 -10 CURVE",
"547 -10 OFFCURVE",
"703 59 OFFCURVE",
"703 209 CURVE",
"703 324 OFFCURVE",
"623 391 OFFCURVE",
"506 391 CURVE",
"461 390 LINE",
"458 407 OFFCURVE",
"457 417 OFFCURVE",
"457 437 CURVE SMOOTH",
"457 531 OFFCURVE",
"492 610 OFFCURVE",
"592 610 CURVE",
"592 664 LINE",
"442 664 OFFCURVE",
"396 562 OFFCURVE",
"396 435 CURVE SMOOTH",
"396 399 OFFCURVE",
"402 352 OFFCURVE",
"407 336 CURVE",
"485 336 LINE",
"583 336 OFFCURVE",
"641 294 OFFCURVE",
"641 210 CURVE",
"641 91 OFFCURVE",
"513 45 OFFCURVE",
"378 45 CURVE"
);
},
{
closed = 1;
nodes = (
"623 489 LINE",
"623 718 LINE",
"623 743 OFFCURVE",
"624 790 OFFCURVE",
"612 812 CURVE",
"600 781 LINE",
"612 793 OFFCURVE",
"639 806 OFFCURVE",
"662 806 CURVE SMOOTH",
"704 806 OFFCURVE",
"722 779 OFFCURVE",
"722 747 CURVE SMOOTH",
"722 672 OFFCURVE",
"651 664 OFFCURVE",
"585 664 CURVE",
"600 605 LINE SMOOTH",
"702 605 OFFCURVE",
"780 655 OFFCURVE",
"780 745 CURVE SMOOTH",
"780 810 OFFCURVE",
"741 863 OFFCURVE",
"666 863 CURVE SMOOTH",
"627 863 OFFCURVE",
"598 844 OFFCURVE",
"580 820 CURVE",
"609 820 LINE",
"603 837 OFFCURVE",
"597 849 OFFCURVE",
"587 860 CURVE",
"526 860 LINE",
"560 816 OFFCURVE",
"566 773 OFFCURVE",
"566 718 CURVE SMOOTH",
"566 489 LINE"
);
}
);
width = 770;
}
);
leftMetricsKey = snJA;
},
{
glyphname = "jh-sinhala";
lastChange = "2024-02-24 01:37:04 +0000";
layers = (
{
layerId = "25BA55F5-DD3E-4682-A696-ADF7D9496427";
name = Light;
paths = (
{
closed = 1;
nodes = (
"89 0 LINE",
"238 253 OFFCURVE",
"326 321 OFFCURVE",
"461 321 CURVE",
"563 321 OFFCURVE",
"622 267 OFFCURVE",
"622 168 CURVE SMOOTH",
"622 102 OFFCURVE",
"606 45 OFFCURVE",
"548 45 CURVE SMOOTH",
"499 45 OFFCURVE",
"474 99 OFFCURVE",
"474 163 CURVE SMOOTH",
"474 181 LINE",
"414 181 LINE",
"414 164 LINE SMOOTH",
"414 108 OFFCURVE",
"403 45 OFFCURVE",
"347 45 CURVE SMOOTH",
"287 45 OFFCURVE",
"261 139 OFFCURVE",
"207 139 CURVE SMOOTH",
"163 139 OFFCURVE",
"153 111 OFFCURVE",
"118 69 CURVE",
"89 0 LINE",
"109 43 OFFCURVE",
"143 86 OFFCURVE",
"183 86 CURVE SMOOTH",
"239 86 OFFCURVE",
"255 -10 OFFCURVE",
"346 -10 CURVE SMOOTH",
"400 -10 OFFCURVE",
"428 25 OFFCURVE",
"444 83 CURVE",
"455 28 OFFCURVE",
"494 -10 OFFCURVE",
"551 -10 CURVE SMOOTH",
"644 -10 OFFCURVE",
"681 79 OFFCURVE",
"681 167 CURVE SMOOTH",
"681 291 OFFCURVE",
"595 375 OFFCURVE",
"467 375 CURVE",
"342 375 OFFCURVE",
"285 328 OFFCURVE",
"213 244 CURVE",
"234 261 LINE",
"332 426 OFFCURVE",
"427 498 OFFCURVE",
"559 498 CURVE",
"698 498 OFFCURVE",
"765 427 OFFCURVE",
"823 348 CURVE",
"868 370 LINE",
"804 477 OFFCURVE",
"710 553 OFFCURVE",
"560 553 CURVE",
"431 553 OFFCURVE",
"325 489 OFFCURVE",
"268 381 CURVE",
"197 275 LINE SMOOTH",
"27 0 LINE"
);
},
{
closed = 1;
nodes = (
"76 553 OFFCURVE",
"34 494 OFFCURVE",
"34 429 CURVE",
"94 429 LINE",
"95 466 OFFCURVE",
"113 498 OFFCURVE",
"169 498 CURVE",
"218 498 OFFCURVE",
"244 466 OFFCURVE",
"244 422 CURVE SMOOTH",
"244 377 OFFCURVE",
"226 331 OFFCURVE",
"189 261 CURVE",
"274 348 LINE",
"284 374 OFFCURVE",
"295 404 OFFCURVE",
"295 425 CURVE",
"295 493 OFFCURVE",
"250 553 OFFCURVE",
"164 553 CURVE SMOOTH"
);
},
{
closed = 1;
nodes = (
"673 607 LINE",
"739 630 OFFCURVE",
"825 648 OFFCURVE",
"901 648 CURVE",
"1107 648 OFFCURVE",
"1237 537 OFFCURVE",
"1237 323 CURVE",
"1237 181 OFFCURVE",
"1204 45 OFFCURVE",
"1097 45 CURVE SMOOTH",
"1028 45 OFFCURVE",
"1004 94 OFFCURVE",
"1004 142 CURVE",
"1004 176 LINE",
"945 176 LINE",
"945 142 LINE",
"945 94 OFFCURVE",
"914 45 OFFCURVE",
"848 45 CURVE SMOOTH",
"776 45 OFFCURVE",
"737 99 OFFCURVE",
"737 174 CURVE SMOOTH",
"737 260 OFFCURVE",
"790 315 OFFCURVE",
"868 315 CURVE",
"868 370 LINE",
"751 370 OFFCURVE",
"677 290 OFFCURVE",
"677 173 CURVE SMOOTH",
"677 76 OFFCURVE",
"741 -10 OFFCURVE",
"847 -10 CURVE SMOOTH",
"911 -10 OFFCURVE",
"955 19 OFFCURVE",
"975 58 CURVE",
"991 29 OFFCURVE",
"1031 -10 OFFCURVE",
"1093 -10 CURVE SMOOTH",
"1256 -10 OFFCURVE",
"1297 155 OFFCURVE",
"1297 322 CURVE",
"1297 614 OFFCURVE",
"1185 823 OFFCURVE",
"927 823 CURVE",
"821 823 OFFCURVE",
"742 784 OFFCURVE",
"736 699 CURVE SMOOTH",
"735 680 OFFCURVE",
"739 665 OFFCURVE",
"746 643 CURVE",
"797 669 LINE",
"793 677 OFFCURVE",
"791 687 OFFCURVE",
"791 698 CURVE SMOOTH",
"791 745 OFFCURVE",
"840 769 OFFCURVE",
"927 769 CURVE",
"1089 769 OFFCURVE",
"1193 656 OFFCURVE",
"1223 534 CURVE",
"1225 538 LINE",
"1180 637 OFFCURVE",
"1055 703 OFFCURVE",
"901 703 CURVE",
"825 703 OFFCURVE",
"740 686 OFFCURVE",
"673 662 CURVE"
);
}
);
width = 1372;
},
{
associatedMasterId = "25BA55F5-DD3E-4682-A696-ADF7D9496427";
layerId = "FB2F948E-79E1-4358-9EB6-D94BD2FA5223";
name = "24 Feb 24 at 07:07";
paths = (
{
closed = 1;
nodes = (
"89 0 LINE",
"238 253 OFFCURVE",
"326 321 OFFCURVE",
"461 321 CURVE",
"563 321 OFFCURVE",
"622 267 OFFCURVE",
"622 168 CURVE SMOOTH",
"622 102 OFFCURVE",
"606 45 OFFCURVE",
"548 45 CURVE SMOOTH",
"499 45 OFFCURVE",
"474 99 OFFCURVE",
"474 163 CURVE SMOOTH",
"474 181 LINE",
"414 181 LINE",
"414 164 LINE SMOOTH",
"414 108 OFFCURVE",
"403 45 OFFCURVE",
"347 45 CURVE SMOOTH",
"287 45 OFFCURVE",
"261 139 OFFCURVE",
"207 139 CURVE SMOOTH",
"163 139 OFFCURVE",
"153 111 OFFCURVE",
"118 69 CURVE",
"89 0 LINE",
"109 43 OFFCURVE",
"143 86 OFFCURVE",
"183 86 CURVE SMOOTH",
"239 86 OFFCURVE",
"255 -10 OFFCURVE",
"346 -10 CURVE SMOOTH",
"400 -10 OFFCURVE",
"428 25 OFFCURVE",
"444 83 CURVE",
"455 28 OFFCURVE",
"494 -10 OFFCURVE",
"551 -10 CURVE SMOOTH",
"644 -10 OFFCURVE",
"681 79 OFFCURVE",
"681 167 CURVE SMOOTH",
"681 291 OFFCURVE",
"595 375 OFFCURVE",
"467 375 CURVE",
"342 375 OFFCURVE",
"285 328 OFFCURVE",
"213 244 CURVE",
"234 261 LINE",
"332 426 OFFCURVE",
"427 498 OFFCURVE",
"559 498 CURVE",
"698 498 OFFCURVE",
"765 427 OFFCURVE",
"823 348 CURVE",
"868 370 LINE",
"804 477 OFFCURVE",
"710 553 OFFCURVE",
"560 553 CURVE",
"431 553 OFFCURVE",
"325 489 OFFCURVE",
"268 381 CURVE",
"197 275 LINE SMOOTH",
"27 0 LINE"
);
},
{
closed = 1;
nodes = (
"76 553 OFFCURVE",
"34 494 OFFCURVE",
"34 429 CURVE",
"94 429 LINE",
"95 466 OFFCURVE",
"113 498 OFFCURVE",
"169 498 CURVE",
"218 498 OFFCURVE",
"244 466 OFFCURVE",
"244 422 CURVE SMOOTH",
"244 377 OFFCURVE",
"226 331 OFFCURVE",
"189 261 CURVE",
"274 348 LINE",
"284 374 OFFCURVE",
"295 404 OFFCURVE",
"295 425 CURVE",
"295 493 OFFCURVE",
"250 553 OFFCURVE",
"164 553 CURVE SMOOTH"
);
},
{
closed = 1;
nodes = (
"673 607 LINE",
"739 630 OFFCURVE",
"825 648 OFFCURVE",
"901 648 CURVE",
"1107 648 OFFCURVE",
"1237 537 OFFCURVE",
"1237 323 CURVE",
"1237 181 OFFCURVE",
"1204 45 OFFCURVE",
"1097 45 CURVE SMOOTH",
"1028 45 OFFCURVE",
"1004 94 OFFCURVE",
"1004 142 CURVE",
"1004 176 LINE",
"945 176 LINE",
"945 142 LINE",
"945 94 OFFCURVE",
"914 45 OFFCURVE",
"848 45 CURVE SMOOTH",
"776 45 OFFCURVE",
"737 99 OFFCURVE",
"737 174 CURVE SMOOTH",
"737 260 OFFCURVE",
"790 315 OFFCURVE",
"868 315 CURVE",
"868 370 LINE",
"751 370 OFFCURVE",
"677 290 OFFCURVE",
"677 173 CURVE SMOOTH",
"677 76 OFFCURVE",
"741 -10 OFFCURVE",
"847 -10 CURVE SMOOTH",
"911 -10 OFFCURVE",
"955 19 OFFCURVE",
"975 58 CURVE",
"991 29 OFFCURVE",
"1031 -10 OFFCURVE",
"1093 -10 CURVE SMOOTH",
"1256 -10 OFFCURVE",
"1297 155 OFFCURVE",
"1297 322 CURVE",
"1297 614 OFFCURVE",
"1185 823 OFFCURVE",
"927 823 CURVE",
"821 823 OFFCURVE",
"742 784 OFFCURVE",
"736 699 CURVE SMOOTH",
"735 680 OFFCURVE",
"739 665 OFFCURVE",
"746 643 CURVE",
"797 669 LINE",
"793 677 OFFCURVE",
"791 687 OFFCURVE",
"791 698 CURVE SMOOTH",
"791 745 OFFCURVE",
"840 769 OFFCURVE",
"927 769 CURVE",
"1089 769 OFFCURVE",
"1193 656 OFFCURVE",
"1223 534 CURVE",
"1225 538 LINE",
"1180 637 OFFCURVE",
"1055 703 OFFCURVE",
"901 703 CURVE",
"825 703 OFFCURVE",
"740 686 OFFCURVE",
"673 662 CURVE"
);
}
);
width = 1372;
}
);
},
{
glyphname = "nyj-sinhala";
lastChange = "2024-02-21 03:15:28 +0000";
layers = (
{
layerId = "25BA55F5-DD3E-4682-A696-ADF7D9496427";
name = Light;
paths = (
{
closed = 1;
nodes = (
"207 0 LINE",
"163 81 OFFCURVE",
"130 182 OFFCURVE",
"130 281 CURVE SMOOTH",
"130 420 OFFCURVE",
"171 503 OFFCURVE",
"246 503 CURVE SMOOTH",
"274 503 OFFCURVE",
"301 488 OFFCURVE",
"316 470 CURVE",
"361 493 LINE",
"341 525 OFFCURVE",
"297 553 OFFCURVE",
"245 553 CURVE SMOOTH",
"130 553 OFFCURVE",
"70 443 OFFCURVE",
"70 284 CURVE SMOOTH",
"70 171 OFFCURVE",
"102 66 OFFCURVE",
"140 0 CURVE"
);
},
{
closed = 1;
nodes = (
"749 342 LINE",
"822 342 OFFCURVE",
"858 394 OFFCURVE",
"858 448 CURVE SMOOTH",
"858 501 OFFCURVE",
"828 555 OFFCURVE",
"759 555 CURVE SMOOTH",
"702 555 OFFCURVE",
"677 510 OFFCURVE",
"664 467 CURVE",
"685 437 LINE",
"685 474 OFFCURVE",
"708 502 OFFCURVE",
"749 502 CURVE SMOOTH",
"785 502 OFFCURVE",
"804 481 OFFCURVE",
"804 448 CURVE SMOOTH",
"804 414 OFFCURVE",
"778 391 OFFCURVE",
"734 391 CURVE"
);
},
{
closed = 1;
nodes = (
"464 45 OFFCURVE",
"336 94 OFFCURVE",
"336 213 CURVE SMOOTH",
"336 297 OFFCURVE",
"392 336 OFFCURVE",
"490 336 CURVE SMOOTH",
"572 336 LINE",
"574 349 OFFCURVE",
"575 362 OFFCURVE",
"575 386 CURVE",
"575 481 OFFCURVE",
"537 553 OFFCURVE",
"431 553 CURVE SMOOTH",
"343 553 OFFCURVE",
"302 499 OFFCURVE",
"301 434 CURVE",
"361 434 LINE",
"363 474 OFFCURVE",
"389 498 OFFCURVE",
"432 498 CURVE SMOOTH",
"496 498 OFFCURVE",
"511 449 OFFCURVE",
"511 390 CURVE",
"471 391 LINE SMOOTH",
"354 391 OFFCURVE",
"276 327 OFFCURVE",
"276 212 CURVE SMOOTH",
"276 62 OFFCURVE",
"432 -10 OFFCURVE",
"607 -10 CURVE SMOOTH",
"775 -10 OFFCURVE",
"931 59 OFFCURVE",
"931 209 CURVE SMOOTH",
"931 324 OFFCURVE",
"851 391 OFFCURVE",
"734 391 CURVE",
"689 390 LINE",
"686 407 OFFCURVE",
"685 417 OFFCURVE",
"685 437 CURVE SMOOTH",
"685 531 OFFCURVE",
"720 610 OFFCURVE",
"820 610 CURVE",
"820 664 LINE",
"670 664 OFFCURVE",
"624 562 OFFCURVE",
"624 435 CURVE SMOOTH",
"624 399 OFFCURVE",
"630 352 OFFCURVE",
"635 336 CURVE",
"713 336 LINE",
"811 336 OFFCURVE",
"869 294 OFFCURVE",
"869 210 CURVE SMOOTH",
"869 91 OFFCURVE",
"741 45 OFFCURVE",
"606 45 CURVE SMOOTH"
);
},
{
closed = 1;
nodes = (
"855 477 LINE",
"855 718 LINE",
"855 743 OFFCURVE",
"856 790 OFFCURVE",
"844 812 CURVE",
"832 781 LINE",
"844 793 OFFCURVE",
"871 806 OFFCURVE",
"894 806 CURVE SMOOTH",
"936 806 OFFCURVE",
"954 779 OFFCURVE",
"954 747 CURVE SMOOTH",
"954 672 OFFCURVE",
"883 664 OFFCURVE",
"817 664 CURVE",
"832 605 LINE SMOOTH",
"934 605 OFFCURVE",
"1012 655 OFFCURVE",
"1012 745 CURVE SMOOTH",
"1012 810 OFFCURVE",
"973 863 OFFCURVE",
"898 863 CURVE SMOOTH",
"859 863 OFFCURVE",
"830 844 OFFCURVE",
"812 820 CURVE",
"841 820 LINE",
"835 837 OFFCURVE",
"829 849 OFFCURVE",
"819 860 CURVE",
"758 860 LINE",
"792 816 OFFCURVE",
"798 773 OFFCURVE",
"798 718 CURVE SMOOTH",
"798 477 LINE"
);
}
);
width = 1002;
},
{
associatedMasterId = "25BA55F5-DD3E-4682-A696-ADF7D9496427";
layerId = "A2812D16-B447-4AFB-B308-E34C082D29BF";
name = "Light Oct 15 15, 17:21";
paths = (
{
closed = 1;
nodes = (
"748 342 LINE",
"821 342 OFFCURVE",
"857 394 OFFCURVE",
"857 448 CURVE",
"857 501 OFFCURVE",
"827 555 OFFCURVE",
"758 555 CURVE SMOOTH",
"701 555 OFFCURVE",
"676 510 OFFCURVE",
"663 467 CURVE",
"684 437 LINE",
"684 474 OFFCURVE",
"707 502 OFFCURVE",
"748 502 CURVE SMOOTH",
"784 502 OFFCURVE",
"803 481 OFFCURVE",
"803 448 CURVE",
"803 414 OFFCURVE",
"777 391 OFFCURVE",
"733 391 CURVE"
);
},
{
closed = 1;
nodes = (
"207 0 LINE",
"163 81 OFFCURVE",
"130 182 OFFCURVE",
"130 281 CURVE SMOOTH",
"130 420 OFFCURVE",
"171 503 OFFCURVE",
"246 503 CURVE SMOOTH",
"274 503 OFFCURVE",
"301 488 OFFCURVE",
"316 470 CURVE",
"361 493 LINE",
"341 525 OFFCURVE",
"297 553 OFFCURVE",
"245 553 CURVE SMOOTH",
"130 553 OFFCURVE",
"70 443 OFFCURVE",
"70 284 CURVE",
"70 171 OFFCURVE",
"102 66 OFFCURVE",
"140 0 CURVE"
);
},
{
closed = 1;
nodes = (
"773 -10 OFFCURVE",
"930 59 OFFCURVE",
"930 209 CURVE",
"930 324 OFFCURVE",
"850 391 OFFCURVE",
"733 391 CURVE",
"688 390 LINE",
"685 407 OFFCURVE",
"684 417 OFFCURVE",
"684 437 CURVE SMOOTH",
"684 531 OFFCURVE",
"719 611 OFFCURVE",
"819 611 CURVE",
"819 665 LINE",
"669 665 OFFCURVE",
"623 562 OFFCURVE",
"623 435 CURVE",
"623 399 OFFCURVE",
"629 352 OFFCURVE",
"634 336 CURVE",
"712 336 LINE",
"810 336 OFFCURVE",
"868 294 OFFCURVE",
"868 210 CURVE",
"868 91 OFFCURVE",
"740 45 OFFCURVE",
"605 45 CURVE",
"463 45 OFFCURVE",
"335 94 OFFCURVE",
"335 213 CURVE",
"335 297 OFFCURVE",
"391 336 OFFCURVE",
"489 336 CURVE SMOOTH",
"571 336 LINE",
"573 349 OFFCURVE",
"574 362 OFFCURVE",
"574 386 CURVE",
"574 481 OFFCURVE",
"536 553 OFFCURVE",
"430 553 CURVE SMOOTH",
"342 553 OFFCURVE",
"301 499 OFFCURVE",
"300 434 CURVE",
"360 434 LINE",
"362 474 OFFCURVE",
"388 498 OFFCURVE",
"431 498 CURVE",
"495 498 OFFCURVE",
"510 449 OFFCURVE",
"510 390 CURVE",
"470 391 LINE",
"353 391 OFFCURVE",
"275 327 OFFCURVE",
"275 212 CURVE",
"275 62 OFFCURVE",
"430 -10 OFFCURVE",
"605 -10 CURVE"
);
}
);
visible = 1;
width = 960;
}
);
leftMetricsKey = snNYJA;
},
{
glyphname = "tt-sinhala";
lastChange = "2024-02-21 03:15:42 +0000";
layers = (
{
layerId = "25BA55F5-DD3E-4682-A696-ADF7D9496427";
name = Light;
paths = (
{
closed = 1;
nodes = (
"565 -10 OFFCURVE",
"656 144 OFFCURVE",
"656 324 CURVE",
"656 616 OFFCURVE",
"543 823 OFFCURVE",
"285 823 CURVE",
"179 823 OFFCURVE",
"100 784 OFFCURVE",
"94 699 CURVE SMOOTH",
"93 680 OFFCURVE",
"97 665 OFFCURVE",
"104 643 CURVE",
"155 669 LINE",
"151 677 OFFCURVE",
"149 687 OFFCURVE",
"149 698 CURVE SMOOTH",
"149 745 OFFCURVE",
"198 769 OFFCURVE",
"285 769 CURVE",
"447 769 OFFCURVE",
"551 656 OFFCURVE",
"581 534 CURVE",
"583 538 LINE",
"538 637 OFFCURVE",
"433 703 OFFCURVE",
"279 703 CURVE",
"203 703 OFFCURVE",
"120 686 OFFCURVE",
"53 663 CURVE",
"53 608 LINE",
"119 631 OFFCURVE",
"203 648 OFFCURVE",
"279 648 CURVE",
"483 648 OFFCURVE",
"595 520 OFFCURVE",
"595 323 CURVE",
"595 144 OFFCURVE",
"499 45 OFFCURVE",
"342 45 CURVE SMOOTH",
"218 45 OFFCURVE",
"120 111 OFFCURVE",
"120 230 CURVE SMOOTH",
"120 336 OFFCURVE",
"196 396 OFFCURVE",
"302 396 CURVE SMOOTH",
"323 396 OFFCURVE",
"343 395 OFFCURVE",
"366 391 CURVE",
"366 445 LINE",
"346 450 OFFCURVE",
"327 452 OFFCURVE",
"303 452 CURVE",
"141 452 OFFCURVE",
"56 352 OFFCURVE",
"56 229 CURVE SMOOTH",
"56 79 OFFCURVE",
"184 -10 OFFCURVE",
"341 -10 CURVE SMOOTH"
);
}
);
width = 731;
}
);
},
{
glyphname = "tth-sinhala";
lastChange = "2024-02-21 03:15:45 +0000";
layers = (
{
components = (
{
name = "ttha-sinhala";
}
);
layerId = "25BA55F5-DD3E-4682-A696-ADF7D9496427";
name = Light;
paths = (
{
closed = 1;
nodes = (
"637 512 LINE",
"637 740 LINE",
"637 765 OFFCURVE",
"635 792 OFFCURVE",
"623 814 CURVE",
"611 783 LINE",
"623 795 OFFCURVE",
"650 808 OFFCURVE",
"673 808 CURVE SMOOTH",
"715 808 OFFCURVE",
"733 783 OFFCURVE",
"733 751 CURVE SMOOTH",
"733 676 OFFCURVE",
"662 666 OFFCURVE",
"596 666 CURVE",
"611 607 LINE SMOOTH",
"713 607 OFFCURVE",
"793 657 OFFCURVE",
"793 747 CURVE SMOOTH",
"793 812 OFFCURVE",
"752 865 OFFCURVE",
"677 865 CURVE SMOOTH",
"638 865 OFFCURVE",
"609 846 OFFCURVE",
"591 822 CURVE",
"620 822 LINE",
"614 839 OFFCURVE",
"608 851 OFFCURVE",
"598 862 CURVE",
"537 862 LINE",
"571 818 OFFCURVE",
"577 775 OFFCURVE",
"577 720 CURVE SMOOTH",
"577 540 LINE"
);
}
);
width = 783;
}
);
},
{
glyphname = "dd-sinhala";
lastChange = "2024-02-21 03:14:50 +0000";
layers = (
{
layerId = "25BA55F5-DD3E-4682-A696-ADF7D9496427";
name = Light;
paths = (
{
closed = 1;
nodes = (
"312 -10 OFFCURVE",
"354 22 OFFCURVE",
"374 61 CURVE",
"388 24 OFFCURVE",
"430 -10 OFFCURVE",
"497 -10 CURVE SMOOTH",
"660 -10 OFFCURVE",
"697 135 OFFCURVE",
"697 322 CURVE",
"697 614 OFFCURVE",
"575 823 OFFCURVE",
"327 823 CURVE",
"221 823 OFFCURVE",
"142 784 OFFCURVE",
"136 699 CURVE SMOOTH",
"135 680 OFFCURVE",
"139 665 OFFCURVE",
"146 643 CURVE",
"197 669 LINE",
"193 677 OFFCURVE",
"191 687 OFFCURVE",
"191 698 CURVE SMOOTH",
"191 745 OFFCURVE",
"240 769 OFFCURVE",
"327 769 CURVE",
"489 769 OFFCURVE",
"593 656 OFFCURVE",
"623 534 CURVE",
"625 538 LINE",
"580 637 OFFCURVE",
"455 703 OFFCURVE",
"301 703 CURVE",
"224 703 OFFCURVE",
"138 686 OFFCURVE",
"71 662 CURVE",
"71 606 LINE",
"138 630 OFFCURVE",
"224 648 OFFCURVE",
"301 648 CURVE",
"515 648 OFFCURVE",
"637 537 OFFCURVE",
"637 323 CURVE",
"637 161 OFFCURVE",
"608 45 OFFCURVE",
"501 45 CURVE SMOOTH",
"424 45 OFFCURVE",
"403 94 OFFCURVE",
"403 142 CURVE",
"403 176 LINE",
"344 176 LINE",
"344 142 LINE",
"344 94 OFFCURVE",
"323 45 OFFCURVE",
"249 45 CURVE SMOOTH",
"184 45 OFFCURVE",
"130 90 OFFCURVE",
"130 176 CURVE",
"130 272 OFFCURVE",
"186 326 OFFCURVE",
"253 326 CURVE",
"139 326 LINE",
"101 305 OFFCURVE",
"70 247 OFFCURVE",
"70 175 CURVE",
"70 58 OFFCURVE",
"149 -10 OFFCURVE",
"248 -10 CURVE SMOOTH"
);
},
{
closed = 1;
nodes = (
"383 326 LINE",
"385 340 OFFCURVE",
"385 353 OFFCURVE",
"385 367 CURVE",
"385 462 OFFCURVE",
"342 553 OFFCURVE",
"216 553 CURVE SMOOTH",
"124 553 OFFCURVE",
"70 499 OFFCURVE",
"70 424 CURVE",
"130 424 LINE",
"133 471 OFFCURVE",
"164 498 OFFCURVE",
"217 498 CURVE",
"301 498 OFFCURVE",
"321 439 OFFCURVE",
"321 380 CURVE",
"35 380 LINE",
"35 325 LINE"
);
}
);
width = 771;
}
);
},
{
glyphname = "ddh-sinhala";
lastChange = "2024-02-21 03:14:53 +0000";
layers = (
{
components = (
{
alignment = -1;
name = "ddha-sinhala";
}
);
layerId = "25BA55F5-DD3E-4682-A696-ADF7D9496427";
name = Light;
paths = (
{
closed = 1;
nodes = (
"637 512 LINE",
"637 740 LINE",
"637 765 OFFCURVE",
"635 792 OFFCURVE",
"623 814 CURVE",
"611 783 LINE",
"623 795 OFFCURVE",
"650 808 OFFCURVE",
"673 808 CURVE SMOOTH",
"715 808 OFFCURVE",
"733 783 OFFCURVE",
"733 751 CURVE SMOOTH",
"733 676 OFFCURVE",
"662 666 OFFCURVE",
"596 666 CURVE",
"611 607 LINE SMOOTH",
"713 607 OFFCURVE",
"793 657 OFFCURVE",
"793 747 CURVE SMOOTH",
"793 812 OFFCURVE",
"752 865 OFFCURVE",
"677 865 CURVE SMOOTH",
"638 865 OFFCURVE",
"609 846 OFFCURVE",
"591 822 CURVE",
"620 822 LINE",
"614 839 OFFCURVE",
"608 851 OFFCURVE",
"598 862 CURVE",
"537 862 LINE",
"571 818 OFFCURVE",
"577 775 OFFCURVE",
"577 720 CURVE SMOOTH",
"577 540 LINE"
);
}
);
width = 783;
}
);
},
{
glyphname = "nndd-sinhala";
lastChange = "2024-02-21 03:15:24 +0000";
layers = (
{
layerId = "25BA55F5-DD3E-4682-A696-ADF7D9496427";
name = Light;
paths = (
{
closed = 1;
nodes = (
"527 -10 OFFCURVE",
"569 22 OFFCURVE",
"589 61 CURVE",
"603 24 OFFCURVE",
"645 -10 OFFCURVE",
"712 -10 CURVE SMOOTH",
"875 -10 OFFCURVE",
"912 135 OFFCURVE",
"912 322 CURVE",
"912 614 OFFCURVE",
"790 823 OFFCURVE",
"542 823 CURVE",
"436 823 OFFCURVE",
"357 784 OFFCURVE",
"351 699 CURVE SMOOTH",
"350 680 OFFCURVE",
"354 665 OFFCURVE",
"361 643 CURVE",
"412 669 LINE",
"408 677 OFFCURVE",
"406 687 OFFCURVE",
"406 698 CURVE SMOOTH",
"406 745 OFFCURVE",
"455 769 OFFCURVE",
"542 769 CURVE",
"704 769 OFFCURVE",
"808 656 OFFCURVE",
"838 534 CURVE",
"840 538 LINE",
"795 637 OFFCURVE",
"670 703 OFFCURVE",
"516 703 CURVE",
"438 703 OFFCURVE",
"351 685 OFFCURVE",
"284 661 CURVE",
"284 606 LINE",
"351 630 OFFCURVE",
"438 648 OFFCURVE",
"516 648 CURVE",
"730 648 OFFCURVE",
"852 537 OFFCURVE",
"852 323 CURVE",
"852 161 OFFCURVE",
"823 45 OFFCURVE",
"716 45 CURVE SMOOTH",
"639 45 OFFCURVE",
"618 94 OFFCURVE",
"618 142 CURVE",
"618 176 LINE",
"559 176 LINE",
"559 142 LINE",
"559 94 OFFCURVE",
"538 45 OFFCURVE",
"464 45 CURVE SMOOTH",
"399 45 OFFCURVE",
"345 90 OFFCURVE",
"345 176 CURVE",
"345 272 OFFCURVE",
"401 326 OFFCURVE",
"468 326 CURVE",
"354 326 LINE",
"316 305 OFFCURVE",
"285 247 OFFCURVE",
"285 175 CURVE",
"285 58 OFFCURVE",
"364 -10 OFFCURVE",
"463 -10 CURVE SMOOTH"
);
},
{
closed = 1;
nodes = (
"207 0 LINE",
"163 81 OFFCURVE",
"130 182 OFFCURVE",
"130 281 CURVE SMOOTH",
"130 420 OFFCURVE",
"171 503 OFFCURVE",
"246 503 CURVE SMOOTH",
"274 503 OFFCURVE",
"301 488 OFFCURVE",
"316 470 CURVE",
"361 493 LINE",
"341 525 OFFCURVE",
"297 553 OFFCURVE",
"245 553 CURVE SMOOTH",
"130 553 OFFCURVE",
"70 443 OFFCURVE",
"70 284 CURVE",
"70 171 OFFCURVE",
"102 66 OFFCURVE",
"140 0 CURVE"
);
},
{
closed = 1;
nodes = (
"598 326 LINE",
"600 340 OFFCURVE",
"600 353 OFFCURVE",
"600 367 CURVE",
"600 462 OFFCURVE",
"557 553 OFFCURVE",
"431 553 CURVE SMOOTH",
"339 553 OFFCURVE",
"285 499 OFFCURVE",
"285 424 CURVE",
"345 424 LINE",
"348 471 OFFCURVE",
"379 498 OFFCURVE",
"432 498 CURVE",
"516 498 OFFCURVE",
"536 439 OFFCURVE",
"536 380 CURVE",
"250 380 LINE",
"250 325 LINE"
);
}
);
width = 987;
}
);
},
{
glyphname = "th-sinhala";
lastChange = "2024-02-21 03:15:39 +0000";
layers = (
{
components = (
{
alignment = -1;
name = "tha-sinhala";
}
);
layerId = "25BA55F5-DD3E-4682-A696-ADF7D9496427";
name = Light;
paths = (
{
closed = 1;
nodes = (
"594 512 LINE",
"594 740 LINE",
"594 765 OFFCURVE",
"592 792 OFFCURVE",
"580 814 CURVE",
"568 783 LINE",
"580 795 OFFCURVE",
"607 808 OFFCURVE",
"630 808 CURVE SMOOTH",
"672 808 OFFCURVE",
"690 783 OFFCURVE",
"690 751 CURVE SMOOTH",
"690 676 OFFCURVE",
"619 666 OFFCURVE",
"553 666 CURVE",
"568 607 LINE SMOOTH",
"670 607 OFFCURVE",
"750 657 OFFCURVE",
"750 747 CURVE SMOOTH",
"750 812 OFFCURVE",
"709 865 OFFCURVE",
"634 865 CURVE SMOOTH",
"595 865 OFFCURVE",
"566 846 OFFCURVE",
"548 822 CURVE",
"577 822 LINE",
"571 839 OFFCURVE",
"565 851 OFFCURVE",
"555 862 CURVE",
"494 862 LINE",
"528 818 OFFCURVE",
"534 775 OFFCURVE",
"534 720 CURVE SMOOTH",
"534 540 LINE"
);
}
);
width = 740;
}
);
},
{
glyphname = "dh-sinhala";
lastChange = "2024-02-21 03:14:57 +0000";
layers = (
{
layerId = "25BA55F5-DD3E-4682-A696-ADF7D9496427";
name = Light;
paths = (
{
closed = 1;
nodes = (
"316 -10 OFFCURVE",
"351 24 OFFCURVE",
"371 58 CURVE",
"387 29 OFFCURVE",
"427 -10 OFFCURVE",
"489 -10 CURVE SMOOTH",
"652 -10 OFFCURVE",
"686 155 OFFCURVE",
"686 322 CURVE",
"686 614 OFFCURVE",
"573 823 OFFCURVE",
"325 823 CURVE",
"219 823 OFFCURVE",
"151 784 OFFCURVE",
"145 699 CURVE SMOOTH",
"144 680 OFFCURVE",
"148 665 OFFCURVE",
"155 643 CURVE",
"206 669 LINE",
"202 677 OFFCURVE",
"200 687 OFFCURVE",
"200 698 CURVE SMOOTH",
"200 745 OFFCURVE",
"238 769 OFFCURVE",
"325 769 CURVE",
"487 769 OFFCURVE",
"582 656 OFFCURVE",
"612 534 CURVE",
"614 538 LINE",
"569 637 OFFCURVE",
"444 703 OFFCURVE",
"290 703 CURVE",
"220 703 OFFCURVE",
"143 689 OFFCURVE",
"80 668 CURVE",
"80 613 LINE",
"143 634 OFFCURVE",
"220 648 OFFCURVE",
"290 648 CURVE",
"504 648 OFFCURVE",
"626 537 OFFCURVE",
"626 323 CURVE",
"626 181 OFFCURVE",
"600 45 OFFCURVE",
"493 45 CURVE SMOOTH",
"424 45 OFFCURVE",
"400 94 OFFCURVE",
"400 142 CURVE",
"400 176 LINE",
"341 176 LINE",
"341 142 LINE",
"341 93 OFFCURVE",
"315 45 OFFCURVE",
"251 45 CURVE SMOOTH",
"173 45 OFFCURVE",
"133 106 OFFCURVE",
"133 201 CURVE",
"133 317 OFFCURVE",
"195 396 OFFCURVE",
"301 396 CURVE SMOOTH",
"320 396 OFFCURVE",
"343 395 OFFCURVE",
"362 391 CURVE",
"362 444 LINE",
"343 450 OFFCURVE",
"320 452 OFFCURVE",
"301 452 CURVE SMOOTH",
"139 452 OFFCURVE",
"73 333 OFFCURVE",
"73 200 CURVE",
"73 83 OFFCURVE",
"135 -10 OFFCURVE",
"250 -10 CURVE SMOOTH"
);
}
);
width = 761;
}
);
},
{
glyphname = "ph-sinhala";
lastChange = "2024-02-21 03:15:33 +0000";
layers = (
{
components = (
{
alignment = -1;
name = "pha-sinhala";
}
);
layerId = "25BA55F5-DD3E-4682-A696-ADF7D9496427";
name = Light;
paths = (
{
closed = 1;
nodes = (
"611 512 LINE",
"611 740 LINE",
"611 765 OFFCURVE",
"609 792 OFFCURVE",
"597 814 CURVE",
"585 783 LINE",
"597 795 OFFCURVE",
"624 808 OFFCURVE",
"647 808 CURVE SMOOTH",
"689 808 OFFCURVE",
"707 783 OFFCURVE",
"707 751 CURVE SMOOTH",
"707 676 OFFCURVE",
"636 666 OFFCURVE",
"570 666 CURVE",
"585 607 LINE SMOOTH",
"687 607 OFFCURVE",
"767 657 OFFCURVE",
"767 747 CURVE SMOOTH",
"767 812 OFFCURVE",
"726 865 OFFCURVE",
"651 865 CURVE SMOOTH",
"612 865 OFFCURVE",
"583 846 OFFCURVE",
"565 822 CURVE",
"594 822 LINE",
"588 839 OFFCURVE",
"582 851 OFFCURVE",
"572 862 CURVE",
"511 862 LINE",
"545 818 OFFCURVE",
"551 775 OFFCURVE",
"551 720 CURVE SMOOTH",
"551 540 LINE"
);
}
);
width = 757;
}
);
},
{
glyphname = "b-sinhala";
lastChange = "2024-02-21 03:21:28 +0000";
layers = (
{
layerId = "25BA55F5-DD3E-4682-A696-ADF7D9496427";
name = Light;
paths = (
{
closed = 1;
nodes = (
"296 -10 OFFCURVE",
"349 42 OFFCURVE",
"349 123 CURVE SMOOTH",
"349 202 OFFCURVE",
"303 253 OFFCURVE",
"229 253 CURVE SMOOTH",
"167 253 OFFCURVE",
"114 213 OFFCURVE",
"114 134 CURVE",
"130 129 LINE",
"126 144 OFFCURVE",
"108 167 OFFCURVE",
"108 224 CURVE SMOOTH",
"108 320 OFFCURVE",
"159 427 OFFCURVE",
"291 427 CURVE",
"392 427 OFFCURVE",
"461 376 OFFCURVE",
"461 268 CURVE",
"461 192 OFFCURVE",
"421 160 OFFCURVE",
"421 97 CURVE SMOOTH",
"421 34 OFFCURVE",
"478 -10 OFFCURVE",
"547 -10 CURVE SMOOTH",
"684 -10 OFFCURVE",
"743 156 OFFCURVE",
"743 323 CURVE",
"743 615 OFFCURVE",
"605 823 OFFCURVE",
"347 823 CURVE",
"241 823 OFFCURVE",
"162 784 OFFCURVE",
"156 699 CURVE SMOOTH",
"155 680 OFFCURVE",
"159 665 OFFCURVE",
"166 643 CURVE",
"217 669 LINE",
"213 677 OFFCURVE",
"211 687 OFFCURVE",
"211 698 CURVE SMOOTH",
"211 745 OFFCURVE",
"260 769 OFFCURVE",
"347 769 CURVE",
"509 769 OFFCURVE",
"632 646 OFFCURVE",
"662 534 CURVE",
"664 538 LINE",
"619 637 OFFCURVE",
"475 703 OFFCURVE",
"321 703 CURVE",
"244 703 OFFCURVE",
"158 686 OFFCURVE",
"91 662 CURVE",
"91 606 LINE",
"158 630 OFFCURVE",
"244 648 OFFCURVE",
"321 648 CURVE",
"535 648 OFFCURVE",
"683 537 OFFCURVE",
"683 323 CURVE",
"683 181 OFFCURVE",
"636 45 OFFCURVE",
"547 45 CURVE SMOOTH",
"514 45 OFFCURVE",
"481 62 OFFCURVE",
"481 101 CURVE SMOOTH",
"481 157 OFFCURVE",
"521 191 OFFCURVE",
"521 268 CURVE SMOOTH",
"521 392 OFFCURVE",
"439 482 OFFCURVE",
"292 482 CURVE",
"143 482 OFFCURVE",
"50 374 OFFCURVE",
"50 223 CURVE SMOOTH",
"50 102 OFFCURVE",
"110 -10 OFFCURVE",
"225 -10 CURVE SMOOTH"
);
},
{
closed = 1;
nodes = (
"178 44 OFFCURVE",
"149 74 OFFCURVE",
"149 120 CURVE SMOOTH",
"149 167 OFFCURVE",
"177 199 OFFCURVE",
"223 199 CURVE SMOOTH",
"268 199 OFFCURVE",
"295 169 OFFCURVE",
"295 122 CURVE SMOOTH",
"295 76 OFFCURVE",
"269 44 OFFCURVE",
"224 44 CURVE SMOOTH"
);
}
);
width = 818;
}
);
},
{
glyphname = "m-sinhala";
lastChange = "2024-02-21 03:15:16 +0000";
layers = (
{
layerId = "25BA55F5-DD3E-4682-A696-ADF7D9496427";
name = Light;
paths = (
{
closed = 1;
nodes = (
"632 -10 OFFCURVE",
"765 124 OFFCURVE",
"765 341 CURVE",
"765 644 OFFCURVE",
"607 823 OFFCURVE",
"339 823 CURVE",
"218 823 OFFCURVE",
"140 775 OFFCURVE",
"135 699 CURVE SMOOTH",
"134 683 OFFCURVE",
"137 668 OFFCURVE",
"145 643 CURVE",
"196 669 LINE",
"192 676 OFFCURVE",
"190 688 OFFCURVE",
"190 698 CURVE SMOOTH",
"190 743 OFFCURVE",
"244 769 OFFCURVE",
"339 769 CURVE",
"511 769 OFFCURVE",
"658 671 OFFCURVE",
"692 534 CURVE",
"694 538 LINE",
"650 635 OFFCURVE",
"508 703 OFFCURVE",
"350 703 CURVE",
"254 703 OFFCURVE",
"155 681 OFFCURVE",
"80 642 CURVE",
"80 586 LINE",
"161 628 OFFCURVE",
"248 648 OFFCURVE",
"350 648 CURVE",
"575 648 OFFCURVE",
"705 536 OFFCURVE",
"705 342 CURVE SMOOTH",
"705 156 OFFCURVE",
"597 45 OFFCURVE",
"415 45 CURVE SMOOTH",
"235 45 OFFCURVE",
"115 151 OFFCURVE",
"115 309 CURVE",
"115 421 OFFCURVE",
"159 498 OFFCURVE",
"222 498 CURVE",
"244 498 OFFCURVE",
"251 492 OFFCURVE",
"251 470 CURVE SMOOTH",
"251 441 OFFCURVE",
"237 401 OFFCURVE",
"237 356 CURVE SMOOTH",
"237 248 OFFCURVE",
"307 180 OFFCURVE",
"426 180 CURVE SMOOTH",
"547 180 OFFCURVE",
"611 251 OFFCURVE",
"611 382 CURVE",
"611 480 OFFCURVE",
"560 554 OFFCURVE",
"475 554 CURVE SMOOTH",
"406 554 OFFCURVE",
"354 509 OFFCURVE",
"354 434 CURVE SMOOTH",
"354 361 OFFCURVE",
"409 314 OFFCURVE",
"470 314 CURVE SMOOTH",
"522 314 OFFCURVE",
"567 347 OFFCURVE",
"567 395 CURVE",
"555 425 LINE",
"558 405 OFFCURVE",
"560 404 OFFCURVE",
"560 385 CURVE SMOOTH",
"560 298 OFFCURVE",
"521 235 OFFCURVE",
"427 235 CURVE SMOOTH",
"349 235 OFFCURVE",
"297 277 OFFCURVE",
"297 357 CURVE SMOOTH",
"297 398 OFFCURVE",
"311 441 OFFCURVE",
"311 477 CURVE SMOOTH",
"311 526 OFFCURVE",
"285 553 OFFCURVE",
"228 553 CURVE",
"123 553 OFFCURVE",
"55 457 OFFCURVE",
"55 311 CURVE",
"55 105 OFFCURVE",
"212 -10 OFFCURVE",
"415 -10 CURVE SMOOTH"
);
},
{
closed = 1;
nodes = (
"435 369 OFFCURVE",
"412 396 OFFCURVE",
"412 434 CURVE SMOOTH",
"412 472 OFFCURVE",
"435 499 OFFCURVE",
"476 499 CURVE SMOOTH",
"518 499 OFFCURVE",
"542 472 OFFCURVE",
"542 434 CURVE SMOOTH",
"542 396 OFFCURVE",
"518 369 OFFCURVE",
"476 369 CURVE SMOOTH"
);
}
);
width = 840;
}
);
},
{
glyphname = "mb-sinhala";
lastChange = "2024-02-21 03:15:18 +0000";
layers = (
{
layerId = "25BA55F5-DD3E-4682-A696-ADF7D9496427";
name = Light;
paths = (
{
closed = 1;
nodes = (
"552 499 OFFCURVE",
"575 472 OFFCURVE",
"575 434 CURVE SMOOTH",
"575 396 OFFCURVE",
"552 369 OFFCURVE",
"509 369 CURVE SMOOTH",
"469 369 OFFCURVE",
"445 396 OFFCURVE",
"445 434 CURVE SMOOTH",
"445 472 OFFCURVE",
"469 499 OFFCURVE",
"509 499 CURVE SMOOTH"
);
},
{
closed = 1;
nodes = (
"839 633 OFFCURVE",
"691 823 OFFCURVE",
"413 823 CURVE",
"277 823 OFFCURVE",
"185 774 OFFCURVE",
"179 689 CURVE SMOOTH",
"178 670 OFFCURVE",
"182 655 OFFCURVE",
"189 633 CURVE",
"240 659 LINE",
"236 667 OFFCURVE",
"234 677 OFFCURVE",
"234 688 CURVE SMOOTH",
"234 735 OFFCURVE",
"296 769 OFFCURVE",
"413 769 CURVE",
"605 769 OFFCURVE",
"736 656 OFFCURVE",
"766 534 CURVE",
"768 538 LINE",
"723 637 OFFCURVE",
"568 700 OFFCURVE",
"414 700 CURVE",
"287 700 OFFCURVE",
"181 666 OFFCURVE",
"114 632 CURVE",
"114 576 LINE",
"191 616 OFFCURVE",
"287 645 OFFCURVE",
"414 645 CURVE",
"618 645 OFFCURVE",
"779 556 OFFCURVE",
"779 342 CURVE",
"779 192 OFFCURVE",
"735 45 OFFCURVE",
"603 45 CURVE SMOOTH",
"548 45 OFFCURVE",
"526 53 OFFCURVE",
"502 64 CURVE",
"510 43 LINE",
"574 43 OFFCURVE",
"598 87 OFFCURVE",
"598 142 CURVE SMOOTH",
"598 224 OFFCURVE",
"532 271 OFFCURVE",
"439 271 CURVE",
"346 271 OFFCURVE",
"281 224 OFFCURVE",
"281 142 CURVE SMOOTH",
"281 83 OFFCURVE",
"311 47 OFFCURVE",
"375 43 CURVE",
"376 64 LINE",
"352 53 OFFCURVE",
"330 45 OFFCURVE",
"275 45 CURVE SMOOTH",
"163 45 OFFCURVE",
"125 152 OFFCURVE",
"125 278 CURVE",
"125 409 OFFCURVE",
"184 498 OFFCURVE",
"244 498 CURVE",
"269 498 OFFCURVE",
"279 483 OFFCURVE",
"279 458 CURVE SMOOTH",
"279 426 OFFCURVE",
"268 403 OFFCURVE",
"268 370 CURVE SMOOTH",
"268 280 OFFCURVE",
"338 225 OFFCURVE",
"457 225 CURVE SMOOTH",
"570 225 OFFCURVE",
"644 251 OFFCURVE",
"644 382 CURVE",
"644 480 OFFCURVE",
"593 554 OFFCURVE",
"508 554 CURVE SMOOTH",
"439 554 OFFCURVE",
"387 505 OFFCURVE",
"387 434 CURVE SMOOTH",
"387 357 OFFCURVE",
"437 314 OFFCURVE",
"503 314 CURVE SMOOTH",
"550 314 OFFCURVE",
"600 347 OFFCURVE",
"600 395 CURVE",
"588 425 LINE",
"591 405 OFFCURVE",
"593 394 OFFCURVE",
"593 385 CURVE SMOOTH",
"593 288 OFFCURVE",
"547 272 OFFCURVE",
"457 272 CURVE SMOOTH",
"367 272 OFFCURVE",
"328 312 OFFCURVE",
"328 371 CURVE SMOOTH",
"328 397 OFFCURVE",
"339 421 OFFCURVE",
"339 459 CURVE SMOOTH",
"339 516 OFFCURVE",
"310 553 OFFCURVE",
"252 553 CURVE",
"124 553 OFFCURVE",
"65 415 OFFCURVE",
"65 278 CURVE",
"65 278 LINE",
"65 121 OFFCURVE",
"130 -9 OFFCURVE",
"276 -9 CURVE SMOOTH",
"330 -9 OFFCURVE",
"376 0 OFFCURVE",
"411 18 CURVE",
"411 75 LINE",
"372 73 OFFCURVE",
"340 90 OFFCURVE",
"340 142 CURVE SMOOTH",
"340 185 OFFCURVE",
"376 221 OFFCURVE",
"440 221 CURVE",
"504 221 OFFCURVE",
"539 185 OFFCURVE",
"539 142 CURVE SMOOTH",
"539 90 OFFCURVE",
"506 73 OFFCURVE",
"467 75 CURVE",
"467 18 LINE",
"502 0 OFFCURVE",
"549 -10 OFFCURVE",
"603 -10 CURVE SMOOTH",
"779 -10 OFFCURVE",
"839 164 OFFCURVE",
"839 341 CURVE"
);
}
);
width = 904;
}
);
},
{
glyphname = "r-sinhala";
lastChange = "2024-02-21 03:15:35 +0000";
layers = (
{
layerId = "25BA55F5-DD3E-4682-A696-ADF7D9496427";
name = Light;
paths = (
{
closed = 1;
nodes = (
"507 -10 OFFCURVE",
"623 95 OFFCURVE",
"623 271 CURVE SMOOTH",
"623 446 OFFCURVE",
"507 553 OFFCURVE",
"354 553 CURVE SMOOTH",
"200 553 OFFCURVE",
"80 446 OFFCURVE",
"80 271 CURVE SMOOTH",
"80 95 OFFCURVE",
"200 -10 OFFCURVE",
"354 -10 CURVE SMOOTH"
);
},
{
closed = 1;
nodes = (
"228 42 OFFCURVE",
"138 129 OFFCURVE",
"138 271 CURVE SMOOTH",
"138 412 OFFCURVE",
"228 501 OFFCURVE",
"354 501 CURVE SMOOTH",
"479 501 OFFCURVE",
"565 412 OFFCURVE",
"565 271 CURVE SMOOTH",
"565 129 OFFCURVE",
"479 42 OFFCURVE",
"354 42 CURVE SMOOTH"
);
},
{
closed = 1;
nodes = (
"399 558 OFFCURVE",
"519 660 OFFCURVE",
"566 755 CURVE",
"507 755 LINE",
"457 678 OFFCURVE",
"341 575 OFFCURVE",
"250 535 CURVE",
"307 520 LINE"
);
},
{
closed = 1;
nodes = (
"223 480 LINE",
"223 718 LINE",
"223 743 OFFCURVE",
"224 790 OFFCURVE",
"212 812 CURVE",
"200 781 LINE",
"212 793 OFFCURVE",
"239 806 OFFCURVE",
"262 806 CURVE SMOOTH",
"304 806 OFFCURVE",
"322 779 OFFCURVE",
"322 747 CURVE SMOOTH",
"322 672 OFFCURVE",
"251 664 OFFCURVE",
"185 664 CURVE",
"200 605 LINE SMOOTH",
"302 605 OFFCURVE",
"380 655 OFFCURVE",
"380 745 CURVE SMOOTH",
"380 810 OFFCURVE",
"341 863 OFFCURVE",
"266 863 CURVE SMOOTH",
"227 863 OFFCURVE",
"198 844 OFFCURVE",
"180 820 CURVE",
"209 820 LINE",
"203 837 OFFCURVE",
"197 849 OFFCURVE",
"187 860 CURVE",
"126 860 LINE",
"160 816 OFFCURVE",
"166 773 OFFCURVE",
"166 718 CURVE SMOOTH",
"166 480 LINE"
);
}
);
width = 688;
}
);
rightMetricsKey = snRA;
},
{
glyphname = "v-sinhala";
lastChange = "2024-02-21 03:15:54 +0000";
layers = (
{
background = {
paths = (
{
closed = 1;
nodes = (
"125 380 OFFCURVE",
"49 305 OFFCURVE",
"49 201 CURVE SMOOTH",
"49 71 OFFCURVE",
"170 -10 OFFCURVE",
"326 -10 CURVE SMOOTH",
"571 -10 OFFCURVE",
"672 177 OFFCURVE",
"672 367 CURVE",
"672 573 OFFCURVE",
"587 773 OFFCURVE",
"302 773 CURVE",
"213 773 OFFCURVE",
"130 753 OFFCURVE",
"69 727 CURVE",
"69 672 LINE",
"129 697 OFFCURVE",
"213 718 OFFCURVE",
"302 718 CURVE",
"530 718 OFFCURVE",
"612 570 OFFCURVE",
"612 367 CURVE",
"612 178 OFFCURVE",
"505 45 OFFCURVE",
"327 45 CURVE SMOOTH",
"204 45 OFFCURVE",
"113 103 OFFCURVE",
"113 202 CURVE SMOOTH",
"113 278 OFFCURVE",
"158 326 OFFCURVE",
"265 326 CURVE",
"378 326 LINE",
"380 340 OFFCURVE",
"380 353 OFFCURVE",
"380 367 CURVE",
"380 462 OFFCURVE",
"337 553 OFFCURVE",
"211 553 CURVE SMOOTH",
"119 553 OFFCURVE",
"65 499 OFFCURVE",
"65 424 CURVE",
"125 424 LINE",
"128 471 OFFCURVE",
"159 498 OFFCURVE",
"212 498 CURVE",
"296 498 OFFCURVE",
"316 439 OFFCURVE",
"316 380 CURVE",
"246 380 LINE"
);
}
);
};
layerId = "25BA55F5-DD3E-4682-A696-ADF7D9496427";
name = Light;
paths = (
{
closed = 1;
nodes = (
"571 -10 OFFCURVE",
"671 152 OFFCURVE",
"671 332 CURVE",
"671 624 OFFCURVE",
"558 823 OFFCURVE",
"310 823 CURVE",
"204 823 OFFCURVE",
"136 784 OFFCURVE",
"130 699 CURVE SMOOTH",
"129 680 OFFCURVE",
"133 665 OFFCURVE",
"140 643 CURVE",
"191 669 LINE",
"187 677 OFFCURVE",
"185 687 OFFCURVE",
"185 698 CURVE SMOOTH",
"185 745 OFFCURVE",
"223 769 OFFCURVE",
"310 769 CURVE",
"472 769 OFFCURVE",
"567 656 OFFCURVE",
"597 534 CURVE",
"602 538 LINE",
"557 637 OFFCURVE",
"429 703 OFFCURVE",
"275 703 CURVE",
"205 703 OFFCURVE",
"128 689 OFFCURVE",
"65 668 CURVE",
"65 613 LINE",
"128 634 OFFCURVE",
"205 648 OFFCURVE",
"275 648 CURVE",
"479 648 OFFCURVE",
"611 547 OFFCURVE",
"611 333 CURVE",
"611 154 OFFCURVE",
"505 45 OFFCURVE",
"327 45 CURVE SMOOTH",
"204 45 OFFCURVE",
"113 103 OFFCURVE",
"113 202 CURVE SMOOTH",
"113 278 OFFCURVE",
"158 326 OFFCURVE",
"265 326 CURVE",
"378 326 LINE",
"380 340 OFFCURVE",
"380 353 OFFCURVE",
"380 367 CURVE",
"380 462 OFFCURVE",
"337 553 OFFCURVE",
"211 553 CURVE SMOOTH",
"119 553 OFFCURVE",
"65 499 OFFCURVE",
"65 424 CURVE",
"125 424 LINE",
"128 471 OFFCURVE",
"159 498 OFFCURVE",
"212 498 CURVE",
"296 498 OFFCURVE",
"316 439 OFFCURVE",
"316 380 CURVE",
"246 380 LINE",
"125 380 OFFCURVE",
"49 305 OFFCURVE",
"49 201 CURVE SMOOTH",
"49 71 OFFCURVE",
"170 -10 OFFCURVE",
"326 -10 CURVE SMOOTH"
);
}
);
width = 741;
}
);
},
{
color = 8;
glyphname = "khi-sinhala";
lastChange = "2024-02-21 01:14:21 +0000";
layers = (
{
background = {
paths = (
{
closed = 1;
nodes = (
"178 44 OFFCURVE",
"149 74 OFFCURVE",
"149 120 CURVE SMOOTH",
"149 167 OFFCURVE",
"177 199 OFFCURVE",
"223 199 CURVE SMOOTH",
"268 199 OFFCURVE",
"295 169 OFFCURVE",
"295 122 CURVE SMOOTH",
"295 76 OFFCURVE",
"269 44 OFFCURVE",
"224 44 CURVE SMOOTH"
);
},
{
closed = 1;
nodes = (
"763 546 OFFCURVE",
"658 773 OFFCURVE",
"347 773 CURVE",
"258 773 OFFCURVE",
"149 747 OFFCURVE",
"88 710 CURVE",
"88 655 LINE",
"148 691 OFFCURVE",
"258 718 OFFCURVE",
"347 718 CURVE",
"601 718 OFFCURVE",
"703 544 OFFCURVE",
"703 320 CURVE",
"703 178 OFFCURVE",
"685 45 OFFCURVE",
"586 45 CURVE SMOOTH",
"539 45 OFFCURVE",
"507 76 OFFCURVE",
"493 106 CURVE",
"465 63 LINE",
"484 30 OFFCURVE",
"523 -10 OFFCURVE",
"586 -10 CURVE SMOOTH",
"731 -10 OFFCURVE",
"763 152 OFFCURVE",
"763 319 CURVE"
);
},
{
closed = 1;
nodes = (
"50 102 OFFCURVE",
"110 -10 OFFCURVE",
"225 -10 CURVE SMOOTH",
"296 -10 OFFCURVE",
"349 42 OFFCURVE",
"349 123 CURVE SMOOTH",
"349 202 OFFCURVE",
"303 253 OFFCURVE",
"229 253 CURVE SMOOTH",
"167 253 OFFCURVE",
"114 213 OFFCURVE",
"114 134 CURVE",
"130 129 LINE",
"126 144 OFFCURVE",
"108 167 OFFCURVE",
"108 224 CURVE SMOOTH",
"108 320 OFFCURVE",
"156 427 OFFCURVE",
"288 427 CURVE",
"409 427 OFFCURVE",
"461 340 OFFCURVE",
"461 222 CURVE SMOOTH",
"461 132 OFFCURVE",
"425 50 OFFCURVE",
"398 0 CURVE",
"462 0 LINE",
"497 60 OFFCURVE",
"521 147 OFFCURVE",
"521 222 CURVE SMOOTH",
"521 356 OFFCURVE",
"456 482 OFFCURVE",
"289 482 CURVE",
"140 482 OFFCURVE",
"50 374 OFFCURVE",
"50 223 CURVE SMOOTH"
);
}
);
};
layerId = "25BA55F5-DD3E-4682-A696-ADF7D9496427";
name = Light;
paths = (
{
closed = 1;
nodes = (
"178 44 OFFCURVE",
"149 74 OFFCURVE",
"149 120 CURVE SMOOTH",
"149 167 OFFCURVE",
"177 199 OFFCURVE",
"223 199 CURVE SMOOTH",
"268 199 OFFCURVE",
"295 169 OFFCURVE",
"295 122 CURVE SMOOTH",
"295 76 OFFCURVE",
"269 44 OFFCURVE",
"224 44 CURVE SMOOTH"
);
},
{
closed = 1;
nodes = (
"763 576 OFFCURVE",
"598 635 OFFCURVE",
"347 635 CURVE SMOOTH",
"224 635 OFFCURVE",
"150 643 OFFCURVE",
"150 706 CURVE SMOOTH",
"150 775 OFFCURVE",
"266 789 OFFCURVE",
"380 789 CURVE SMOOTH",
"513 789 OFFCURVE",
"632 766 OFFCURVE",
"632 664 CURVE",
"692 664 LINE",
"692 800 OFFCURVE",
"565 844 OFFCURVE",
"380 844 CURVE SMOOTH",
"221 844 OFFCURVE",
"90 814 OFFCURVE",
"90 706 CURVE SMOOTH",
"90 595 OFFCURVE",
"213 580 OFFCURVE",
"347 580 CURVE SMOOTH",
"571 580 OFFCURVE",
"703 525 OFFCURVE",
"703 300 CURVE SMOOTH",
"703 168 OFFCURVE",
"685 45 OFFCURVE",
"586 45 CURVE SMOOTH",
"539 45 OFFCURVE",
"507 76 OFFCURVE",
"493 106 CURVE",
"465 63 LINE",
"484 30 OFFCURVE",
"523 -10 OFFCURVE",
"586 -10 CURVE SMOOTH",
"731 -10 OFFCURVE",
"763 142 OFFCURVE",
"763 299 CURVE SMOOTH"
);
},
{
closed = 1;
nodes = (
"50 102 OFFCURVE",
"110 -10 OFFCURVE",
"225 -10 CURVE SMOOTH",
"296 -10 OFFCURVE",
"349 42 OFFCURVE",
"349 123 CURVE SMOOTH",
"349 202 OFFCURVE",
"303 253 OFFCURVE",
"229 253 CURVE SMOOTH",
"167 253 OFFCURVE",
"114 213 OFFCURVE",
"114 134 CURVE",
"130 129 LINE",
"126 144 OFFCURVE",
"108 167 OFFCURVE",
"108 224 CURVE SMOOTH",
"108 320 OFFCURVE",
"156 427 OFFCURVE",
"288 427 CURVE SMOOTH",
"409 427 OFFCURVE",
"461 340 OFFCURVE",
"461 222 CURVE SMOOTH",
"461 132 OFFCURVE",
"425 50 OFFCURVE",
"398 0 CURVE",
"462 0 LINE",
"497 60 OFFCURVE",
"521 147 OFFCURVE",
"521 222 CURVE SMOOTH",
"521 356 OFFCURVE",
"456 482 OFFCURVE",
"289 482 CURVE SMOOTH",
"140 482 OFFCURVE",
"50 374 OFFCURVE",
"50 223 CURVE SMOOTH"
);
}
);
width = 838;
}
);
},
{
glyphname = "ngi-sinhala";
lastChange = "2024-02-21 01:14:21 +0000";
layers = (
{
background = {
paths = (
{
closed = 1;
nodes = (
"393 467 OFFCURVE",
"332 553 OFFCURVE",
"195 553 CURVE SMOOTH",
"117 553 OFFCURVE",
"55 517 OFFCURVE",
"55 443 CURVE SMOOTH",
"55 385 OFFCURVE",
"102 349 OFFCURVE",
"155 349 CURVE SMOOTH",
"229 349 OFFCURVE",
"254 395 OFFCURVE",
"254 452 CURVE SMOOTH",
"254 471 OFFCURVE",
"248 495 OFFCURVE",
"241 516 CURVE",
"193 523 LINE",
"197 505 OFFCURVE",
"202 488 OFFCURVE",
"202 465 CURVE SMOOTH",
"202 442 OFFCURVE",
"199 401 OFFCURVE",
"156 401 CURVE SMOOTH",
"132 401 OFFCURVE",
"111 415 OFFCURVE",
"111 444 CURVE SMOOTH",
"111 487 OFFCURVE",
"143 502 OFFCURVE",
"194 502 CURVE",
"274 502 OFFCURVE",
"330 448 OFFCURVE",
"330 364 CURVE SMOOTH",
"330 348 OFFCURVE",
"329 337 OFFCURVE",
"328 330 CURVE",
"244 331 LINE",
"137 331 OFFCURVE",
"65 275 OFFCURVE",
"65 162 CURVE SMOOTH",
"65 65 OFFCURVE",
"128 -10 OFFCURVE",
"234 -10 CURVE SMOOTH",
"298 -10 OFFCURVE",
"341 19 OFFCURVE",
"361 58 CURVE",
"377 29 OFFCURVE",
"417 -10 OFFCURVE",
"479 -10 CURVE SMOOTH",
"642 -10 OFFCURVE",
"683 188 OFFCURVE",
"683 355 CURVE",
"683 565 OFFCURVE",
"600 773 OFFCURVE",
"309 773 CURVE",
"220 773 OFFCURVE",
"137 753 OFFCURVE",
"76 727 CURVE",
"76 672 LINE",
"136 697 OFFCURVE",
"220 718 OFFCURVE",
"309 718 CURVE",
"543 718 OFFCURVE",
"623 563 OFFCURVE",
"623 356 CURVE",
"623 214 OFFCURVE",
"590 45 OFFCURVE",
"483 45 CURVE SMOOTH",
"414 45 OFFCURVE",
"390 94 OFFCURVE",
"390 142 CURVE",
"390 156 LINE",
"331 156 LINE",
"331 142 LINE",
"331 94 OFFCURVE",
"301 45 OFFCURVE",
"235 45 CURVE SMOOTH",
"163 45 OFFCURVE",
"125 97 OFFCURVE",
"125 163 CURVE SMOOTH",
"125 245 OFFCURVE",
"175 276 OFFCURVE",
"283 276 CURVE",
"389 276 LINE",
"391 289 OFFCURVE",
"393 320 OFFCURVE",
"393 344 CURVE"
);
}
);
};
layerId = "25BA55F5-DD3E-4682-A696-ADF7D9496427";
name = Light;
paths = (
{
closed = 1;
nodes = (
"683 566 OFFCURVE",
"578 645 OFFCURVE",
"347 645 CURVE SMOOTH",
"234 645 OFFCURVE",
"150 651 OFFCURVE",
"150 714 CURVE",
"150 783 OFFCURVE",
"256 789 OFFCURVE",
"350 789 CURVE SMOOTH",
"473 789 OFFCURVE",
"582 766 OFFCURVE",
"582 664 CURVE",
"642 664 LINE",
"642 800 OFFCURVE",
"525 844 OFFCURVE",
"350 844 CURVE SMOOTH",
"211 844 OFFCURVE",
"90 822 OFFCURVE",
"90 714 CURVE",
"90 603 OFFCURVE",
"223 590 OFFCURVE",
"347 590 CURVE SMOOTH",
"551 590 OFFCURVE",
"623 515 OFFCURVE",
"623 330 CURVE",
"623 188 OFFCURVE",
"590 45 OFFCURVE",
"483 45 CURVE SMOOTH",
"414 45 OFFCURVE",
"390 94 OFFCURVE",
"390 142 CURVE",
"390 156 LINE",
"331 156 LINE",
"331 142 LINE",
"331 94 OFFCURVE",
"301 45 OFFCURVE",
"235 45 CURVE SMOOTH",
"163 45 OFFCURVE",
"125 97 OFFCURVE",
"125 163 CURVE SMOOTH",
"125 245 OFFCURVE",
"175 276 OFFCURVE",
"283 276 CURVE",
"389 276 LINE",
"391 289 OFFCURVE",
"393 320 OFFCURVE",
"393 344 CURVE",
"393 467 OFFCURVE",
"332 553 OFFCURVE",
"195 553 CURVE SMOOTH",
"117 553 OFFCURVE",
"55 517 OFFCURVE",
"55 443 CURVE SMOOTH",
"55 385 OFFCURVE",
"102 349 OFFCURVE",
"155 349 CURVE SMOOTH",
"229 349 OFFCURVE",
"254 395 OFFCURVE",
"254 452 CURVE SMOOTH",
"254 471 OFFCURVE",
"248 495 OFFCURVE",
"241 516 CURVE",
"193 523 LINE",
"197 505 OFFCURVE",
"202 488 OFFCURVE",
"202 465 CURVE SMOOTH",
"202 442 OFFCURVE",
"199 401 OFFCURVE",
"156 401 CURVE SMOOTH",
"132 401 OFFCURVE",
"111 415 OFFCURVE",
"111 444 CURVE SMOOTH",
"111 487 OFFCURVE",
"143 502 OFFCURVE",
"194 502 CURVE",
"274 502 OFFCURVE",
"330 448 OFFCURVE",
"330 364 CURVE SMOOTH",
"330 348 OFFCURVE",
"329 337 OFFCURVE",
"328 330 CURVE",
"244 331 LINE",
"137 331 OFFCURVE",
"65 275 OFFCURVE",
"65 162 CURVE SMOOTH",
"65 65 OFFCURVE",
"128 -10 OFFCURVE",
"234 -10 CURVE SMOOTH",
"298 -10 OFFCURVE",
"341 19 OFFCURVE",
"361 58 CURVE",
"377 29 OFFCURVE",
"417 -10 OFFCURVE",
"479 -10 CURVE SMOOTH",
"642 -10 OFFCURVE",
"683 162 OFFCURVE",
"683 329 CURVE"
);
}
);
width = 758;
}
);
},
{
glyphname = "ci-sinhala";
lastChange = "2024-02-21 01:14:21 +0000";
layers = (
{
layerId = "25BA55F5-DD3E-4682-A696-ADF7D9496427";
name = Light;
paths = (
{
closed = 1;
nodes = (
"125 424 LINE",
"128 471 OFFCURVE",
"159 498 OFFCURVE",
"212 498 CURVE",
"296 498 OFFCURVE",
"316 439 OFFCURVE",
"316 380 CURVE",
"30 380 LINE",
"30 325 LINE",
"378 326 LINE",
"380 340 OFFCURVE",
"380 353 OFFCURVE",
"380 367 CURVE",
"380 462 OFFCURVE",
"337 553 OFFCURVE",
"211 553 CURVE SMOOTH",
"119 553 OFFCURVE",
"65 499 OFFCURVE",
"65 424 CURVE"
);
},
{
closed = 1;
nodes = (
"675 576 OFFCURVE",
"570 645 OFFCURVE",
"339 645 CURVE SMOOTH",
"226 645 OFFCURVE",
"142 651 OFFCURVE",
"142 714 CURVE",
"142 783 OFFCURVE",
"248 789 OFFCURVE",
"342 789 CURVE SMOOTH",
"465 789 OFFCURVE",
"574 766 OFFCURVE",
"574 664 CURVE",
"634 664 LINE",
"634 800 OFFCURVE",
"517 844 OFFCURVE",
"342 844 CURVE SMOOTH",
"203 844 OFFCURVE",
"82 822 OFFCURVE",
"82 714 CURVE",
"82 603 OFFCURVE",
"215 590 OFFCURVE",
"339 590 CURVE SMOOTH",
"543 590 OFFCURVE",
"615 525 OFFCURVE",
"615 340 CURVE",
"615 151 OFFCURVE",
"528 45 OFFCURVE",
"350 45 CURVE SMOOTH",
"227 45 OFFCURVE",
"136 103 OFFCURVE",
"136 202 CURVE SMOOTH",
"136 278 OFFCURVE",
"181 326 OFFCURVE",
"248 326 CURVE",
"130 326 LINE",
"95 303 OFFCURVE",
"72 259 OFFCURVE",
"72 201 CURVE SMOOTH",
"72 71 OFFCURVE",
"193 -10 OFFCURVE",
"349 -10 CURVE SMOOTH",
"594 -10 OFFCURVE",
"675 149 OFFCURVE",
"675 339 CURVE"
);
}
);
width = 750;
}
);
},
{
glyphname = "chi-sinhala";
lastChange = "2024-02-21 01:14:21 +0000";
layers = (
{
background = {
paths = (
{
closed = 1;
nodes = (
"654 828 OFFCURVE",
"652 706 OFFCURVE",
"596 609 CURVE SMOOTH",
"544 519 OFFCURVE",
"440 458 OFFCURVE",
"351 510 CURVE",
"381 562 LINE",
"436 530 OFFCURVE",
"507 564 OFFCURVE",
"548 636 CURVE SMOOTH",
"593 713 OFFCURVE",
"590 796 OFFCURVE",
"534 828 CURVE",
"564 880 LINE"
);
}
);
};
components = (
{
alignment = -1;
name = "cha-sinhala";
}
);
layerId = "25BA55F5-DD3E-4682-A696-ADF7D9496427";
name = Light;
paths = (
{
closed = 1;
nodes = (
"366 607 LINE",
"346 611 OFFCURVE",
"335 624 OFFCURVE",
"335 648 CURVE SMOOTH",
"335 707 OFFCURVE",
"401 770 OFFCURVE",
"472 770 CURVE SMOOTH",
"506 770 OFFCURVE",
"534 755 OFFCURVE",
"538 721 CURVE",
"596 721 LINE",
"596 786 OFFCURVE",
"540 819 OFFCURVE",
"475 819 CURVE SMOOTH",
"373 819 OFFCURVE",
"284 739 OFFCURVE",
"284 644 CURVE SMOOTH",
"284 592 OFFCURVE",
"311 550 OFFCURVE",
"366 548 CURVE"
);
}
);
width = 754;
},
{
associatedMasterId = "25BA55F5-DD3E-4682-A696-ADF7D9496427";
background = {
paths = (
{
closed = 1;
nodes = (
"654 828 OFFCURVE",
"652 706 OFFCURVE",
"596 609 CURVE SMOOTH",
"544 519 OFFCURVE",
"440 458 OFFCURVE",
"351 510 CURVE",
"381 562 LINE",
"436 530 OFFCURVE",
"507 564 OFFCURVE",
"548 636 CURVE SMOOTH",
"593 713 OFFCURVE",
"590 796 OFFCURVE",
"534 828 CURVE",
"564 880 LINE"
);
}
);
};
components = (
{
alignment = -1;
name = "cha-sinhala";
}
);
layerId = "EB027834-9079-42C8-923B-E1700BAB51F9";
name = "Light Oct 15 15, 18:45";
paths = (
{
closed = 1;
nodes = (
"575 788 LINE",
"532 828 OFFCURVE",
"459 802 OFFCURVE",
"405 742 CURVE SMOOTH",
"351 682 OFFCURVE",
"339 614 OFFCURVE",
"383 574 CURVE",
"343 531 LINE",
"270 596 OFFCURVE",
"296 704 OFFCURVE",
"364 782 CURVE SMOOTH",
"434 858 OFFCURVE",
"543 898 OFFCURVE",
"616 833 CURVE"
);
}
);
width = 754;
}
);
},
{
glyphname = "ji-sinhala";
lastChange = "2024-02-21 01:14:21 +0000";
layers = (
{
components = (
{
alignment = -1;
name = "ja-sinhala";
}
);
layerId = "25BA55F5-DD3E-4682-A696-ADF7D9496427";
name = Light;
paths = (
{
closed = 1;
nodes = (
"366 600 LINE",
"346 604 OFFCURVE",
"335 624 OFFCURVE",
"335 648 CURVE SMOOTH",
"335 707 OFFCURVE",
"401 770 OFFCURVE",
"472 770 CURVE SMOOTH",
"506 770 OFFCURVE",
"534 755 OFFCURVE",
"538 721 CURVE",
"596 721 LINE",
"596 786 OFFCURVE",
"540 819 OFFCURVE",
"475 819 CURVE SMOOTH",
"373 819 OFFCURVE",
"284 739 OFFCURVE",
"284 644 CURVE SMOOTH",
"284 592 OFFCURVE",
"311 550 OFFCURVE",
"366 548 CURVE"
);
}
);
width = 758;
}
);
},
{
glyphname = "jhi-sinhala";
lastChange = "2024-02-24 01:37:04 +0000";
layers = (
{
layerId = "25BA55F5-DD3E-4682-A696-ADF7D9496427";
name = Light;
paths = (
{
closed = 1;
nodes = (
"89 0 LINE",
"238 253 OFFCURVE",
"326 321 OFFCURVE",
"461 321 CURVE",
"563 321 OFFCURVE",
"622 267 OFFCURVE",
"622 168 CURVE SMOOTH",
"622 102 OFFCURVE",
"606 45 OFFCURVE",
"548 45 CURVE SMOOTH",
"499 45 OFFCURVE",
"474 99 OFFCURVE",
"474 163 CURVE SMOOTH",
"474 181 LINE",
"414 181 LINE",
"414 164 LINE SMOOTH",
"414 108 OFFCURVE",
"403 45 OFFCURVE",
"347 45 CURVE SMOOTH",
"287 45 OFFCURVE",
"261 139 OFFCURVE",
"207 139 CURVE SMOOTH",
"163 139 OFFCURVE",
"153 111 OFFCURVE",
"118 69 CURVE",
"89 0 LINE",
"109 43 OFFCURVE",
"143 86 OFFCURVE",
"183 86 CURVE SMOOTH",
"239 86 OFFCURVE",
"255 -10 OFFCURVE",
"346 -10 CURVE SMOOTH",
"400 -10 OFFCURVE",
"428 25 OFFCURVE",
"444 83 CURVE",
"455 28 OFFCURVE",
"494 -10 OFFCURVE",
"551 -10 CURVE SMOOTH",
"644 -10 OFFCURVE",
"681 79 OFFCURVE",
"681 167 CURVE SMOOTH",
"681 291 OFFCURVE",
"595 375 OFFCURVE",
"467 375 CURVE",
"342 375 OFFCURVE",
"285 328 OFFCURVE",
"213 244 CURVE",
"234 261 LINE",
"332 426 OFFCURVE",
"427 498 OFFCURVE",
"559 498 CURVE",
"698 498 OFFCURVE",
"765 427 OFFCURVE",
"823 348 CURVE",
"868 370 LINE",
"804 477 OFFCURVE",
"710 553 OFFCURVE",
"560 553 CURVE",
"431 553 OFFCURVE",
"325 489 OFFCURVE",
"268 381 CURVE",
"197 275 LINE SMOOTH",
"27 0 LINE"
);
},
{
closed = 1;
nodes = (
"76 553 OFFCURVE",
"34 494 OFFCURVE",
"34 429 CURVE",
"94 429 LINE",
"95 466 OFFCURVE",
"113 498 OFFCURVE",
"169 498 CURVE",
"218 498 OFFCURVE",
"244 466 OFFCURVE",
"244 422 CURVE SMOOTH",
"244 377 OFFCURVE",
"226 331 OFFCURVE",
"189 261 CURVE",
"274 348 LINE",
"284 374 OFFCURVE",
"295 404 OFFCURVE",
"295 425 CURVE",
"295 493 OFFCURVE",
"250 553 OFFCURVE",
"164 553 CURVE SMOOTH"
);
},
{
closed = 1;
nodes = (
"1297 566 OFFCURVE",
"1192 645 OFFCURVE",
"961 645 CURVE SMOOTH",
"848 645 OFFCURVE",
"764 651 OFFCURVE",
"764 714 CURVE",
"764 783 OFFCURVE",
"870 789 OFFCURVE",
"964 789 CURVE SMOOTH",
"1087 789 OFFCURVE",
"1196 766 OFFCURVE",
"1196 664 CURVE",
"1256 664 LINE",
"1256 800 OFFCURVE",
"1139 844 OFFCURVE",
"964 844 CURVE SMOOTH",
"825 844 OFFCURVE",
"704 822 OFFCURVE",
"704 714 CURVE",
"704 603 OFFCURVE",
"837 590 OFFCURVE",
"961 590 CURVE SMOOTH",
"1165 590 OFFCURVE",
"1237 515 OFFCURVE",
"1237 330 CURVE",
"1237 198 OFFCURVE",
"1204 45 OFFCURVE",
"1097 45 CURVE SMOOTH",
"1028 45 OFFCURVE",
"1004 94 OFFCURVE",
"1004 142 CURVE",
"1004 176 LINE",
"945 176 LINE",
"945 142 LINE",
"945 94 OFFCURVE",
"914 45 OFFCURVE",
"848 45 CURVE SMOOTH",
"776 45 OFFCURVE",
"737 99 OFFCURVE",
"737 174 CURVE SMOOTH",
"737 260 OFFCURVE",
"790 315 OFFCURVE",
"868 315 CURVE",
"868 370 LINE",
"751 370 OFFCURVE",
"677 290 OFFCURVE",
"677 173 CURVE SMOOTH",
"677 76 OFFCURVE",
"741 -10 OFFCURVE",
"847 -10 CURVE SMOOTH",
"911 -10 OFFCURVE",
"955 19 OFFCURVE",
"975 58 CURVE",
"991 29 OFFCURVE",
"1031 -10 OFFCURVE",
"1093 -10 CURVE SMOOTH",
"1256 -10 OFFCURVE",
"1297 172 OFFCURVE",
"1297 329 CURVE"
);
}
);
width = 1372;
},
{
associatedMasterId = "25BA55F5-DD3E-4682-A696-ADF7D9496427";
layerId = "050282A5-62B9-4385-8D77-8BEA8DBE450E";
name = "24 Feb 24 at 07:07";
paths = (
{
closed = 1;
nodes = (
"89 0 LINE",
"238 253 OFFCURVE",
"326 321 OFFCURVE",
"461 321 CURVE",
"563 321 OFFCURVE",
"622 267 OFFCURVE",
"622 168 CURVE SMOOTH",
"622 102 OFFCURVE",
"606 45 OFFCURVE",
"548 45 CURVE SMOOTH",
"499 45 OFFCURVE",
"474 99 OFFCURVE",
"474 163 CURVE SMOOTH",
"474 181 LINE",
"414 181 LINE",
"414 164 LINE SMOOTH",
"414 108 OFFCURVE",
"403 45 OFFCURVE",
"347 45 CURVE SMOOTH",
"287 45 OFFCURVE",
"261 139 OFFCURVE",
"207 139 CURVE SMOOTH",
"163 139 OFFCURVE",
"153 111 OFFCURVE",
"118 69 CURVE",
"89 0 LINE",
"109 43 OFFCURVE",
"143 86 OFFCURVE",
"183 86 CURVE SMOOTH",
"239 86 OFFCURVE",
"255 -10 OFFCURVE",
"346 -10 CURVE SMOOTH",
"400 -10 OFFCURVE",
"428 25 OFFCURVE",
"444 83 CURVE",
"455 28 OFFCURVE",
"494 -10 OFFCURVE",
"551 -10 CURVE SMOOTH",
"644 -10 OFFCURVE",
"681 79 OFFCURVE",
"681 167 CURVE SMOOTH",
"681 291 OFFCURVE",
"595 375 OFFCURVE",
"467 375 CURVE",
"342 375 OFFCURVE",
"285 328 OFFCURVE",
"213 244 CURVE",
"234 261 LINE",
"332 426 OFFCURVE",
"427 498 OFFCURVE",
"559 498 CURVE",
"698 498 OFFCURVE",
"765 427 OFFCURVE",
"823 348 CURVE",
"868 370 LINE",
"804 477 OFFCURVE",
"710 553 OFFCURVE",
"560 553 CURVE",
"431 553 OFFCURVE",
"325 489 OFFCURVE",
"268 381 CURVE",
"197 275 LINE SMOOTH",
"27 0 LINE"
);
},
{
closed = 1;
nodes = (
"76 553 OFFCURVE",
"34 494 OFFCURVE",
"34 429 CURVE",
"94 429 LINE",
"95 466 OFFCURVE",
"113 498 OFFCURVE",
"169 498 CURVE",
"218 498 OFFCURVE",
"244 466 OFFCURVE",
"244 422 CURVE SMOOTH",
"244 377 OFFCURVE",
"226 331 OFFCURVE",
"189 261 CURVE",
"274 348 LINE",
"284 374 OFFCURVE",
"295 404 OFFCURVE",
"295 425 CURVE",
"295 493 OFFCURVE",
"250 553 OFFCURVE",
"164 553 CURVE SMOOTH"
);
},
{
closed = 1;
nodes = (
"1297 566 OFFCURVE",
"1192 645 OFFCURVE",
"961 645 CURVE SMOOTH",
"848 645 OFFCURVE",
"764 651 OFFCURVE",
"764 714 CURVE",
"764 783 OFFCURVE",
"870 789 OFFCURVE",
"964 789 CURVE SMOOTH",
"1087 789 OFFCURVE",
"1196 766 OFFCURVE",
"1196 664 CURVE",
"1256 664 LINE",
"1256 800 OFFCURVE",
"1139 844 OFFCURVE",
"964 844 CURVE SMOOTH",
"825 844 OFFCURVE",
"704 822 OFFCURVE",
"704 714 CURVE",
"704 603 OFFCURVE",
"837 590 OFFCURVE",
"961 590 CURVE SMOOTH",
"1165 590 OFFCURVE",
"1237 515 OFFCURVE",
"1237 330 CURVE",
"1237 198 OFFCURVE",
"1204 45 OFFCURVE",
"1097 45 CURVE SMOOTH",
"1028 45 OFFCURVE",
"1004 94 OFFCURVE",
"1004 142 CURVE",
"1004 176 LINE",
"945 176 LINE",
"945 142 LINE",
"945 94 OFFCURVE",
"914 45 OFFCURVE",
"848 45 CURVE SMOOTH",
"776 45 OFFCURVE",
"737 99 OFFCURVE",
"737 174 CURVE SMOOTH",
"737 260 OFFCURVE",
"790 315 OFFCURVE",
"868 315 CURVE",
"868 370 LINE",
"751 370 OFFCURVE",
"677 290 OFFCURVE",
"677 173 CURVE SMOOTH",
"677 76 OFFCURVE",
"741 -10 OFFCURVE",
"847 -10 CURVE SMOOTH",
"911 -10 OFFCURVE",
"955 19 OFFCURVE",
"975 58 CURVE",
"991 29 OFFCURVE",
"1031 -10 OFFCURVE",
"1093 -10 CURVE SMOOTH",
"1256 -10 OFFCURVE",
"1297 172 OFFCURVE",
"1297 329 CURVE"
);
}
);
width = 1372;
}
);
},
{
glyphname = "nyji-sinhala";
lastChange = "2024-02-21 01:14:21 +0000";
layers = (
{
components = (
{
alignment = -1;
name = "nyja-sinhala";
}
);
layerId = "25BA55F5-DD3E-4682-A696-ADF7D9496427";
name = Light;
paths = (
{
closed = 1;
nodes = (
"596 607 LINE",
"576 611 OFFCURVE",
"565 624 OFFCURVE",
"565 648 CURVE SMOOTH",
"565 707 OFFCURVE",
"631 770 OFFCURVE",
"702 770 CURVE SMOOTH",
"736 770 OFFCURVE",
"764 755 OFFCURVE",
"768 721 CURVE",
"826 721 LINE",
"826 786 OFFCURVE",
"770 819 OFFCURVE",
"705 819 CURVE SMOOTH",
"603 819 OFFCURVE",
"514 739 OFFCURVE",
"514 644 CURVE SMOOTH",
"514 592 OFFCURVE",
"541 550 OFFCURVE",
"596 548 CURVE"
);
}
);
width = 985;
}
);
},
{
glyphname = "tti-sinhala";
lastChange = "2024-02-21 01:14:21 +0000";
layers = (
{
layerId = "25BA55F5-DD3E-4682-A696-ADF7D9496427";
name = Light;
paths = (
{
closed = 1;
nodes = (
"656 556 OFFCURVE",
"551 645 OFFCURVE",
"320 645 CURVE SMOOTH",
"207 645 OFFCURVE",
"123 651 OFFCURVE",
"123 714 CURVE",
"123 783 OFFCURVE",
"229 789 OFFCURVE",
"323 789 CURVE SMOOTH",
"446 789 OFFCURVE",
"555 766 OFFCURVE",
"555 664 CURVE",
"615 664 LINE",
"615 800 OFFCURVE",
"498 844 OFFCURVE",
"323 844 CURVE SMOOTH",
"184 844 OFFCURVE",
"63 822 OFFCURVE",
"63 714 CURVE",
"63 603 OFFCURVE",
"196 590 OFFCURVE",
"320 590 CURVE SMOOTH",
"524 590 OFFCURVE",
"596 505 OFFCURVE",
"596 340 CURVE",
"596 171 OFFCURVE",
"519 45 OFFCURVE",
"342 45 CURVE SMOOTH",
"218 45 OFFCURVE",
"120 101 OFFCURVE",
"120 230 CURVE SMOOTH",
"120 336 OFFCURVE",
"196 396 OFFCURVE",
"302 396 CURVE SMOOTH",
"323 396 OFFCURVE",
"343 395 OFFCURVE",
"366 391 CURVE",
"366 445 LINE",
"346 450 OFFCURVE",
"327 452 OFFCURVE",
"303 452 CURVE",
"141 452 OFFCURVE",
"56 352 OFFCURVE",
"56 229 CURVE SMOOTH",
"56 69 OFFCURVE",
"184 -10 OFFCURVE",
"341 -10 CURVE SMOOTH",
"585 -10 OFFCURVE",
"656 169 OFFCURVE",
"656 339 CURVE"
);
}
);
width = 731;
}
);
},
{
glyphname = "tthi-sinhala";
lastChange = "2024-02-21 01:14:21 +0000";
layers = (
{
components = (
{
alignment = -1;
name = "ttha-sinhala";
}
);
layerId = "25BA55F5-DD3E-4682-A696-ADF7D9496427";
name = Light;
paths = (
{
closed = 1;
nodes = (
"306 573 LINE",
"264 577 OFFCURVE",
"239 629 OFFCURVE",
"239 684 CURVE SMOOTH",
"239 767 OFFCURVE",
"297 828 OFFCURVE",
"405 828 CURVE SMOOTH",
"497 828 OFFCURVE",
"572 784 OFFCURVE",
"578 701 CURVE",
"636 701 LINE",
"636 810 OFFCURVE",
"542 879 OFFCURVE",
"409 879 CURVE SMOOTH",
"262 879 OFFCURVE",
"181 796 OFFCURVE",
"181 683 CURVE SMOOTH",
"181 599 OFFCURVE",
"226 520 OFFCURVE",
"306 518 CURVE"
);
}
);
width = 766;
}
);
},
{
glyphname = "ddi-sinhala";
lastChange = "2024-02-21 01:14:21 +0000";
layers = (
{
layerId = "25BA55F5-DD3E-4682-A696-ADF7D9496427";
name = Light;
paths = (
{
closed = 1;
nodes = (
"130 424 LINE",
"133 471 OFFCURVE",
"164 498 OFFCURVE",
"217 498 CURVE",
"301 498 OFFCURVE",
"321 439 OFFCURVE",
"321 380 CURVE",
"35 380 LINE",
"35 325 LINE",
"383 326 LINE",
"385 340 OFFCURVE",
"385 353 OFFCURVE",
"385 367 CURVE",
"385 462 OFFCURVE",
"342 553 OFFCURVE",
"216 553 CURVE SMOOTH",
"124 553 OFFCURVE",
"70 499 OFFCURVE",
"70 424 CURVE"
);
},
{
closed = 1;
nodes = (
"696 566 OFFCURVE",
"583 645 OFFCURVE",
"360 645 CURVE SMOOTH",
"247 645 OFFCURVE",
"163 651 OFFCURVE",
"163 714 CURVE",
"163 783 OFFCURVE",
"269 789 OFFCURVE",
"363 789 CURVE SMOOTH",
"486 789 OFFCURVE",
"595 766 OFFCURVE",
"595 664 CURVE",
"655 664 LINE",
"655 800 OFFCURVE",
"538 844 OFFCURVE",
"363 844 CURVE SMOOTH",
"224 844 OFFCURVE",
"103 822 OFFCURVE",
"103 714 CURVE",
"103 603 OFFCURVE",
"236 590 OFFCURVE",
"360 590 CURVE SMOOTH",
"556 590 OFFCURVE",
"636 515 OFFCURVE",
"636 330 CURVE",
"636 168 OFFCURVE",
"608 45 OFFCURVE",
"501 45 CURVE SMOOTH",
"424 45 OFFCURVE",
"403 94 OFFCURVE",
"403 142 CURVE",
"403 176 LINE",
"344 176 LINE",
"344 142 LINE",
"344 94 OFFCURVE",
"323 45 OFFCURVE",
"249 45 CURVE SMOOTH",
"184 45 OFFCURVE",
"130 90 OFFCURVE",
"130 176 CURVE",
"130 272 OFFCURVE",
"186 326 OFFCURVE",
"253 326 CURVE",
"139 326 LINE",
"101 305 OFFCURVE",
"70 247 OFFCURVE",
"70 175 CURVE",
"70 58 OFFCURVE",
"149 -10 OFFCURVE",
"248 -10 CURVE SMOOTH",
"312 -10 OFFCURVE",
"354 22 OFFCURVE",
"374 61 CURVE",
"388 24 OFFCURVE",
"430 -10 OFFCURVE",
"497 -10 CURVE SMOOTH",
"660 -10 OFFCURVE",
"696 142 OFFCURVE",
"696 329 CURVE"
);
}
);
width = 771;
}
);
},
{
glyphname = "ddhi-sinhala";
lastChange = "2024-02-21 01:14:21 +0000";
layers = (
{
components = (
{
alignment = -1;
name = "ddha-sinhala";
}
);
layerId = "25BA55F5-DD3E-4682-A696-ADF7D9496427";
name = Light;
paths = (
{
closed = 1;
nodes = (
"317 643 LINE",
"275 648 OFFCURVE",
"249 682 OFFCURVE",
"249 727 CURVE SMOOTH",
"249 789 OFFCURVE",
"297 838 OFFCURVE",
"391 838 CURVE SMOOTH",
"484 838 OFFCURVE",
"557 789 OFFCURVE",
"563 701 CURVE",
"621 701 LINE",
"621 816 OFFCURVE",
"530 889 OFFCURVE",
"398 889 CURVE SMOOTH",
"266 889 OFFCURVE",
"192 816 OFFCURVE",
"192 721 CURVE SMOOTH",
"192 644 OFFCURVE",
"242 590 OFFCURVE",
"317 588 CURVE"
);
}
);
width = 769;
}
);
},
{
glyphname = "nni-sinhala";
lastChange = "2024-02-21 01:14:21 +0000";
layers = (
{
components = (
{
alignment = -1;
name = "nna-sinhala";
}
);
layerId = "25BA55F5-DD3E-4682-A696-ADF7D9496427";
name = Light;
paths = (
{
closed = 1;
nodes = (
"253 578 LINE",
"249 594 OFFCURVE",
"247 608 OFFCURVE",
"247 620 CURVE SMOOTH",
"247 689 OFFCURVE",
"306 743 OFFCURVE",
"394 743 CURVE SMOOTH",
"441 743 OFFCURVE",
"487 728 OFFCURVE",
"492 701 CURVE",
"550 701 LINE",
"550 758 OFFCURVE",
"482 792 OFFCURVE",
"400 792 CURVE SMOOTH",
"277 792 OFFCURVE",
"189 717 OFFCURVE",
"189 625 CURVE SMOOTH",
"189 608 OFFCURVE",
"192 595 OFFCURVE",
"196 577 CURVE"
);
}
);
width = 1149;
}
);
},
{
glyphname = "nnddi-sinhala";
lastChange = "2024-02-21 01:14:21 +0000";
layers = (
{
layerId = "25BA55F5-DD3E-4682-A696-ADF7D9496427";
name = Light;
paths = (
{
closed = 1;
nodes = (
"356 424 LINE",
"359 471 OFFCURVE",
"390 498 OFFCURVE",
"443 498 CURVE",
"527 498 OFFCURVE",
"547 439 OFFCURVE",
"547 380 CURVE",
"261 380 LINE",
"261 325 LINE",
"609 326 LINE",
"611 340 OFFCURVE",
"611 353 OFFCURVE",
"611 367 CURVE",
"611 462 OFFCURVE",
"568 553 OFFCURVE",
"442 553 CURVE SMOOTH",
"350 553 OFFCURVE",
"296 499 OFFCURVE",
"296 424 CURVE"
);
},
{
closed = 1;
nodes = (
"202 0 LINE",
"158 81 OFFCURVE",
"125 182 OFFCURVE",
"125 281 CURVE SMOOTH",
"125 420 OFFCURVE",
"166 503 OFFCURVE",
"241 503 CURVE SMOOTH",
"269 503 OFFCURVE",
"296 488 OFFCURVE",
"311 470 CURVE",
"356 493 LINE",
"336 525 OFFCURVE",
"292 553 OFFCURVE",
"240 553 CURVE SMOOTH",
"125 553 OFFCURVE",
"65 443 OFFCURVE",
"65 284 CURVE",
"65 171 OFFCURVE",
"97 66 OFFCURVE",
"135 0 CURVE"
);
},
{
closed = 1;
nodes = (
"922 566 OFFCURVE",
"817 645 OFFCURVE",
"586 645 CURVE SMOOTH",
"473 645 OFFCURVE",
"389 651 OFFCURVE",
"389 714 CURVE",
"389 783 OFFCURVE",
"495 789 OFFCURVE",
"589 789 CURVE SMOOTH",
"712 789 OFFCURVE",
"821 766 OFFCURVE",
"821 664 CURVE",
"881 664 LINE",
"881 800 OFFCURVE",
"764 844 OFFCURVE",
"589 844 CURVE SMOOTH",
"450 844 OFFCURVE",
"329 822 OFFCURVE",
"329 714 CURVE",
"329 603 OFFCURVE",
"462 590 OFFCURVE",
"586 590 CURVE SMOOTH",
"790 590 OFFCURVE",
"862 515 OFFCURVE",
"862 330 CURVE",
"862 178 OFFCURVE",
"834 45 OFFCURVE",
"727 45 CURVE SMOOTH",
"650 45 OFFCURVE",
"629 94 OFFCURVE",
"629 142 CURVE",
"629 176 LINE",
"570 176 LINE",
"570 142 LINE",
"570 94 OFFCURVE",
"549 45 OFFCURVE",
"475 45 CURVE SMOOTH",
"410 45 OFFCURVE",
"356 90 OFFCURVE",
"356 176 CURVE",
"356 272 OFFCURVE",
"412 326 OFFCURVE",
"479 326 CURVE",
"365 326 LINE",
"327 305 OFFCURVE",
"296 247 OFFCURVE",
"296 175 CURVE",
"296 58 OFFCURVE",
"375 -10 OFFCURVE",
"474 -10 CURVE SMOOTH",
"538 -10 OFFCURVE",
"580 22 OFFCURVE",
"600 61 CURVE",
"614 24 OFFCURVE",
"656 -10 OFFCURVE",
"723 -10 CURVE SMOOTH",
"886 -10 OFFCURVE",
"922 152 OFFCURVE",
"922 329 CURVE"
);
}
);
width = 997;
}
);
},
{
glyphname = "thi-sinhala";
lastChange = "2024-02-21 01:14:21 +0000";
layers = (
{
components = (
{
alignment = -1;
name = "tha-sinhala";
}
);
layerId = "25BA55F5-DD3E-4682-A696-ADF7D9496427";
name = Light;
paths = (
{
closed = 1;
nodes = (
"256 573 LINE",
"214 577 OFFCURVE",
"189 629 OFFCURVE",
"189 684 CURVE SMOOTH",
"189 767 OFFCURVE",
"247 828 OFFCURVE",
"355 828 CURVE SMOOTH",
"447 828 OFFCURVE",
"522 784 OFFCURVE",
"528 701 CURVE",
"586 701 LINE",
"586 810 OFFCURVE",
"492 879 OFFCURVE",
"359 879 CURVE SMOOTH",
"212 879 OFFCURVE",
"131 796 OFFCURVE",
"131 683 CURVE SMOOTH",
"131 599 OFFCURVE",
"176 520 OFFCURVE",
"256 518 CURVE"
);
}
);
width = 725;
}
);
},
{
glyphname = "di-sinhala";
lastChange = "2024-02-21 01:14:21 +0000";
layers = (
{
components = (
{
alignment = -1;
name = "da-sinhala";
transform = "{1, 0, 0, 1, 23, 0}";
}
);
layerId = "25BA55F5-DD3E-4682-A696-ADF7D9496427";
name = Light;
paths = (
{
closed = 1;
nodes = (
"140 493 LINE",
"121 497 OFFCURVE",
"102 518 OFFCURVE",
"102 558 CURVE SMOOTH",
"102 640 OFFCURVE",
"178 673 OFFCURVE",
"257 673 CURVE SMOOTH",
"350 673 OFFCURVE",
"396 627 OFFCURVE",
"396 581 CURVE",
"454 581 LINE",
"459 646 OFFCURVE",
"388 724 OFFCURVE",
"253 724 CURVE SMOOTH",
"134 724 OFFCURVE",
"45 664 OFFCURVE",
"45 558 CURVE SMOOTH",
"45 488 OFFCURVE",
"83 440 OFFCURVE",
"140 438 CURVE"
);
}
);
width = 554;
}
);
},
{
glyphname = "dhi-sinhala";
lastChange = "2024-02-21 01:14:21 +0000";
layers = (
{
layerId = "25BA55F5-DD3E-4682-A696-ADF7D9496427";
name = Light;
paths = (
{
closed = 1;
nodes = (
"623 177 OFFCURVE",
"597 45 OFFCURVE",
"490 45 CURVE SMOOTH",
"421 45 OFFCURVE",
"397 94 OFFCURVE",
"397 142 CURVE",
"397 176 LINE",
"338 176 LINE",
"338 142 LINE",
"338 93 OFFCURVE",
"312 45 OFFCURVE",
"248 45 CURVE SMOOTH",
"170 45 OFFCURVE",
"130 106 OFFCURVE",
"130 201 CURVE",
"130 317 OFFCURVE",
"192 396 OFFCURVE",
"298 396 CURVE SMOOTH",
"317 396 OFFCURVE",
"340 395 OFFCURVE",
"359 391 CURVE",
"359 444 LINE",
"340 450 OFFCURVE",
"317 452 OFFCURVE",
"298 452 CURVE SMOOTH",
"136 452 OFFCURVE",
"70 333 OFFCURVE",
"70 200 CURVE",
"70 83 OFFCURVE",
"132 -10 OFFCURVE",
"247 -10 CURVE SMOOTH",
"313 -10 OFFCURVE",
"348 24 OFFCURVE",
"368 58 CURVE",
"384 29 OFFCURVE",
"424 -10 OFFCURVE",
"486 -10 CURVE SMOOTH",
"649 -10 OFFCURVE",
"683 152 OFFCURVE",
"683 319 CURVE",
"683 556 OFFCURVE",
"578 645 OFFCURVE",
"347 645 CURVE SMOOTH",
"234 645 OFFCURVE",
"150 651 OFFCURVE",
"150 714 CURVE",
"150 783 OFFCURVE",
"256 789 OFFCURVE",
"350 789 CURVE SMOOTH",
"473 789 OFFCURVE",
"582 766 OFFCURVE",
"582 664 CURVE",
"642 664 LINE",
"642 800 OFFCURVE",
"525 844 OFFCURVE",
"350 844 CURVE SMOOTH",
"211 844 OFFCURVE",
"90 822 OFFCURVE",
"90 714 CURVE",
"90 603 OFFCURVE",
"223 590 OFFCURVE",
"347 590 CURVE SMOOTH",
"551 590 OFFCURVE",
"623 504 OFFCURVE",
"623 319 CURVE"
);
}
);
width = 758;
}
);
},
{
glyphname = "phi-sinhala";
lastChange = "2024-02-21 01:14:21 +0000";
layers = (
{
components = (
{
alignment = -1;
name = "pha-sinhala";
}
);
layerId = "25BA55F5-DD3E-4682-A696-ADF7D9496427";
name = Light;
paths = (
{
closed = 1;
nodes = (
"297 643 LINE",
"255 648 OFFCURVE",
"229 682 OFFCURVE",
"229 727 CURVE SMOOTH",
"229 789 OFFCURVE",
"277 838 OFFCURVE",
"371 838 CURVE SMOOTH",
"464 838 OFFCURVE",
"537 789 OFFCURVE",
"543 701 CURVE",
"601 701 LINE",
"601 816 OFFCURVE",
"510 889 OFFCURVE",
"378 889 CURVE SMOOTH",
"246 889 OFFCURVE",
"172 816 OFFCURVE",
"172 721 CURVE SMOOTH",
"172 644 OFFCURVE",
"222 590 OFFCURVE",
"297 588 CURVE"
);
}
);
width = 741;
}
);
},
{
glyphname = "bi-sinhala";
lastChange = "2024-02-21 01:14:21 +0000";
layers = (
{
layerId = "25BA55F5-DD3E-4682-A696-ADF7D9496427";
name = Light;
paths = (
{
closed = 1;
nodes = (
"178 44 OFFCURVE",
"149 74 OFFCURVE",
"149 120 CURVE SMOOTH",
"149 167 OFFCURVE",
"177 199 OFFCURVE",
"223 199 CURVE SMOOTH",
"268 199 OFFCURVE",
"295 169 OFFCURVE",
"295 122 CURVE SMOOTH",
"295 76 OFFCURVE",
"269 44 OFFCURVE",
"224 44 CURVE SMOOTH"
);
},
{
closed = 1;
nodes = (
"683 188 OFFCURVE",
"636 45 OFFCURVE",
"547 45 CURVE SMOOTH",
"514 45 OFFCURVE",
"491 62 OFFCURVE",
"491 101 CURVE SMOOTH",
"491 157 OFFCURVE",
"521 191 OFFCURVE",
"521 268 CURVE SMOOTH",
"521 392 OFFCURVE",
"439 482 OFFCURVE",
"292 482 CURVE",
"143 482 OFFCURVE",
"50 374 OFFCURVE",
"50 223 CURVE SMOOTH",
"50 102 OFFCURVE",
"110 -10 OFFCURVE",
"225 -10 CURVE SMOOTH",
"296 -10 OFFCURVE",
"349 42 OFFCURVE",
"349 123 CURVE SMOOTH",
"349 202 OFFCURVE",
"303 253 OFFCURVE",
"229 253 CURVE SMOOTH",
"167 253 OFFCURVE",
"114 213 OFFCURVE",
"114 134 CURVE",
"130 129 LINE",
"126 144 OFFCURVE",
"108 167 OFFCURVE",
"108 224 CURVE SMOOTH",
"108 320 OFFCURVE",
"159 427 OFFCURVE",
"291 427 CURVE",
"392 427 OFFCURVE",
"461 376 OFFCURVE",
"461 268 CURVE",
"461 192 OFFCURVE",
"431 160 OFFCURVE",
"431 97 CURVE SMOOTH",
"431 34 OFFCURVE",
"478 -10 OFFCURVE",
"547 -10 CURVE SMOOTH",
"684 -10 OFFCURVE",
"743 162 OFFCURVE",
"743 329 CURVE",
"743 566 OFFCURVE",
"578 645 OFFCURVE",
"347 645 CURVE SMOOTH",
"234 645 OFFCURVE",
"150 651 OFFCURVE",
"150 714 CURVE",
"150 783 OFFCURVE",
"286 789 OFFCURVE",
"380 789 CURVE SMOOTH",
"503 789 OFFCURVE",
"632 766 OFFCURVE",
"632 664 CURVE",
"692 664 LINE",
"692 800 OFFCURVE",
"555 844 OFFCURVE",
"380 844 CURVE SMOOTH",
"241 844 OFFCURVE",
"90 822 OFFCURVE",
"90 714 CURVE",
"90 603 OFFCURVE",
"223 590 OFFCURVE",
"347 590 CURVE SMOOTH",
"551 590 OFFCURVE",
"683 515 OFFCURVE",
"683 330 CURVE"
);
}
);
width = 818;
}
);
},
{
glyphname = "mi-sinhala";
lastChange = "2024-02-21 01:14:21 +0000";
layers = (
{
background = {
paths = (
{
closed = 0;
nodes = (
"705 362 LINE",
"705 208 OFFCURVE",
"628 45 OFFCURVE",
"415 45 CURVE SMOOTH",
"221 45 OFFCURVE",
"115 162 OFFCURVE",
"115 327 CURVE",
"115 438 OFFCURVE",
"145 498 OFFCURVE",
"197 498 CURVE",
"222 498 OFFCURVE",
"232 485 OFFCURVE",
"232 446 CURVE",
"232 367 LINE",
"232 257 OFFCURVE",
"305 180 OFFCURVE",
"424 180 CURVE SMOOTH",
"537 180 OFFCURVE",
"611 251 OFFCURVE",
"611 382 CURVE",
"611 480 OFFCURVE",
"560 554 OFFCURVE",
"475 554 CURVE SMOOTH",
"406 554 OFFCURVE",
"354 505 OFFCURVE",
"354 434 CURVE SMOOTH",
"354 357 OFFCURVE",
"404 314 OFFCURVE",
"470 314 CURVE SMOOTH",
"517 314 OFFCURVE",
"567 347 OFFCURVE",
"567 395 CURVE",
"555 425 LINE",
"558 405 OFFCURVE",
"560 394 OFFCURVE",
"560 385 CURVE SMOOTH",
"560 288 OFFCURVE",
"514 235 OFFCURVE",
"424 235 CURVE SMOOTH",
"334 235 OFFCURVE",
"292 289 OFFCURVE",
"292 368 CURVE",
"292 447 LINE",
"292 511 OFFCURVE",
"263 553 OFFCURVE",
"205 553 CURVE",
"85 553 OFFCURVE",
"55 426 OFFCURVE",
"55 329 CURVE",
"55 329 LINE",
"55 113 OFFCURVE",
"196 -10 OFFCURVE",
"415 -10 CURVE SMOOTH",
"664 -10 OFFCURVE",
"765 182 OFFCURVE",
"765 361 CURVE"
);
},
{
closed = 1;
nodes = (
"519 499 OFFCURVE",
"542 472 OFFCURVE",
"542 434 CURVE SMOOTH",
"542 396 OFFCURVE",
"519 369 OFFCURVE",
"476 369 CURVE SMOOTH",
"436 369 OFFCURVE",
"412 396 OFFCURVE",
"412 434 CURVE SMOOTH",
"412 472 OFFCURVE",
"436 499 OFFCURVE",
"476 499 CURVE SMOOTH"
);
}
);
};
layerId = "25BA55F5-DD3E-4682-A696-ADF7D9496427";
name = Light;
paths = (
{
closed = 1;
nodes = (
"519 479 OFFCURVE",
"542 452 OFFCURVE",
"542 414 CURVE SMOOTH",
"542 376 OFFCURVE",
"519 349 OFFCURVE",
"476 349 CURVE SMOOTH",
"436 349 OFFCURVE",
"412 376 OFFCURVE",
"412 414 CURVE SMOOTH",
"412 452 OFFCURVE",
"436 479 OFFCURVE",
"476 479 CURVE SMOOTH"
);
},
{
closed = 1;
nodes = (
"763 566 OFFCURVE",
"658 645 OFFCURVE",
"427 645 CURVE SMOOTH",
"314 645 OFFCURVE",
"210 651 OFFCURVE",
"210 714 CURVE",
"210 783 OFFCURVE",
"336 789 OFFCURVE",
"430 789 CURVE SMOOTH",
"553 789 OFFCURVE",
"662 766 OFFCURVE",
"662 664 CURVE",
"722 664 LINE",
"722 800 OFFCURVE",
"605 844 OFFCURVE",
"430 844 CURVE SMOOTH",
"291 844 OFFCURVE",
"150 822 OFFCURVE",
"150 714 CURVE",
"150 603 OFFCURVE",
"303 590 OFFCURVE",
"427 590 CURVE SMOOTH",
"631 590 OFFCURVE",
"703 515 OFFCURVE",
"703 330 CURVE",
"703 176 OFFCURVE",
"618 45 OFFCURVE",
"425 45 CURVE SMOOTH",
"247 45 OFFCURVE",
"115 142 OFFCURVE",
"115 307 CURVE",
"115 418 OFFCURVE",
"157 477 OFFCURVE",
"209 477 CURVE",
"234 477 OFFCURVE",
"244 464 OFFCURVE",
"244 435 CURVE SMOOTH",
"244 399 OFFCURVE",
"235 369 OFFCURVE",
"235 325 CURVE SMOOTH",
"235 215 OFFCURVE",
"324 160 OFFCURVE",
"424 160 CURVE SMOOTH",
"537 160 OFFCURVE",
"611 231 OFFCURVE",
"611 362 CURVE",
"611 460 OFFCURVE",
"560 534 OFFCURVE",
"475 534 CURVE SMOOTH",
"406 534 OFFCURVE",
"354 485 OFFCURVE",
"354 414 CURVE SMOOTH",
"354 337 OFFCURVE",
"404 294 OFFCURVE",
"470 294 CURVE SMOOTH",
"517 294 OFFCURVE",
"567 327 OFFCURVE",
"567 375 CURVE",
"555 405 LINE",
"558 385 OFFCURVE",
"560 374 OFFCURVE",
"560 365 CURVE SMOOTH",
"560 268 OFFCURVE",
"514 215 OFFCURVE",
"424 215 CURVE SMOOTH",
"354 215 OFFCURVE",
"295 247 OFFCURVE",
"295 326 CURVE SMOOTH",
"295 373 OFFCURVE",
"304 400 OFFCURVE",
"304 436 CURVE SMOOTH",
"304 490 OFFCURVE",
"275 532 OFFCURVE",
"217 532 CURVE",
"97 532 OFFCURVE",
"55 406 OFFCURVE",
"55 309 CURVE",
"55 309 LINE",
"55 93 OFFCURVE",
"222 -10 OFFCURVE",
"425 -10 CURVE SMOOTH",
"654 -10 OFFCURVE",
"763 150 OFFCURVE",
"763 329 CURVE"
);
}
);
width = 830;
}
);
},
{
glyphname = "mbi-sinhala";
lastChange = "2024-02-21 01:14:21 +0000";
layers = (
{
layerId = "25BA55F5-DD3E-4682-A696-ADF7D9496427";
name = Light;
paths = (
{
closed = 1;
nodes = (
"557 494 OFFCURVE",
"575 469 OFFCURVE",
"575 434 CURVE SMOOTH",
"575 400 OFFCURVE",
"557 374 OFFCURVE",
"514 374 CURVE SMOOTH",
"474 374 OFFCURVE",
"455 400 OFFCURVE",
"455 434 CURVE SMOOTH",
"455 469 OFFCURVE",
"474 494 OFFCURVE",
"514 494 CURVE SMOOTH"
);
},
{
closed = 1;
nodes = (
"844 533 OFFCURVE",
"728 645 OFFCURVE",
"417 645 CURVE SMOOTH",
"304 645 OFFCURVE",
"220 651 OFFCURVE",
"220 714 CURVE",
"220 783 OFFCURVE",
"346 789 OFFCURVE",
"440 789 CURVE SMOOTH",
"563 789 OFFCURVE",
"692 766 OFFCURVE",
"692 664 CURVE",
"752 664 LINE",
"752 800 OFFCURVE",
"615 844 OFFCURVE",
"440 844 CURVE SMOOTH",
"301 844 OFFCURVE",
"160 822 OFFCURVE",
"160 714 CURVE",
"160 603 OFFCURVE",
"293 590 OFFCURVE",
"417 590 CURVE SMOOTH",
"701 590 OFFCURVE",
"784 482 OFFCURVE",
"784 297 CURVE",
"784 157 OFFCURVE",
"740 45 OFFCURVE",
"608 45 CURVE SMOOTH",
"553 45 OFFCURVE",
"531 53 OFFCURVE",
"507 64 CURVE",
"515 43 LINE",
"579 43 OFFCURVE",
"603 87 OFFCURVE",
"603 142 CURVE SMOOTH",
"603 224 OFFCURVE",
"531 271 OFFCURVE",
"444 271 CURVE",
"351 271 OFFCURVE",
"286 224 OFFCURVE",
"286 142 CURVE SMOOTH",
"286 93 OFFCURVE",
"316 47 OFFCURVE",
"380 43 CURVE",
"381 64 LINE",
"357 53 OFFCURVE",
"345 45 OFFCURVE",
"290 45 CURVE SMOOTH",
"178 45 OFFCURVE",
"120 132 OFFCURVE",
"120 278 CURVE",
"120 409 OFFCURVE",
"187 498 OFFCURVE",
"263 498 CURVE",
"288 498 OFFCURVE",
"297 483 OFFCURVE",
"297 462 CURVE SMOOTH",
"297 430 OFFCURVE",
"283 396 OFFCURVE",
"283 363 CURVE SMOOTH",
"283 273 OFFCURVE",
"352 225 OFFCURVE",
"462 225 CURVE SMOOTH",
"575 225 OFFCURVE",
"650 267 OFFCURVE",
"650 398 CURVE",
"650 496 OFFCURVE",
"598 549 OFFCURVE",
"513 549 CURVE SMOOTH",
"444 549 OFFCURVE",
"397 500 OFFCURVE",
"397 434 CURVE SMOOTH",
"397 365 OFFCURVE",
"442 319 OFFCURVE",
"508 319 CURVE SMOOTH",
"555 319 OFFCURVE",
"605 347 OFFCURVE",
"605 395 CURVE",
"588 425 LINE",
"593 406 OFFCURVE",
"593 394 OFFCURVE",
"593 385 CURVE SMOOTH",
"593 310 OFFCURVE",
"554 272 OFFCURVE",
"470 272 CURVE SMOOTH",
"380 272 OFFCURVE",
"343 305 OFFCURVE",
"343 364 CURVE SMOOTH",
"343 390 OFFCURVE",
"357 425 OFFCURVE",
"357 463 CURVE SMOOTH",
"357 520 OFFCURVE",
"325 553 OFFCURVE",
"271 553 CURVE",
"127 553 OFFCURVE",
"60 415 OFFCURVE",
"60 278 CURVE",
"60 278 LINE",
"60 101 OFFCURVE",
"145 -9 OFFCURVE",
"291 -9 CURVE SMOOTH",
"345 -9 OFFCURVE",
"381 0 OFFCURVE",
"416 18 CURVE",
"416 75 LINE",
"377 73 OFFCURVE",
"345 98 OFFCURVE",
"345 142 CURVE SMOOTH",
"345 185 OFFCURVE",
"381 221 OFFCURVE",
"445 221 CURVE",
"509 221 OFFCURVE",
"544 185 OFFCURVE",
"544 142 CURVE SMOOTH",
"544 90 OFFCURVE",
"511 73 OFFCURVE",
"472 75 CURVE",
"472 18 LINE",
"507 0 OFFCURVE",
"554 -10 OFFCURVE",
"608 -10 CURVE SMOOTH",
"784 -10 OFFCURVE",
"844 129 OFFCURVE",
"844 296 CURVE"
);
}
);
width = 904;
}
);
},
{
glyphname = "ri-sinhala";
lastChange = "2024-02-21 01:14:21 +0000";
layers = (
{
components = (
{
alignment = -1;
name = "ra-sinhala";
}
);
layerId = "25BA55F5-DD3E-4682-A696-ADF7D9496427";
name = Light;
paths = (
{
closed = 1;
nodes = (
"334 697 LINE",
"314 701 OFFCURVE",
"303 714 OFFCURVE",
"303 738 CURVE SMOOTH",
"303 797 OFFCURVE",
"369 860 OFFCURVE",
"440 860 CURVE SMOOTH",
"474 860 OFFCURVE",
"502 845 OFFCURVE",
"506 811 CURVE",
"564 811 LINE",
"564 876 OFFCURVE",
"508 909 OFFCURVE",
"443 909 CURVE SMOOTH",
"341 909 OFFCURVE",
"252 829 OFFCURVE",
"252 734 CURVE SMOOTH",
"252 682 OFFCURVE",
"279 640 OFFCURVE",
"334 638 CURVE"
);
}
);
width = 688;
}
);
},
{
glyphname = "vi-sinhala";
lastChange = "2024-02-21 01:14:21 +0000";
layers = (
{
layerId = "25BA55F5-DD3E-4682-A696-ADF7D9496427";
name = Light;
paths = (
{
closed = 1;
nodes = (
"581 -10 OFFCURVE",
"673 140 OFFCURVE",
"673 330 CURVE",
"673 567 OFFCURVE",
"568 645 OFFCURVE",
"337 645 CURVE SMOOTH",
"224 645 OFFCURVE",
"140 651 OFFCURVE",
"140 714 CURVE",
"140 783 OFFCURVE",
"246 789 OFFCURVE",
"340 789 CURVE SMOOTH",
"463 789 OFFCURVE",
"572 766 OFFCURVE",
"572 664 CURVE",
"632 664 LINE",
"632 800 OFFCURVE",
"515 844 OFFCURVE",
"340 844 CURVE SMOOTH",
"201 844 OFFCURVE",
"80 822 OFFCURVE",
"80 714 CURVE",
"80 603 OFFCURVE",
"213 590 OFFCURVE",
"337 590 CURVE SMOOTH",
"541 590 OFFCURVE",
"613 515 OFFCURVE",
"613 330 CURVE",
"613 141 OFFCURVE",
"515 45 OFFCURVE",
"337 45 CURVE SMOOTH",
"204 45 OFFCURVE",
"113 103 OFFCURVE",
"113 202 CURVE SMOOTH",
"113 278 OFFCURVE",
"158 326 OFFCURVE",
"265 326 CURVE",
"378 326 LINE",
"380 340 OFFCURVE",
"380 353 OFFCURVE",
"380 367 CURVE",
"380 462 OFFCURVE",
"337 553 OFFCURVE",
"211 553 CURVE SMOOTH",
"119 553 OFFCURVE",
"65 499 OFFCURVE",
"65 424 CURVE",
"125 424 LINE",
"128 471 OFFCURVE",
"159 498 OFFCURVE",
"212 498 CURVE",
"296 498 OFFCURVE",
"316 439 OFFCURVE",
"316 380 CURVE",
"246 380 LINE",
"125 380 OFFCURVE",
"49 305 OFFCURVE",
"49 201 CURVE SMOOTH",
"49 71 OFFCURVE",
"170 -10 OFFCURVE",
"336 -10 CURVE SMOOTH"
);
}
);
width = 747;
}
);
},
